<svg xmlns="http://www.w3.org/2000/svg" xmlns:xlink="http://www.w3.org/1999/xlink" width="146" height="71" viewBox="0 0 146 71">
  <defs>
    <filter id="Rectangle_3098" x="0" y="25" width="27" height="27" filterUnits="userSpaceOnUse">
      <feOffset dy="3" input="SourceAlpha"/>
      <feGaussianBlur stdDeviation="3" result="blur"/>
      <feFlood flood-opacity="0.161"/>
      <feComposite operator="in" in2="blur"/>
      <feComposite in="SourceGraphic"/>
    </filter>
  </defs>
  <g id="Group_7355" data-name="Group 7355" transform="translate(-790 -1010)">
    <g id="Group_7350" data-name="Group 7350" transform="translate(795 1010)">
      <g id="Group_1002" data-name="Group 1002">
        <g id="Rectangle_665" data-name="Rectangle 665" fill="#eef1fb" stroke="#646a86" stroke-width="1">
          <rect width="17" height="17" rx="8.5" stroke="none"/>
          <rect x="0.5" y="0.5" width="16" height="16" rx="8" fill="none"/>
        </g>
      </g>
      <rect id="Rectangle_3097" data-name="Rectangle 3097" width="112" height="8" rx="4" transform="translate(29 5)" fill="#bfc4d5"/>
    </g>
    <g id="Group_7351" data-name="Group 7351" transform="translate(795 1037.224)">
      <g id="Group_1002-2" data-name="Group 1002">
        <rect id="Rectangle_665-2" data-name="Rectangle 665" width="17" height="17" rx="8.5" transform="translate(0 -0.224)" fill="#646a86"/>
        <g transform="matrix(1, 0, 0, 1, -5, -27.22)" filter="url(#Rectangle_3098)">
          <rect id="Rectangle_3098-2" data-name="Rectangle 3098" width="9" height="9" rx="4.5" transform="translate(9 31)" fill="#fcfcfe"/>
        </g>
      </g>
      <rect id="Rectangle_3097-2" data-name="Rectangle 3097" width="112" height="8" rx="4" transform="translate(29 4.776)" fill="#bfc4d5"/>
    </g>
    <g id="Group_7352" data-name="Group 7352" transform="translate(795 1064.448)">
      <rect id="Rectangle_3097-3" data-name="Rectangle 3097" width="112" height="8" rx="4" transform="translate(29 3.552)" fill="#bfc4d5"/>
      <g id="Group_7353" data-name="Group 7353">
        <g id="Rectangle_665-3" data-name="Rectangle 665" transform="translate(0 -0.448)" fill="#eef1fb" stroke="#646a86" stroke-width="1">
          <rect width="17" height="17" rx="8.5" stroke="none"/>
          <rect x="0.5" y="0.5" width="16" height="16" rx="8" fill="none"/>
        </g>
      </g>
    </g>
  </g>
</svg>
