<svg xmlns="http://www.w3.org/2000/svg" width="152" height="24" viewBox="0 0 152 24">
  <g id="Group_7369" data-name="Group 7369" transform="translate(-780 -1034)">
    <g id="Group_7366" data-name="Group 7366" transform="translate(908 1034)">
      <path id="Path_9219" data-name="Path 9219" d="M0,0H24V24H0Z" fill="none"/>
      <path id="Path_9220" data-name="Path 9220" d="M13.172,12,8.222,7.05,9.636,5.636,16,12,9.636,18.364,8.222,16.95Z" fill="#999eb5"/>
    </g>
    <g id="Group_7367" data-name="Group 7367" transform="translate(780 1034)">
      <path id="Path_9219-2" data-name="Path 9219" d="M24,0H0V24H24Z" fill="none"/>
      <path id="Path_9220-2" data-name="Path 9220" d="M11.05,12,16,7.05,14.586,5.636,8.222,12l6.364,6.364L16,16.95Z" transform="translate(-0.222)" fill="#999eb5"/>
    </g>
    <rect id="Rectangle_3111" data-name="Rectangle 3111" width="24" height="24" rx="4" transform="translate(844 1034)" fill="#d5dae8"/>
    <rect id="Rectangle_3112" data-name="Rectangle 3112" width="24" height="24" rx="4" transform="translate(876 1034)" fill="#d5dae8"/>
    <g id="Group_7368" data-name="Group 7368" transform="translate(0 1)">
      <rect id="Rectangle_3110" data-name="Rectangle 3110" width="24" height="24" rx="4" transform="translate(812 1033)" fill="#646a86"/>
      <text id="_1" data-name="1" transform="translate(822 1050)" fill="#fcfcfe" font-size="12" font-family="HeroNew-Regular, Hero New"><tspan x="0" y="0">1</tspan></text>
    </g>
  </g>
</svg>
