<svg xmlns="http://www.w3.org/2000/svg" xmlns:xlink="http://www.w3.org/1999/xlink" width="156" height="73" viewBox="0 0 156 73">
  <defs>
    <filter id="Rectangle_3031" x="0" y="0" width="156" height="73" filterUnits="userSpaceOnUse">
      <feOffset dy="1" input="SourceAlpha"/>
      <feGaussianBlur stdDeviation="1" result="blur"/>
      <feFlood flood-opacity="0.051"/>
      <feComposite operator="in" in2="blur"/>
      <feComposite in="SourceGraphic"/>
    </filter>
  </defs>
  <g id="Group_7334" data-name="Group 7334" transform="translate(-787 -1031)">
    <g transform="matrix(1, 0, 0, 1, 787, 1031)" filter="url(#Rectangle_3031)">
      <g id="Rectangle_3031-2" data-name="Rectangle 3031" transform="translate(3 2)" fill="#fff" stroke="#d5dae8" stroke-width="1">
        <rect width="150" height="67" rx="5" stroke="none"/>
        <rect x="0.5" y="0.5" width="149" height="66" rx="4.5" fill="none"/>
      </g>
    </g>
    <g id="Rectangle_3032" data-name="Rectangle 3032" transform="translate(801 1041)" fill="#fff" stroke="#bfc4d5" stroke-width="1">
      <rect width="24" height="2" rx="1" stroke="none"/>
      <rect x="0.5" y="0.5" width="23" height="1" rx="0.5" fill="none"/>
    </g>
    <g id="Rectangle_3074" data-name="Rectangle 3074" transform="translate(829 1041)" fill="#fff" stroke="#bfc4d5" stroke-width="1">
      <rect width="24" height="2" rx="1" stroke="none"/>
      <rect x="0.5" y="0.5" width="23" height="1" rx="0.5" fill="none"/>
    </g>
    <g id="Rectangle_3035" data-name="Rectangle 3035" transform="translate(801 1059)" fill="#fff" stroke="#d5dae8" stroke-width="1">
      <rect width="127" height="2" rx="1" stroke="none"/>
      <rect x="0.5" y="0.5" width="126" height="1" rx="0.5" fill="none"/>
    </g>
    <g id="Group_7298" data-name="Group 7298" transform="translate(801 1066)">
      <g id="Rectangle_3037" data-name="Rectangle 3037" fill="#fff" stroke="#d5dae8" stroke-width="1">
        <rect width="127" height="2" rx="1" stroke="none"/>
        <rect x="0.5" y="0.5" width="126" height="1" rx="0.5" fill="none"/>
      </g>
    </g>
    <g id="Group_7335" data-name="Group 7335" transform="translate(0 -15)">
      <g id="Rectangle_3037-2" data-name="Rectangle 3037" transform="translate(801 1088)" fill="#fff" stroke="#d5dae8" stroke-width="1">
        <rect width="39" height="2" rx="1" stroke="none"/>
        <rect x="0.5" y="0.5" width="38" height="1" rx="0.5" fill="none"/>
      </g>
    </g>
    <line id="Line_912" data-name="Line 912" x2="149" transform="translate(790.5 1050.5)" fill="none" stroke="#d5dae8" stroke-width="1"/>
    <rect id="Rectangle_3075" data-name="Rectangle 3075" width="30" height="10" rx="5" transform="translate(898 1082)" fill="#bfc4d5"/>
  </g>
</svg>
