<svg xmlns="http://www.w3.org/2000/svg" xmlns:xlink="http://www.w3.org/1999/xlink" width="191" height="50" viewBox="0 0 191 50">
  <defs>
    <filter id="Path_92" x="6" y="5" width="32" height="28.64" filterUnits="userSpaceOnUse">
      <feOffset dy="3" input="SourceAlpha"/>
      <feGaussianBlur stdDeviation="3" result="blur"/>
      <feFlood flood-opacity="0.161"/>
      <feComposite operator="in" in2="blur"/>
      <feComposite in="SourceGraphic"/>
    </filter>
    <filter id="_2" x="157" y="0" width="27" height="38" filterUnits="userSpaceOnUse">
      <feOffset dy="3" input="SourceAlpha"/>
      <feGaussianBlur stdDeviation="3" result="blur-2"/>
      <feFlood flood-opacity="0.161"/>
      <feComposite operator="in" in2="blur-2"/>
      <feComposite in="SourceGraphic"/>
    </filter>
    <filter id="_1" x="84" y="0" width="25" height="38" filterUnits="userSpaceOnUse">
      <feOffset dy="3" input="SourceAlpha"/>
      <feGaussianBlur stdDeviation="3" result="blur-3"/>
      <feFlood flood-opacity="0.161"/>
      <feComposite operator="in" in2="blur-3"/>
      <feComposite in="SourceGraphic"/>
    </filter>
  </defs>
  <g id="Group_7372" data-name="Group 7372" transform="translate(-770 -1029)">
    <rect id="Rectangle_3113" data-name="Rectangle 3113" width="44" height="3" rx="1" transform="translate(770 1076)" fill="#bfc4d5"/>
    <g id="Group_7371" data-name="Group 7371">
      <g id="Group_5047" data-name="Group 5047" transform="translate(495 9)">
        <circle id="Ellipse_343" data-name="Ellipse 343" cx="16" cy="16" r="16" transform="translate(281 1020)" fill="#bfc4d5"/>
        <g transform="matrix(1, 0, 0, 1, 275, 1020)" filter="url(#Path_92)">
          <path id="Path_92-2" data-name="Path 92" d="M12.061.356A1.12,1.12,0,0,1,13.7,1.884l-7.84,8.4a1.12,1.12,0,0,1-1.548.086L.391,7.01a1.12,1.12,0,1,1,1.458-1.7l3.1,2.661Z" transform="translate(15 11)" fill="#fff"/>
        </g>
      </g>
      <g id="Group_5055" data-name="Group 5055" transform="translate(603 9)">
        <g id="Group_5048" data-name="Group 5048" transform="translate(40)">
          <circle id="Ellipse_343-2" data-name="Ellipse 343" cx="16" cy="16" r="16" transform="translate(281 1020)" fill="#bfc4d5"/>
        </g>
        <g transform="matrix(1, 0, 0, 1, 167, 1020)" filter="url(#_2)">
          <text id="_2-2" data-name="2" transform="translate(166 21)" fill="#fff" font-size="14" font-family="HeroNew-SemiBold, Hero New" font-weight="600"><tspan x="0" y="0">2</tspan></text>
        </g>
      </g>
      <g id="Group_7370" data-name="Group 7370" transform="translate(529 9)">
        <g id="Group_5048-2" data-name="Group 5048" transform="translate(40)">
          <circle id="Ellipse_343-3" data-name="Ellipse 343" cx="16" cy="16" r="16" transform="translate(281 1020)" fill="#646a86"/>
        </g>
        <g transform="matrix(1, 0, 0, 1, 241, 1020)" filter="url(#_1)">
          <text id="_1-2" data-name="1" transform="translate(93 21)" fill="#fff" font-size="14" font-family="HeroNew-SemiBold, Hero New" font-weight="600"><tspan x="0" y="0">1</tspan></text>
        </g>
      </g>
      <rect id="Rectangle_3116" data-name="Rectangle 3116" width="34" height="1" rx="0.5" transform="translate(812 1045)" fill="#bfc4d5"/>
      <rect id="Rectangle_3117" data-name="Rectangle 3117" width="34" height="1" rx="0.5" transform="translate(886 1045)" fill="#bfc4d5"/>
    </g>
    <rect id="Rectangle_3114" data-name="Rectangle 3114" width="44" height="3" rx="1" transform="translate(844 1076)" fill="#bfc4d5"/>
    <rect id="Rectangle_3115" data-name="Rectangle 3115" width="44" height="3" rx="1" transform="translate(917 1076)" fill="#bfc4d5"/>
  </g>
</svg>
