<svg xmlns="http://www.w3.org/2000/svg" xmlns:xlink="http://www.w3.org/1999/xlink" width="168" height="96" viewBox="0 0 168 96">
  <defs>
    <filter id="Rectangle_3031" x="0" y="0" width="168" height="96" filterUnits="userSpaceOnUse">
      <feOffset dy="3" input="SourceAlpha"/>
      <feGaussianBlur stdDeviation="3" result="blur"/>
      <feFlood flood-opacity="0.051"/>
      <feComposite operator="in" in2="blur"/>
      <feComposite in="SourceGraphic"/>
    </filter>
  </defs>
  <g id="Group_7336" data-name="Group 7336" transform="translate(-781 -1027)">
    <g transform="matrix(1, 0, 0, 1, 781, 1027)" filter="url(#Rectangle_3031)">
      <g id="Rectangle_3031-2" data-name="Rectangle 3031" transform="translate(9 6)" fill="#fff" stroke="#d5dae8" stroke-width="0.5">
        <rect width="150" height="78" rx="5" stroke="none"/>
        <rect x="0.25" y="0.25" width="149.5" height="77.5" rx="4.75" fill="none"/>
      </g>
    </g>
    <g id="Rectangle_3035" data-name="Rectangle 3035" transform="translate(801 1058)" fill="#d5dae8" stroke="#d5dae8" stroke-width="1">
      <rect width="127" height="4" rx="2" stroke="none"/>
      <rect x="0.5" y="0.5" width="126" height="3" rx="1.5" fill="none"/>
    </g>
    <g id="Rectangle_3077" data-name="Rectangle 3077" transform="translate(801 1068)" fill="#d5dae8" stroke="#d5dae8" stroke-width="1">
      <rect width="127" height="4" rx="2" stroke="none"/>
      <rect x="0.5" y="0.5" width="126" height="3" rx="1.5" fill="none"/>
    </g>
    <g id="Rectangle_3078" data-name="Rectangle 3078" transform="translate(801 1078)" fill="#d5dae8" stroke="#d5dae8" stroke-width="1">
      <rect width="127" height="4" rx="2" stroke="none"/>
      <rect x="0.5" y="0.5" width="126" height="3" rx="1.5" fill="none"/>
    </g>
    <rect id="Rectangle_3075" data-name="Rectangle 3075" width="30" height="10" rx="5" transform="translate(898 1093)" fill="#798095"/>
    <rect id="Rectangle_3079" data-name="Rectangle 3079" width="30" height="10" rx="5" transform="translate(863 1093)" fill="#e7eaf4"/>
    <rect id="Rectangle_3076" data-name="Rectangle 3076" width="74" height="8" rx="4" transform="translate(801 1041)" fill="#bfc4d5"/>
  </g>
</svg>
