<svg xmlns="http://www.w3.org/2000/svg" xmlns:xlink="http://www.w3.org/1999/xlink" width="162" height="108" viewBox="0 0 162 108">
  <defs>
    <filter id="Rectangle_3031" x="0" y="0" width="162" height="108" filterUnits="userSpaceOnUse">
      <feOffset dy="2" input="SourceAlpha"/>
      <feGaussianBlur stdDeviation="2" result="blur"/>
      <feFlood flood-opacity="0.102"/>
      <feComposite operator="in" in2="blur"/>
      <feComposite in="SourceGraphic"/>
    </filter>
  </defs>
  <g id="Group_7358" data-name="Group 7358" transform="translate(-784 -1029)">
    <g id="Group_7299" data-name="Group 7299">
      <g transform="matrix(1, 0, 0, 1, 784, 1029)" filter="url(#Rectangle_3031)">
        <g id="Rectangle_3031-2" data-name="Rectangle 3031" transform="translate(6 4)" fill="#fff" stroke="#bfc4d5" stroke-width="1">
          <rect width="150" height="96" rx="5" stroke="none"/>
          <rect x="0.5" y="0.5" width="149" height="95" rx="4.5" fill="none"/>
        </g>
      </g>
      <path id="Rectangle_3101" data-name="Rectangle 3101" d="M0,0H148a0,0,0,0,1,0,0V16a4,4,0,0,1-4,4H4a4,4,0,0,1-4-4V0A0,0,0,0,1,0,0Z" transform="translate(791 1108)" fill="#f1f4ff" opacity="0.5"/>
      <rect id="Rectangle_3055" data-name="Rectangle 3055" width="148" height="18" transform="translate(791 1072)" fill="#f1f4ff" opacity="0.5"/>
      <g id="Group_7360" data-name="Group 7360">
        <rect id="Rectangle_3056" data-name="Rectangle 3056" width="5" height="5" rx="2.5" transform="translate(796 1060)" fill="#bfc4d5"/>
        <g id="Group_7359" data-name="Group 7359">
          <rect id="Rectangle_3058" data-name="Rectangle 3058" width="38" height="3" rx="1" transform="translate(805 1061)" fill="#bfc4d5"/>
          <rect id="Rectangle_3102" data-name="Rectangle 3102" width="38" height="3" rx="1" transform="translate(849 1061)" fill="#bfc4d5"/>
          <rect id="Rectangle_3103" data-name="Rectangle 3103" width="38" height="3" rx="1" transform="translate(893 1061)" fill="#bfc4d5"/>
        </g>
      </g>
      <g id="Group_7361" data-name="Group 7361" transform="translate(0 19)">
        <rect id="Rectangle_3056-2" data-name="Rectangle 3056" width="5" height="5" rx="2.5" transform="translate(796 1060)" fill="#bfc4d5"/>
        <g id="Group_7359-2" data-name="Group 7359">
          <rect id="Rectangle_3058-2" data-name="Rectangle 3058" width="38" height="3" rx="1" transform="translate(805 1061)" fill="#bfc4d5"/>
          <rect id="Rectangle_3102-2" data-name="Rectangle 3102" width="38" height="3" rx="1" transform="translate(849 1061)" fill="#bfc4d5"/>
          <rect id="Rectangle_3103-2" data-name="Rectangle 3103" width="38" height="3" rx="1" transform="translate(893 1061)" fill="#bfc4d5"/>
        </g>
      </g>
      <g id="Group_7362" data-name="Group 7362" transform="translate(0 56)">
        <rect id="Rectangle_3056-3" data-name="Rectangle 3056" width="5" height="5" rx="2.5" transform="translate(796 1060)" fill="#bfc4d5"/>
        <g id="Group_7359-3" data-name="Group 7359">
          <rect id="Rectangle_3058-3" data-name="Rectangle 3058" width="38" height="3" rx="1" transform="translate(805 1061)" fill="#bfc4d5"/>
          <rect id="Rectangle_3102-3" data-name="Rectangle 3102" width="38" height="3" rx="1" transform="translate(849 1061)" fill="#bfc4d5"/>
          <rect id="Rectangle_3103-3" data-name="Rectangle 3103" width="38" height="3" rx="1" transform="translate(893 1061)" fill="#bfc4d5"/>
        </g>
      </g>
      <g id="Group_7363" data-name="Group 7363" transform="translate(0 37)">
        <rect id="Rectangle_3056-4" data-name="Rectangle 3056" width="5" height="5" rx="2.5" transform="translate(796 1060)" fill="#bfc4d5"/>
        <g id="Group_7359-4" data-name="Group 7359">
          <rect id="Rectangle_3058-4" data-name="Rectangle 3058" width="38" height="3" rx="1" transform="translate(805 1061)" fill="#bfc4d5"/>
          <rect id="Rectangle_3102-4" data-name="Rectangle 3102" width="38" height="3" rx="1" transform="translate(849 1061)" fill="#bfc4d5"/>
          <rect id="Rectangle_3103-4" data-name="Rectangle 3103" width="38" height="3" rx="1" transform="translate(893 1061)" fill="#bfc4d5"/>
        </g>
      </g>
      <path id="Rectangle_3040" data-name="Rectangle 3040" d="M4,0H144a4,4,0,0,1,4,4V20a0,0,0,0,1,0,0H0a0,0,0,0,1,0,0V4A4,4,0,0,1,4,0Z" transform="translate(791 1034)" fill="#646a86"/>
      <rect id="Rectangle_3035" data-name="Rectangle 3035" width="38" height="3" rx="1" transform="translate(805 1043)" fill="#fcfcfe"/>
      <rect id="Rectangle_3099" data-name="Rectangle 3099" width="38" height="3" rx="1" transform="translate(849 1043)" fill="#fcfcfe"/>
      <rect id="Rectangle_3100" data-name="Rectangle 3100" width="38" height="3" rx="1" transform="translate(893 1043)" fill="#fcfcfe"/>
    </g>
  </g>
</svg>
