<svg xmlns="http://www.w3.org/2000/svg" width="42" height="42" viewBox="0 0 42 42">
  <g id="Group_7349" data-name="Group 7349" transform="translate(-834 -1055)">
    <g id="Path_4136" data-name="Path 4136" transform="translate(834 1055)" fill="none" stroke-linecap="round" stroke-dasharray="70 25">
      <path d="M21,0A21,21,0,1,1,0,21,21,21,0,0,1,21,0Z" stroke="none"/>
      <path d="M 21 0 C 25.50993156433105 0 29.68808746337891 1.421855926513672 33.11022186279297 3.841476440429688 C 34.08835983276367 4.533069610595703 35.00448226928711 5.305999755859375 35.84923934936523 6.150760650634766 C 39.48805236816406 9.789573669433594 41.79768371582031 14.75758171081543 41.98734283447266 20.26400947570801 C 41.99575805664062 20.50830268859863 42 20.7536563873291 42 21 C 42 26.79899024963379 39.64949035644531 32.04898834228516 35.84923934936523 35.84923934936523 C 32.04898834228516 39.64949035644531 26.79899024963379 42 21 42 C 21 42 21 42 21 42 C 20.99641990661621 42 20.99299812316895 42 20.98940658569336 41.99999618530273 C 20.98628234863281 41.99999618530273 20.98369407653809 41.99999237060547 20.98057174682617 41.99999237060547 C 20.97736358642578 41.9999885559082 20.97528839111328 41.99998474121094 20.97208595275879 41.99998092651367 C 20.96879577636719 41.99997711181641 20.96689605712891 41.99997329711914 20.9636058807373 41.99996948242188 C 20.96048545837402 41.99996185302734 20.95852279663086 41.99995803833008 20.95539855957031 41.99995422363281 C 20.95273590087891 41.99994659423828 20.94946098327637 41.99993896484375 20.9467945098877 41.99993515014648 C 20.94429588317871 41.99992752075195 20.94111061096191 41.99991989135742 20.9386157989502 41.99991226196289 C 20.93586349487305 41.99990463256836 20.93275451660156 41.99989318847656 20.93000793457031 41.99988555908203 C 20.92743110656738 41.9998779296875 20.92462539672852 41.9998664855957 20.92204093933105 41.99985885620117 C 20.91946411132812 41.99984741210938 20.91633796691895 41.99983596801758 20.91375160217285 41.99982452392578 C 20.91125679016113 41.99981689453125 20.90797233581543 41.99980163574219 20.90547370910645 41.99979019165039 C 20.90281105041504 41.99977874755859 20.89971923828125 41.9997673034668 20.89705276489258 41.99975204467773 C 20.8946361541748 41.99974060058594 20.89151382446289 41.99972534179688 20.88910102844238 41.99971389770508 C 20.88623046875 41.99969863891602 20.8836498260498 41.99968338012695 20.88077735900879 41.99966812133789 C 20.8749942779541 41.99963760375977 20.86937522888184 41.99960327148438 20.86360931396484 41.99956512451172 C 20.86061668395996 41.99954605102539 20.85834121704102 41.99953079223633 20.85534477233887 41.99951171875 C 20.85159873962402 41.99948501586914 20.84861373901367 41.99946594238281 20.84487152099609 41.99943923950195 C 20.84175109863281 41.99941635131836 20.83948707580566 41.99939727783203 20.83636665344238 41.99937438964844 C 20.83308219909668 41.99935150146484 20.83096694946289 41.99933242797852 20.82768249511719 41.99930572509766 C 20.82456398010254 41.99928283691406 20.82264518737793 41.999267578125 20.81953048706055 41.99924087524414 C 20.81695556640625 41.99921798706055 20.8137321472168 41.99919128417969 20.81115531921387 41.99916839599609 C 20.80857467651367 41.9991455078125 20.80526542663574 41.99911499023438 20.80269241333008 41.99909210205078 C 20.79986190795898 41.99906539916992 20.79705619812012 41.99903869628906 20.79423332214355 41.9990119934082 C 20.79156875610352 41.99898529052734 20.78876304626465 41.99895858764648 20.78610801696777 41.99893188476562 C 20.78345108032227 41.99890518188477 20.78064727783203 41.99887847900391 20.77798652648926 41.99885177612305 C 20.77548980712891 41.99882507324219 20.77226829528809 41.9987907409668 20.769775390625 41.99876403808594 C 20.76719856262207 41.99873733520508 20.76395797729492 41.99869918823242 20.76138496398926 41.99867248535156 C 20.75888633728027 41.9986457824707 20.75575828552246 41.99860763549805 20.75326538085938 41.99858093261719 C 20.75048065185547 41.9985466003418 20.74796485900879 41.99851989746094 20.74518013000488 41.99848556518555 C 20.74256324768066 41.99845504760742 20.73945426940918 41.99841690063477 20.7368335723877 41.99838638305664 C 20.73371696472168 41.99834823608398 20.73142242431641 41.99831771850586 20.72830963134766 41.9982795715332 C 20.7247371673584 41.99823379516602 20.72155952453613 41.99819183349609 20.71798706054688 41.99814605712891 C 20.71470642089844 41.99810028076172 20.71184158325195 41.99806213378906 20.70855712890625 41.99802017211914 C 20.7051944732666 41.99797439575195 20.70343780517578 41.99794769287109 20.70007133483887 41.99790191650391 C 20.69671249389648 41.99785614013672 20.69531631469727 41.99783325195312 20.69195365905762 41.99778747558594 C 20.68875694274902 41.99774169921875 20.68714904785156 41.99771499633789 20.68395233154297 41.9976692199707 C 20.68137741088867 41.99763107299805 20.67806053161621 41.99758148193359 20.67548370361328 41.99754333496094 C 20.67290687561035 41.99750518798828 20.66970443725586 41.99745559692383 20.6671314239502 41.99741363525391 C 20.66438865661621 41.99737167358398 20.6613712310791 41.9973258972168 20.65863609313965 41.99728012084961 C 20.65598106384277 41.99723815917969 20.65328407287598 41.99719619750977 20.65062713623047 41.99715042114258 C 20.64797019958496 41.99710845947266 20.64502906799316 41.9970588684082 20.64237785339355 41.99701690673828 C 20.6398868560791 41.99697494506836 20.63680267333984 41.99692153930664 20.63431358337402 41.99687957763672 C 20.63166236877441 41.99683380126953 20.6284236907959 41.99678039550781 20.62576484680176 41.99673080444336 C 20.62335968017578 41.99668884277344 20.6202220916748 41.99663543701172 20.61781692504883 41.9965934753418 C 20.61453819274902 41.99653244018555 20.6125545501709 41.99649810791016 20.60927391052246 41.99643707275391 C 20.60662078857422 41.99638748168945 20.60375022888184 41.996337890625 20.60109329223633 41.99628829956055 C 20.59769248962402 41.99622344970703 20.59477043151855 41.99617004394531 20.59136962890625 41.9961051940918 C 20.58510971069336 41.9959831237793 20.57906723022461 41.99586486816406 20.57280921936035 41.99574279785156 C 20.57032203674316 41.99568939208984 20.56744384765625 41.99563217163086 20.56495666503906 41.99558258056641 C 20.56176376342773 41.99551773071289 20.56003761291504 41.9954833984375 20.55684280395508 41.99541473388672 C 20.55381774902344 41.99535369873047 20.55180931091309 41.99531173706055 20.54879188537598 41.99524688720703 C 20.54630088806152 41.99519729614258 20.54271125793457 41.99512100219727 20.54022979736328 41.99506759643555 C 20.53774261474609 41.99501419067383 20.53450202941895 41.99494171142578 20.53201103210449 41.99488830566406 C 20.52952766418457 41.99483489990234 20.52612113952637 41.99475860595703 20.52363395690918 41.99470138549805 C 20.52123260498047 41.99464797973633 20.5179386138916 41.99457550048828 20.51553344726562 41.99452209472656 C 20.51313018798828 41.99446868896484 20.50967216491699 41.99438858032227 20.50726890563965 41.99433135986328 C 20.50494766235352 41.99427795410156 20.5014820098877 41.99419784545898 20.49916458129883 41.99414443969727 C 20.49614143371582 41.99407577514648 20.49382019042969 41.9940185546875 20.49079704284668 41.99394607543945 C 20.48777389526367 41.99387359619141 20.48553848266602 41.99382019042969 20.48251152038574 41.99374771118164 C 20.47923851013184 41.99366760253906 20.47728538513184 41.99362182617188 20.47402000427246 41.9935417175293 C 20.47066307067871 41.99345779418945 20.46917533874512 41.99342346191406 20.4658203125 41.99333953857422 C 20.46308708190918 41.99327087402344 20.46023178100586 41.99319839477539 20.45750427246094 41.99312973022461 C 20.45228576660156 41.99299621582031 20.44789695739746 41.99288558959961 20.44267845153809 41.99274826049805 C 20.44081497192383 41.99269866943359 20.43978500366211 41.99267196655273 20.43792152404785 41.99262237548828 C 20.43568229675293 41.9925651550293 20.43269729614258 41.99248504638672 20.43046379089355 41.99242782592773 C 20.42727661132812 41.99234008789062 20.42466926574707 41.99227142333984 20.42148399353027 41.99218368530273 C 20.41829872131348 41.99209976196289 20.41642189025879 41.99204635620117 20.41323280334473 41.99195861816406 C 20.41066551208496 41.99188995361328 20.40734481811523 41.99179840087891 20.40478134155273 41.99172592163086 C 20.4022159576416 41.99165344238281 20.39921760559082 41.99156951904297 20.39665222167969 41.99149703979492 C 20.39400100708008 41.99142456054688 20.39089012145996 41.99133682250977 20.38824272155762 41.99126052856445 C 20.3857593536377 41.99118804931641 20.38283538818359 41.99110412597656 20.38035583496094 41.99103164672852 C 20.37787246704102 41.99095916748047 20.37451934814453 41.99086380004883 20.37203979492188 41.99079132080078 C 20.36972427368164 41.99072265625 20.36637878417969 41.99062347412109 20.36406326293945 41.99055480957031 C 20.36166381835938 41.99048233032227 20.3580322265625 41.99037551879883 20.35563278198242 41.99030303955078 C 20.35331726074219 41.99023056030273 20.34984588623047 41.99012756347656 20.34753036499023 41.99005508422852 C 20.34443092346191 41.98996353149414 20.3421630859375 41.98989105224609 20.33906364440918 41.98979568481445 C 20.33604431152344 41.98970413208008 20.33401298522949 41.98963928222656 20.33099937438965 41.98954391479492 C 20.32773017883301 41.98944473266602 20.32573509216309 41.9893798828125 20.32246780395508 41.98927688598633 C 20.3199462890625 41.98919677734375 20.31703186035156 41.98910522460938 20.31451797485352 41.9890251159668 C 20.31112480163574 41.98891448974609 20.30805587768555 41.98881530761719 20.30467987060547 41.98870468139648 C 20.30191040039062 41.98861694335938 20.29862403869629 41.98850631713867 20.29586601257324 41.98841857910156 C 20.29268264770508 41.98831176757812 20.28988647460938 41.98822021484375 20.28671073913574 41.98811340332031 C 20.28360939025879 41.98801040649414 20.28169250488281 41.98794555664062 20.27859497070312 41.98784255981445 C 20.27541542053223 41.98773193359375 20.27335548400879 41.98766326904297 20.27017021179199 41.98755645751953 C 20.26690673828125 41.98744201660156 20.26500129699707 41.98737716674805 20.26173782348633 41.98726654052734 C 20.25901031494141 41.9871711730957 20.25591850280762 41.98706436157227 20.25319480895996 41.98696899414062 C 20.25063705444336 41.98687744140625 20.2479133605957 41.98678207397461 20.24534797668457 41.9866943359375 C 20.2427864074707 41.98660278320312 20.2397289276123 41.98649215698242 20.23716735839844 41.98640060424805 C 20.2346076965332 41.98630905151367 20.23134231567383 41.9861946105957 20.22878265380859 41.98609924316406 C 20.22597122192383 41.98600006103516 20.22310447692871 41.98589706420898 20.22029685974121 41.98579406738281 C 20.21757125854492 41.98569488525391 20.21501541137695 41.98559951782227 20.21228981018066 41.98550033569336 C 20.20964431762695 41.98540115356445 20.2067699432373 41.98529434204102 20.20412826538086 41.98519515991211 C 20.20086669921875 41.98507690429688 20.19914817810059 41.98501205444336 20.19588851928711 41.98488998413086 C 20.1929988861084 41.98477935791016 20.1904125213623 41.98468017578125 20.18752288818359 41.98457336425781 C 20.18471336364746 41.98446655273438 20.18233489990234 41.984375 20.17952537536621 41.9842643737793 C 20.17267799377441 41.98400115966797 20.16645812988281 41.98376083374023 20.15959930419922 41.98348999023438 C 20.15695762634277 41.9833869934082 20.1540584564209 41.98327255249023 20.15141677856445 41.9831657409668 C 20.14832496643066 41.9830436706543 20.14705276489258 41.98299407958984 20.14395904541016 41.98286819458008 C 20.1408634185791 41.98274612426758 20.13862419128418 41.9826545715332 20.13552856445312 41.98252868652344 C 20.13235664367676 41.98240280151367 20.13034629821777 41.98231887817383 20.12716293334961 41.9821891784668 C 20.12468719482422 41.98208999633789 20.12128829956055 41.98194885253906 20.11881828308105 41.98184585571289 C 20.11650657653809 41.98175048828125 20.11334991455078 41.98162078857422 20.11104202270508 41.98152542114258 C 20.10865020751953 41.98142623901367 20.10487747192383 41.98126602172852 20.10248756408691 41.98116683959961 C 20.09993171691895 41.98106002807617 20.0966739654541 41.98092269897461 20.09412002563477 41.98081207275391 C 20.09139633178711 41.98069763183594 20.08847618103027 41.98057174682617 20.08575630187988 41.9804573059082 C 20.08320236206055 41.9803466796875 20.08038520812988 41.980224609375 20.07782936096191 41.9801139831543 C 20.07543754577637 41.98001098632812 20.07200622558594 41.97986221313477 20.06961631774902 41.97975921630859 C 20.06660842895508 41.97962951660156 20.06454277038574 41.97953796386719 20.06153297424316 41.97940444946289 C 20.05827903747559 41.97926330566406 20.05624580383301 41.97917175292969 20.05299186706543 41.97902679443359 C 20.05006790161133 41.97889709472656 20.04800033569336 41.97880554199219 20.04507446289062 41.97867584228516 C 20.04248046875 41.97855758666992 20.03938674926758 41.97842025756836 20.03677558898926 41.97830200195312 C 20.0330696105957 41.97813415527344 20.02960395812988 41.97797775268555 20.02589416503906 41.97780609130859 C 20.0227222442627 41.9776611328125 20.02070426940918 41.97756958007812 20.01753234863281 41.97742462158203 C 20.01477813720703 41.97729873657227 20.01272583007812 41.97720336914062 20.00995635986328 41.97707366943359 C 20.00678825378418 41.97692489624023 20.00412559509277 41.97680282592773 20.0009593963623 41.97665405273438 C 19.99787139892578 41.97650909423828 19.99578475952148 41.97640991210938 19.99269676208496 41.97626495361328 C 19.9902229309082 41.97615051269531 19.98699378967285 41.97599411010742 19.98452568054199 41.97587966918945 C 19.98221778869629 41.97576904296875 19.97868919372559 41.97560119628906 19.97638320922852 41.97549057006836 C 19.97399711608887 41.97537612915039 19.97056198120117 41.9752082824707 19.96817588806152 41.97509384155273 C 19.9659538269043 41.9749870300293 19.9622631072998 41.97480773925781 19.96004104614258 41.97469711303711 C 19.95765686035156 41.97458267211914 19.95406150817871 41.97440719604492 19.95167350769043 41.97428894042969 C 19.94936943054199 41.97417449951172 19.94576072692871 41.9739990234375 19.94345474243164 41.97388458251953 C 19.9409065246582 41.9737548828125 19.93770408630371 41.97359848022461 19.93514823913574 41.97346878051758 C 19.93206214904785 41.97331619262695 19.9300537109375 41.97321319580078 19.92696571350098 41.97306060791016 C 19.92379951477051 41.972900390625 19.92190551757812 41.97280502319336 19.91873550415039 41.9726448059082 C 19.91564750671387 41.97248840332031 19.91367530822754 41.97238540649414 19.91059303283691 41.97222900390625 C 19.90138244628906 41.97175979614258 19.89274406433105 41.97130966186523 19.88351440429688 41.97082901000977 C 19.88034820556641 41.97066116333008 19.87813186645508 41.97054672241211 19.87496376037598 41.97037887573242 C 19.87196350097656 41.97021865844727 19.87000465393066 41.97011566162109 19.86700439453125 41.96995544433594 C 19.86416816711426 41.96980667114258 19.86187744140625 41.96968460083008 19.85904121398926 41.96953201293945 C 19.85603904724121 41.9693717956543 19.8533763885498 41.9692268371582 19.85037994384766 41.96906661987305 C 19.84807586669922 41.96894073486328 19.84451866149902 41.96875 19.84221458435059 41.96862411499023 C 19.83966636657715 41.96848678588867 19.83621215820312 41.96829605102539 19.83366394042969 41.96815872192383 C 19.8312816619873 41.9680290222168 19.82814025878906 41.96785354614258 19.82575607299805 41.96772384643555 C 19.82328796386719 41.96758651733398 19.81980133056641 41.9673957824707 19.81733703613281 41.96725845336914 C 19.81495475769043 41.96712493896484 19.81171226501465 41.96694564819336 19.80932998657227 41.96681213378906 C 19.8061695098877 41.96663665771484 19.80410194396973 41.96651840209961 19.80093765258789 41.96634292602539 C 19.7978572845459 41.96616744995117 19.79593276977539 41.96606063842773 19.79285430908203 41.96588516235352 C 19.7896900177002 41.96570587158203 19.78769874572754 41.96559143066406 19.7845401763916 41.96541213989258 C 19.78153991699219 41.96524047851562 19.77949714660645 41.96512222290039 19.77650260925293 41.96495056152344 C 19.77375221252441 41.96479415893555 19.77107048034668 41.96463775634766 19.7683219909668 41.96448135375977 C 19.76224899291992 41.96413040161133 19.75656509399414 41.96379852294922 19.75047302246094 41.96343994140625 C 19.74813461303711 41.96330261230469 19.74497604370117 41.96311569213867 19.74264144897461 41.96297836303711 C 19.73911094665527 41.96277236938477 19.73674774169922 41.96263122558594 19.73321342468262 41.96242141723633 C 19.73038101196289 41.96224975585938 19.72764205932617 41.96208953857422 19.72481346130371 41.96191787719727 C 19.72235488891602 41.96177291870117 19.71853828430176 41.96154022216797 19.71607208251953 41.96139144897461 C 19.71360778808594 41.96124649047852 19.71024322509766 41.96104049682617 19.70778274536133 41.96089172363281 C 19.70532035827637 41.96074295043945 19.70210838317871 41.96054840087891 19.69964599609375 41.96039581298828 C 19.69710159301758 41.96023941040039 19.69384765625 41.96004104614258 19.69130325317383 41.95988464355469 C 19.68867874145508 41.95972442626953 19.68575668334961 41.95954513549805 19.68313026428223 41.95938110351562 C 19.68058395385742 41.95922470092773 19.67763137817383 41.95904159545898 19.67509460449219 41.95888137817383 C 19.67263031005859 41.9587287902832 19.66955757141113 41.95853805541992 19.66710090637207 41.95838165283203 C 19.66394233703613 41.95818710327148 19.66190147399902 41.95805740356445 19.65874099731445 41.95785903930664 C 19.65558624267578 41.95766067504883 19.65380477905273 41.95754623413086 19.6506462097168 41.95734786987305 C 19.64773750305176 41.95716094970703 19.64548683166504 41.9570198059082 19.64257621765137 41.95683288574219 C 19.63126564025879 41.95611190795898 19.62035369873047 41.95540618896484 19.60904121398926 41.95466613769531 C 19.60601043701172 41.9544677734375 19.60349082946777 41.95430374145508 19.6004524230957 41.9541015625 C 19.59701156616211 41.95387649536133 19.59481048583984 41.95373153686523 19.59136772155762 41.9535026550293 C 19.58846092224121 41.95331192016602 19.58561515808105 41.95312118530273 19.58270454406738 41.95292663574219 C 19.57995986938477 41.95274353027344 19.57760047912598 41.95258712768555 19.57485389709473 41.9524040222168 C 19.57194900512695 41.95220947265625 19.56924819946289 41.9520263671875 19.56633758544922 41.95183181762695 C 19.56404876708984 41.95167541503906 19.56027221679688 41.95141983032227 19.55797576904297 41.95126342773438 C 19.55559921264648 41.95110321044922 19.5521125793457 41.95086669921875 19.54973793029785 41.95070648193359 C 19.54769325256348 41.95056533813477 19.54401206970215 41.95031356811523 19.54196166992188 41.95017242431641 C 19.53905296325684 41.94997406005859 19.53633308410645 41.94978713989258 19.53343772888184 41.9495849609375 C 19.53044700622559 41.94937896728516 19.52823829650879 41.94922637939453 19.5252571105957 41.94902038574219 C 19.52218437194824 41.94880676269531 19.51997947692871 41.94865417480469 19.51691627502441 41.94844055175781 C 19.51425552368164 41.9482536315918 19.51174163818359 41.94807815551758 19.50907897949219 41.94789123535156 C 19.50613212585449 41.94768524169922 19.50382804870605 41.94752502441406 19.50090599060059 41.94731903076172 C 19.4896183013916 41.9465217590332 19.47881317138672 41.94574737548828 19.46734237670898 41.94492340087891 C 19.46423530578613 41.94469833374023 19.46156311035156 41.94450759887695 19.45845603942871 41.94427871704102 C 19.45493698120117 41.94402694702148 19.45293998718262 41.94388198852539 19.44942474365234 41.94362258911133 C 19.44668579101562 41.94342422485352 19.44411468505859 41.9432373046875 19.44137763977051 41.94303512573242 C 19.43855285644531 41.94282913208008 19.43570899963379 41.94261932373047 19.43289184570312 41.94240951538086 C 19.4300708770752 41.94220352172852 19.42752838134766 41.94201278686523 19.42470550537109 41.94180297851562 C 19.42257881164551 41.94164657592773 19.41870307922363 41.94136047363281 19.41657638549805 41.94120025634766 C 19.41383743286133 41.94099807739258 19.41105842590332 41.94078826904297 19.4083137512207 41.94058227539062 C 19.4054126739502 41.94036483764648 19.40286827087402 41.9401741027832 19.39996910095215 41.93995666503906 C 19.39698791503906 41.93973159790039 19.39467811584473 41.93955612182617 19.39169120788574 41.9393310546875 C 19.38879013061523 41.93910980224609 19.38655090332031 41.93894195556641 19.38365173339844 41.938720703125 C 19.38091468811035 41.93851089477539 19.37825393676758 41.93830871582031 19.37551689147949 41.9380989074707 C 19.37249374389648 41.9378662109375 19.37052154541016 41.93771743774414 19.36749649047852 41.93748474121094 C 19.35361289978027 41.93641662597656 19.34006309509277 41.93535995483398 19.32618713378906 41.93426895141602 C 19.32299041748047 41.93401718139648 19.32124328613281 41.93387603759766 19.31805801391602 41.93362426757812 C 19.31540107727051 41.93341445922852 19.3124885559082 41.93318176269531 19.30983734130859 41.9329719543457 C 19.30657577514648 41.93271255493164 19.30474090576172 41.93256378173828 19.30147552490234 41.93230438232422 C 19.29829025268555 41.93204879760742 19.29655265808105 41.93191146850586 19.29336929321289 41.9316520690918 C 19.29010391235352 41.93139266967773 19.28836250305176 41.93125152587891 19.28509902954102 41.93098831176758 C 19.28183937072754 41.93072128295898 19.28001022338867 41.93057632446289 19.2767448425293 41.9303092956543 C 19.27357482910156 41.93004989624023 19.2716236114502 41.92989349365234 19.26844215393066 41.92963409423828 C 19.26525688171387 41.92937469482422 19.26324653625488 41.9292106628418 19.26006507873535 41.92894744873047 C 19.2569637298584 41.92869567871094 19.25510597229004 41.92854309082031 19.25201034545898 41.92828750610352 C 19.25160217285156 41.92825317382812 19.25105667114258 41.92820739746094 19.25064849853516 41.92817306518555 C 19.22846794128418 41.92634582519531 19.20693206787109 41.92453384399414 19.18477058410645 41.92263793945312 C 19.18167304992676 41.92237091064453 19.1795539855957 41.92219161987305 19.17645645141602 41.92192459106445 C 19.1734447479248 41.92166519165039 19.17123985290527 41.92147445678711 19.16822624206543 41.92121505737305 C 19.16521072387695 41.92095565795898 19.16291618347168 41.92075347900391 19.1599006652832 41.92049407958984 C 19.15688323974609 41.92023086547852 19.15480804443359 41.92005157470703 19.15179443359375 41.9197883605957 C 19.1486988067627 41.91951751708984 19.14652061462402 41.91932678222656 19.14342880249023 41.9190559387207 C 19.14032173156738 41.91878509521484 19.13828468322754 41.91860580444336 19.13519096374512 41.9183349609375 C 19.13218307495117 41.91806793212891 19.13014030456543 41.91788864135742 19.12712669372559 41.91762161254883 C 19.12396812438965 41.91734313964844 19.12206840515137 41.91717529296875 19.11889266967773 41.91689300537109 C 19.11580085754395 41.91661834716797 19.11317253112793 41.91638565063477 19.11007881164551 41.91611099243164 C 19.1099967956543 41.91610336303711 19.10977363586426 41.91608047485352 19.10969161987305 41.91607284545898 C 19.07925033569336 41.91336059570312 19.04902839660645 41.91059494018555 19.01862716674805 41.90775299072266 C 19.01854515075684 41.90774536132812 19.01847457885742 41.90773773193359 19.01839256286621 41.90773010253906 C 18.97416877746582 41.90359115600586 18.93012046813965 41.89932632446289 18.88597869873047 41.89491653442383 C 18.88597869873047 41.89491653442383 18.88596343994141 41.89491271972656 18.88596343994141 41.89491271972656 C 18.24865531921387 41.83120727539062 17.62051391601562 41.73915481567383 17.00128746032715 41.61975479125977 C 15.91866111755371 41.40924072265625 15.21059989929199 40.36174774169922 15.41926956176758 39.27830123901367 C 15.62817001342773 38.19367218017578 16.67677879333496 37.48373794555664 17.76143074035645 37.6926383972168 C 18.82033920288086 37.89659118652344 19.90995025634766 38 21 38 C 25.54085922241211 38 29.80994033813477 36.231689453125 33.02082061767578 33.02082061767578 C 36.231689453125 29.80994033813477 38 25.54085922241211 38 21 C 38 16.45914077758789 36.231689453125 12.19005966186523 33.02082061767578 8.979179382324219 C 29.80994033813477 5.768310546875 25.54085922241211 4 21 4 C 21 4 21 4 21 4 C 16.45914077758789 4 12.19005966186523 5.768310546875 8.979179382324219 8.979179382324219 C 5.768310546875 12.19005966186523 4 16.45914077758789 4 21 C 4 22.07719993591309 4.101001739501953 23.15422058105469 4.300189971923828 24.2011604309082 C 4.506649017333984 25.28627014160156 3.794368743896484 26.33327865600586 2.709259033203125 26.53973960876465 C 1.624160766601562 26.74619293212891 0.5771408081054688 26.03390693664551 0.3706893920898438 24.94881057739258 C 0.2138481140136719 24.12448120117188 0.1051979064941406 23.28312873840332 0.04776763916015625 22.42769432067871 C 0.04776763916015625 22.42769432067871 0.04776382446289062 22.42760848999023 0.04776382446289062 22.42760848999023 C 0.04741287231445312 22.42242431640625 0.04707717895507812 22.4173526763916 0.04673004150390625 22.41216850280762 C 0.04673004150390625 22.41216850280762 0.04671859741210938 22.41197967529297 0.04671859741210938 22.41197967529297 C 0.04465866088867188 22.38094711303711 0.0426788330078125 22.35009002685547 0.04075241088867188 22.31902122497559 C 0.04075241088867188 22.31902122497559 0.04071807861328125 22.31848335266113 0.04071807861328125 22.31848335266113 C 0.04040145874023438 22.3133716583252 0.04008865356445312 22.30828666687012 0.03977584838867188 22.30317497253418 C 0.03977584838867188 22.30317497253418 0.03976821899414062 22.30305671691895 0.03976821899414062 22.30305671691895 C 0.03945159912109375 22.29786491394043 0.03914642333984375 22.29283714294434 0.03882980346679688 22.28764343261719 C 0.03882980346679688 22.28764343261719 0.03881072998046875 22.28731155395508 0.03881072998046875 22.28731155395508 C 0.03757095336914062 22.26678085327148 0.03635787963867188 22.2462158203125 0.03517532348632812 22.22566986083984 C 0.03517532348632812 22.22566986083984 0.03513717651367188 22.22504806518555 0.03513717651367188 22.22504806518555 C 0.03499603271484375 22.22261238098145 0.03485107421875 22.22008323669434 0.0347137451171875 22.21764755249023 C 0.0347137451171875 22.21764755249023 0.03469467163085938 22.21730041503906 0.03469467163085938 22.21730041503906 C 0.03455352783203125 22.21486473083496 0.03442764282226562 22.21263694763184 0.03429031372070312 22.2101993560791 C 0.03424835205078125 22.20950126647949 0.034271240234375 22.20992088317871 0.03423309326171875 22.2092227935791 C 0.03410720825195312 22.20702934265137 0.0339813232421875 22.20476722717285 0.03385543823242188 22.20257377624512 C 0.03381729125976562 22.20187759399414 0.0338134765625 22.20183372497559 0.03377532958984375 22.20113563537598 C 0.033660888671875 22.19910430908203 0.03354263305664062 22.19701385498047 0.03342819213867188 22.19498252868652 C 0.03339004516601562 22.19428443908691 0.03335189819335938 22.1936092376709 0.03331375122070312 22.19291114807129 C 0.03319549560546875 22.19079971313477 0.03308868408203125 22.18890380859375 0.03297042846679688 22.18679046630859 C 0.03293228149414062 22.18609237670898 0.03293228149414062 22.18610382080078 0.03289413452148438 22.18540573120117 C 0.03277206420898438 22.1832103729248 0.03264617919921875 22.18096351623535 0.03252792358398438 22.17876815795898 C 0.0324859619140625 22.17807006835938 0.032501220703125 22.17830467224121 0.03246307373046875 22.1776065826416 C 0.03233718872070312 22.17533111572266 0.0322113037109375 22.17308235168457 0.03208541870117188 22.17080688476562 C 0.03208541870117188 22.17080688476562 0.03204345703125 22.17001914978027 0.03204345703125 22.17001914978027 C 0.03190994262695312 22.16758155822754 0.0317840576171875 22.16530227661133 0.03165054321289062 22.16286468505859 C 0.03165054321289062 22.16286468505859 0.0316314697265625 22.16249656677246 0.0316314697265625 22.16249656677246 C 0.03078460693359375 22.14697265625 0.02996444702148438 22.13160514831543 0.02915191650390625 22.1160717010498 C 0.02915191650390625 22.1160717010498 0.029144287109375 22.11594581604004 0.029144287109375 22.11594581604004 C 0.02902603149414062 22.11366844177246 0.02890396118164062 22.11137390136719 0.02878570556640625 22.10909652709961 C 0.02875137329101562 22.10839653015137 0.02875518798828125 22.10848426818848 0.028717041015625 22.10778617858887 C 0.02861404418945312 22.10575294494629 0.02850341796875 22.10367012023926 0.02840042114257812 22.10163688659668 C 0.02836227416992188 22.10093879699707 0.02833938598632812 22.10044479370117 0.02830123901367188 22.09974670410156 C 0.0281829833984375 22.09746932983398 0.028076171875 22.09537696838379 0.02796173095703125 22.09309768676758 C 0.027923583984375 22.09239959716797 0.02795028686523438 22.0928897857666 0.02791213989257812 22.09218978881836 C 0.02779388427734375 22.08983039855957 0.027679443359375 22.08762359619141 0.02756118774414062 22.08526420593262 C 0.02756118774414062 22.08526420593262 0.02750778198242188 22.0842456817627 0.02750778198242188 22.0842456817627 C 0.02739334106445312 22.08196830749512 0.02727508544921875 22.07967567443848 0.02716064453125 22.0773983001709 C 0.02716064453125 22.0773983001709 0.027099609375 22.07621574401855 0.027099609375 22.07621574401855 C 0.0269927978515625 22.07409858703613 0.02688980102539062 22.07199287414551 0.02678298950195312 22.06987762451172 C 0.0267486572265625 22.06917762756348 0.0267181396484375 22.06857872009277 0.02667999267578125 22.06788063049316 C 0.02657699584960938 22.06576347351074 0.0264739990234375 22.06373977661133 0.02637100219726562 22.06162261962891 C 0.02633285522460938 22.0609245300293 0.02634048461914062 22.06107139587402 0.02630615234375 22.06037139892578 C 0.02620315551757812 22.05825614929199 0.026092529296875 22.05606460571289 0.02598953247070312 22.05394744873047 C 0.0259552001953125 22.05324935913086 0.02592849731445312 22.05269622802734 0.02589035034179688 22.0519962310791 C 0.025787353515625 22.04988098144531 0.02568817138671875 22.04783821105957 0.02558517456054688 22.04572296142578 C 0.02558517456054688 22.04572296142578 0.02556228637695312 22.04527282714844 0.02556228637695312 22.04527282714844 C 0.02544021606445312 22.0428295135498 0.02532196044921875 22.04040336608887 0.02520370483398438 22.03796195983887 C 0.02516937255859375 22.03726196289062 0.02518844604492188 22.03761291503906 0.02515411376953125 22.03691291809082 C 0.024688720703125 22.02738761901855 0.02423095703125 22.01782417297363 0.02378082275390625 22.00829696655273 C 0.02374649047851562 22.00759696960449 0.02371597290039062 22.00690460205078 0.023681640625 22.00620460510254 C 0.02359771728515625 22.0044116973877 0.02350997924804688 22.00254821777344 0.02342605590820312 22.00075721740723 C 0.0233917236328125 22.00005722045898 0.02334213256835938 21.99892807006836 0.02330780029296875 21.99822807312012 C 0.02322769165039062 21.99651908874512 0.02315139770507812 21.99489593505859 0.0230712890625 21.99318695068359 C 0.023040771484375 21.99248695373535 0.02295303344726562 21.99063491821289 0.02292251586914062 21.98993492126465 C 0.0228424072265625 21.98822402954102 0.02276611328125 21.98657989501953 0.02268600463867188 21.9848690032959 C 0.02265548706054688 21.98417091369629 0.0225982666015625 21.98295593261719 0.0225677490234375 21.98225593566895 C 0.02248382568359375 21.9804630279541 0.02239227294921875 21.97850608825684 0.02231216430664062 21.97671508789062 C 0.02228164672851562 21.97601509094238 0.02222824096679688 21.97486114501953 0.02219390869140625 21.97416114807129 C 0.02211380004882812 21.97236824035645 0.02202224731445312 21.97040557861328 0.021942138671875 21.96861267089844 C 0.02187728881835938 21.96721267700195 0.02190017700195312 21.96767234802246 0.0218353271484375 21.96627235412598 C 0.02175140380859375 21.96439743041992 0.02167129516601562 21.96261215209961 0.02158737182617188 21.96073722839355 C 0.02155303955078125 21.96003723144531 0.0214996337890625 21.95878028869629 0.02146530151367188 21.95807838439941 C 0.02138519287109375 21.9562873840332 0.02130508422851562 21.95443153381348 0.0212249755859375 21.95264053344727 C 0.02119064331054688 21.95193862915039 0.02115249633789062 21.95101165771484 0.0211181640625 21.9503116607666 C 0.02103424072265625 21.94843864440918 0.0209503173828125 21.9465160369873 0.02086639404296875 21.94464111328125 C 0.02083587646484375 21.94394111633301 0.020782470703125 21.94269943237305 0.020751953125 21.9419994354248 C 0.02067184448242188 21.94020652770996 0.02059555053710938 21.9384880065918 0.02051544189453125 21.93669509887695 C 0.02048492431640625 21.93599510192871 0.02043914794921875 21.93487358093262 0.02040863037109375 21.93417358398438 C 0.02032470703125 21.93229866027832 0.02024078369140625 21.93039321899414 0.02016067504882812 21.92851829528809 C 0.02013015747070312 21.92781829833984 0.0201416015625 21.92806816101074 0.020111083984375 21.9273681640625 C 0.01969528198242188 21.91783142089844 0.01929473876953125 21.9084358215332 0.018890380859375 21.89889717102051 C 0.01886367797851562 21.89819526672363 0.01883316040039062 21.89750289916992 0.01880264282226562 21.89680290222168 C 0.01873016357421875 21.89509010314941 0.01865768432617188 21.89328956604004 0.018585205078125 21.89157676696777 C 0.0185546875 21.89087677001953 0.01849365234375 21.88938331604004 0.018463134765625 21.8886833190918 C 0.01839447021484375 21.88705062866211 0.01833343505859375 21.88556289672852 0.01826858520507812 21.88393211364746 C 0.01823806762695312 21.88323211669922 0.018157958984375 21.88126564025879 0.01812744140625 21.88056373596191 C 0.01805877685546875 21.87893295288086 0.01799392700195312 21.87732887268066 0.0179290771484375 21.87569808959961 C 0.0178985595703125 21.87499618530273 0.017822265625 21.8731575012207 0.01779556274414062 21.87245559692383 C 0.017730712890625 21.87090682983398 0.017669677734375 21.8693733215332 0.01760482788085938 21.86782455444336 C 0.017547607421875 21.86642265319824 0.01752471923828125 21.86578559875488 0.01746749877929688 21.86438369750977 C 0.01739883422851562 21.86275291442871 0.017333984375 21.86114692687988 0.01726913452148438 21.85951614379883 C 0.0172119140625 21.85811424255371 0.01720046997070312 21.85780906677246 0.01714706420898438 21.85640716552734 C 0.01707839965820312 21.85477638244629 0.01701736450195312 21.85319709777832 0.0169525146484375 21.85156440734863 C 0.01689529418945312 21.85016250610352 0.01688003540039062 21.84978294372559 0.01682662963867188 21.84838104248047 C 0.01675796508789062 21.8466682434082 0.01668548583984375 21.84487915039062 0.0166168212890625 21.84316635131836 C 0.01659011840820312 21.84246444702148 0.01654434204101562 21.84130096435547 0.01651763916015625 21.84059906005859 C 0.016448974609375 21.83888626098633 0.01637649536132812 21.83701133728027 0.01630783081054688 21.83529663085938 C 0.0162811279296875 21.83459663391113 0.0162200927734375 21.83304595947266 0.01619338989257812 21.83234405517578 C 0.0161285400390625 21.83063125610352 0.01605987548828125 21.82888984680176 0.0159912109375 21.82717514038086 C 0.01596450805664062 21.82647323608398 0.01590728759765625 21.82501029968262 0.01588058471679688 21.82430839538574 C 0.01581573486328125 21.82259559631348 0.01575088500976562 21.82093811035156 0.01568603515625 21.81922340393066 C 0.01563262939453125 21.81782150268555 0.0156402587890625 21.81799125671387 0.01558685302734375 21.81658744812012 C 0.01525115966796875 21.80785369873047 0.01492691040039062 21.79920196533203 0.0146026611328125 21.79046440124512 C 0.01454925537109375 21.7890625 0.0145263671875 21.78845405578613 0.01447677612304688 21.78705024719238 C 0.01441192626953125 21.78533554077148 0.0143585205078125 21.78383827209473 0.0142974853515625 21.78212356567383 C 0.01427078247070312 21.78142166137695 0.01421356201171875 21.77993583679199 0.014190673828125 21.77923393249512 C 0.014129638671875 21.77760124206543 0.01407241821289062 21.77603912353516 0.01401519775390625 21.77440643310547 C 0.01398849487304688 21.77370452880859 0.01390838623046875 21.77150726318359 0.013885498046875 21.77080535888672 C 0.01383209228515625 21.76941871643066 0.01378250122070312 21.76801109313965 0.01373291015625 21.76662254333496 C 0.01368331909179688 21.76521873474121 0.01364517211914062 21.76418113708496 0.0135955810546875 21.76277732849121 C 0.0135498046875 21.76147079467773 0.01350021362304688 21.76006507873535 0.01345443725585938 21.75875854492188 C 0.01340484619140625 21.75735473632812 0.01334381103515625 21.75566864013672 0.01329421997070312 21.75426483154297 C 0.01325225830078125 21.75303840637207 0.01320648193359375 21.75176620483398 0.01316452026367188 21.75054168701172 C 0.01311492919921875 21.74913787841797 0.01307296752929688 21.74800682067871 0.01302337646484375 21.74660301208496 C 0.01297378540039062 21.74513244628906 0.01292037963867188 21.7436351776123 0.01287078857421875 21.74216461181641 C 0.01282119750976562 21.74076080322266 0.01278305053710938 21.7396125793457 0.01273345947265625 21.73820877075195 C 0.01268768310546875 21.73690032958984 0.01263809204101562 21.73550415039062 0.01259613037109375 21.73419761657715 C 0.01254653930664062 21.7327938079834 0.01250076293945312 21.73146820068359 0.01245498657226562 21.73006439208984 C 0.01240921020507812 21.72875785827637 0.01236343383789062 21.72747230529785 0.01232147216796875 21.72616386413574 C 0.01227188110351562 21.72476005554199 0.01221466064453125 21.72301292419434 0.01216506958007812 21.72160720825195 C 0.01212692260742188 21.7204647064209 0.01208114624023438 21.71909713745117 0.01204299926757812 21.71795272827148 C 0.01199722290039062 21.71654891967773 0.01195144653320312 21.71525764465332 0.01190567016601562 21.71385383605957 C 0.01185989379882812 21.71246337890625 0.01181411743164062 21.71111869812012 0.01176834106445312 21.70973014831543 C 0.01172256469726562 21.70832633972168 0.01168441772460938 21.70721626281738 0.01163864135742188 21.705810546875 C 0.01158905029296875 21.7043399810791 0.01154327392578125 21.70296478271484 0.01149749755859375 21.70149421691895 C 0.01145172119140625 21.70008850097656 0.0114288330078125 21.69941711425781 0.011383056640625 21.69801330566406 C 0.01133346557617188 21.69654083251953 0.01128005981445312 21.69492530822754 0.01123428344726562 21.69345283508301 C 0.01118850708007812 21.69204902648926 0.01115798950195312 21.69107055664062 0.01111221313476562 21.68966484069824 C 0.01099395751953125 21.68606948852539 0.0108795166015625 21.68250274658203 0.01076507568359375 21.67890548706055 C 0.01074600219726562 21.67820167541504 0.01074600219726562 21.67826461791992 0.01072311401367188 21.67756080627441 C 0.0106658935546875 21.67568016052246 0.01060867309570312 21.67386627197266 0.01054763793945312 21.6719856262207 C 0.01050567626953125 21.67058181762695 0.0105133056640625 21.67086410522461 0.010467529296875 21.66945838928223 C 0.0104217529296875 21.66790580749512 0.01036834716796875 21.66629028320312 0.01032257080078125 21.66473770141602 C 0.0102996826171875 21.66403388977051 0.01023483276367188 21.66193771362305 0.01021194458007812 21.66123390197754 C 0.01016616821289062 21.65976142883301 0.0101165771484375 21.65815353393555 0.01007080078125 21.65668106079102 C 0.01005172729492188 21.65597915649414 0.009983062744140625 21.65376091003418 0.009960174560546875 21.6530590057373 C 0.009918212890625 21.65166854858398 0.009876251220703125 21.65029525756836 0.00983428955078125 21.64890480041504 C 0.009792327880859375 21.64749908447266 0.009754180908203125 21.64626884460449 0.00971221923828125 21.64486503601074 C 0.009670257568359375 21.64347457885742 0.0096282958984375 21.64208221435547 0.009586334228515625 21.64069175720215 C 0.00954437255859375 21.63928604125977 0.0095062255859375 21.63799858093262 0.009464263916015625 21.63659286499023 C 0.009429931640625 21.63536643981934 0.00939178466796875 21.63407897949219 0.0093536376953125 21.63285255432129 C 0.009311676025390625 21.63144683837891 0.0092620849609375 21.62977027893066 0.009220123291015625 21.62836456298828 C 0.009181976318359375 21.62705612182617 0.009143829345703125 21.62577056884766 0.009105682373046875 21.62446212768555 C 0.009067535400390625 21.62305641174316 0.009029388427734375 21.62182807922363 0.008991241455078125 21.62042236328125 C 0.00894927978515625 21.6190299987793 0.008907318115234375 21.6175537109375 0.0088653564453125 21.61616325378418 C 0.008846282958984375 21.61545944213867 0.0087890625 21.61343002319336 0.00876617431640625 21.61272811889648 C 0.00872039794921875 21.61100959777832 0.00867462158203125 21.60945129394531 0.008625030517578125 21.60773277282715 C 0.00860595703125 21.60703086853027 0.0085601806640625 21.60538673400879 0.00853729248046875 21.60468292236328 C 0.008495330810546875 21.60312843322754 0.008449554443359375 21.60152053833008 0.0084075927734375 21.59996604919434 C 0.00838470458984375 21.59926223754883 0.0083160400390625 21.5967845916748 0.008296966552734375 21.59608268737793 C 0.0082550048828125 21.59460830688477 0.00821685791015625 21.59318923950195 0.008174896240234375 21.59171485900879 C 0.008136749267578125 21.59030914306641 0.00811767578125 21.58962059020996 0.00807952880859375 21.58821296691895 C 0.008037567138671875 21.5866584777832 0.00799560546875 21.58516693115234 0.007953643798828125 21.5836124420166 C 0.007915496826171875 21.58220672607422 0.0079193115234375 21.58241271972656 0.00788116455078125 21.58100509643555 C 0.0077972412109375 21.57789611816406 0.007709503173828125 21.57464599609375 0.00762939453125 21.57153511047363 C 0.00759124755859375 21.57012939453125 0.007556915283203125 21.56884574890137 0.007518768310546875 21.56743812561035 C 0.00749969482421875 21.56670188903809 0.007480621337890625 21.56596374511719 0.0074615478515625 21.56522560119629 C 0.007404327392578125 21.5631160736084 0.007366180419921875 21.5616455078125 0.0073089599609375 21.55953407287598 C 0.007274627685546875 21.55814361572266 0.007236480712890625 21.55675506591797 0.0072021484375 21.55536270141602 C 0.00716400146484375 21.55395698547363 0.007129669189453125 21.55266761779785 0.0070953369140625 21.55126190185547 C 0.007061004638671875 21.54986953735352 0.007022857666015625 21.54839515686035 0.006984710693359375 21.54700469970703 C 0.006969451904296875 21.54630088806152 0.006908416748046875 21.54403305053711 0.006893157958984375 21.5433292388916 C 0.006855010986328125 21.54185676574707 0.0068206787109375 21.54043006896973 0.00678253173828125 21.53895568847656 C 0.006744384765625 21.53754806518555 0.0067138671875 21.53630828857422 0.006679534912109375 21.5349006652832 C 0.006649017333984375 21.53359031677246 0.00661468505859375 21.53224182128906 0.006580352783203125 21.53093147277832 C 0.0065460205078125 21.52952575683594 0.0065155029296875 21.52831268310547 0.006481170654296875 21.52690505981445 C 0.00644683837890625 21.5255126953125 0.006412506103515625 21.52416801452637 0.006381988525390625 21.52277565002441 C 0.00634765625 21.5213680267334 0.00630950927734375 21.51986122131348 0.006275177001953125 21.51845359802246 C 0.006244659423828125 21.51722526550293 0.00621795654296875 21.51609230041504 0.00618743896484375 21.51486396789551 C 0.006153106689453125 21.51345634460449 0.00611114501953125 21.5115909576416 0.006076812744140625 21.51018333435059 C 0.00605010986328125 21.50903701782227 0.006023406982421875 21.5079402923584 0.0059967041015625 21.50679397583008 C 0.005962371826171875 21.50538635253906 0.0059051513671875 21.50287246704102 0.005870819091796875 21.50146484375 C 0.005847930908203125 21.50056457519531 0.005828857421875 21.49966812133789 0.00580596923828125 21.4987678527832 C 0.005756378173828125 21.49665451049805 0.005733489990234375 21.49554824829102 0.00568389892578125 21.49343681335449 C 0.0056610107421875 21.49237251281738 0.00563812255859375 21.49142646789551 0.005611419677734375 21.49036026000977 C 0.005565643310546875 21.48824882507324 0.00554656982421875 21.4874439239502 0.005496978759765625 21.48533248901367 C 0.005474090576171875 21.48426628112793 0.0054473876953125 21.48314666748047 0.00542449951171875 21.48208236694336 C 0.00537872314453125 21.4799690246582 0.005359649658203125 21.47924995422363 0.005313873291015625 21.47713661193848 C 0.005290985107421875 21.47607231140137 0.0052642822265625 21.47498893737793 0.00524139404296875 21.47392463684082 C 0.00519561767578125 21.47181129455566 0.005161285400390625 21.47030258178711 0.005115509033203125 21.46818923950195 C 0.005100250244140625 21.46737098693848 0.0050811767578125 21.46654891967773 0.005062103271484375 21.46572875976562 C 0.005016326904296875 21.4636173248291 0.0049591064453125 21.46101951599121 0.004917144775390625 21.45890808105469 C 0.004894256591796875 21.45800590515137 0.00487518310546875 21.45708656311035 0.004856109619140625 21.45618438720703 C 0.004810333251953125 21.45407104492188 0.004756927490234375 21.45144462585449 0.004711151123046875 21.44933128356934 C 0.004695892333984375 21.44851303100586 0.004680633544921875 21.44790649414062 0.004665374755859375 21.44708633422852 C 0.004619598388671875 21.44497299194336 0.00458526611328125 21.44330406188965 0.004543304443359375 21.44119071960449 C 0.004520416259765625 21.44012451171875 0.00449371337890625 21.43887329101562 0.004474639892578125 21.43780708312988 C 0.004428863525390625 21.43569374084473 0.004421234130859375 21.43521881103516 0.0043792724609375 21.43310546875 C 0.0043487548828125 21.43171119689941 0.004322052001953125 21.43042373657227 0.00429534912109375 21.42902946472168 C 0.004268646240234375 21.42762184143066 0.004245758056640625 21.42658424377441 0.00421905517578125 21.42517471313477 C 0.00418853759765625 21.42361640930176 0.00415802001953125 21.42207717895508 0.00412750244140625 21.42051887512207 C 0.00411224365234375 21.41981315612793 0.004070281982421875 21.41765785217285 0.004058837890625 21.41695404052734 C 0.0040283203125 21.41547775268555 0.004001617431640625 21.41412353515625 0.00397491455078125 21.41264724731445 C 0.003948211669921875 21.4112377166748 0.00392913818359375 21.41026496887207 0.003902435302734375 21.40885543823242 C 0.003871917724609375 21.40729713439941 0.003841400146484375 21.40580749511719 0.003814697265625 21.40424919128418 C 0.003787994384765625 21.40283966064453 0.003772735595703125 21.40207862854004 0.00374603271484375 21.40066909790039 C 0.003719329833984375 21.39919281005859 0.003692626953125 21.39778900146484 0.003665924072265625 21.39631080627441 C 0.00363922119140625 21.39490127563477 0.003620147705078125 21.39387893676758 0.00359344482421875 21.39246940612793 C 0.003570556640625 21.39107513427734 0.0035400390625 21.38956260681152 0.00351715087890625 21.38816833496094 C 0.003490447998046875 21.38675880432129 0.0034637451171875 21.38519477844238 0.003437042236328125 21.38378524780273 C 0.00341796875 21.38263702392578 0.00339508056640625 21.38151550292969 0.003376007080078125 21.38036727905273 C 0.00334930419921875 21.37895584106445 0.00331878662109375 21.37705612182617 0.003292083740234375 21.37564659118652 C 0.00327301025390625 21.37441635131836 0.003246307373046875 21.37308120727539 0.00322723388671875 21.37185096740723 C 0.003200531005859375 21.37044143676758 0.003173828125 21.36869812011719 0.003147125244140625 21.36728858947754 C 0.0031280517578125 21.36614036560059 0.003108978271484375 21.36506271362305 0.00308990478515625 21.36391258239746 C 0.003055572509765625 21.3617992401123 0.00304412841796875 21.36113739013672 0.0030059814453125 21.35902214050293 C 0.002986907958984375 21.35787391662598 0.00296783447265625 21.35667419433594 0.002948760986328125 21.35552406311035 C 0.0029144287109375 21.35340881347656 0.0028839111328125 21.35146522521973 0.00284576416015625 21.34934997558594 C 0.002838134765625 21.34877586364746 0.002826690673828125 21.34810066223145 0.002819061279296875 21.34752464294434 C 0.00278472900390625 21.34540939331055 0.00275421142578125 21.34356117248535 0.002719879150390625 21.34144592285156 C 0.002689361572265625 21.33947563171387 0.002658843994140625 21.3375186920166 0.002628326416015625 21.33554840087891 C 0.002605438232421875 21.33413696289062 0.0025787353515625 21.33254432678223 0.002559661865234375 21.33113479614258 C 0.00254058837890625 21.32998466491699 0.002521514892578125 21.32868385314941 0.00250244140625 21.32753372192383 C 0.002471923828125 21.32541847229004 0.002468109130859375 21.3252067565918 0.00243377685546875 21.32308959960938 C 0.002414703369140625 21.32177734375 0.002399444580078125 21.32065200805664 0.00238037109375 21.31933784484863 C 0.002346038818359375 21.31722068786621 0.00234222412109375 21.31679153442383 0.00231170654296875 21.31467437744141 C 0.002292633056640625 21.31352615356445 0.0022735595703125 21.31222343444824 0.00225830078125 21.31107330322266 C 0.00223541259765625 21.30966186523438 0.002216339111328125 21.30813598632812 0.002193450927734375 21.30672454833984 C 0.00217437744140625 21.30541038513184 0.002155303955078125 21.30402755737305 0.00213623046875 21.30271530151367 C 0.002117156982421875 21.30130386352539 0.00209808349609375 21.29981422424316 0.002079010009765625 21.29840278625488 C 0.0020599365234375 21.29709053039551 0.002040863037109375 21.29575538635254 0.00202178955078125 21.29444122314453 C 0.002002716064453125 21.29302978515625 0.001987457275390625 21.29179382324219 0.0019683837890625 21.29038238525391 C 0.001949310302734375 21.2890682220459 0.00193023681640625 21.28771018981934 0.00191497802734375 21.28639602661133 C 0.001895904541015625 21.28498458862305 0.001873016357421875 21.28326034545898 0.00185394287109375 21.2818489074707 C 0.00183868408203125 21.28061866760254 0.00182342529296875 21.27946281433105 0.001804351806640625 21.27823066711426 C 0.001789093017578125 21.27681922912598 0.001766204833984375 21.2752685546875 0.001750946044921875 21.27385711669922 C 0.00173187255859375 21.27254295349121 0.00171661376953125 21.27130699157715 0.00170135498046875 21.26999282836914 C 0.001682281494140625 21.26858139038086 0.00165557861328125 21.26651954650879 0.00164031982421875 21.26510810852051 C 0.001628875732421875 21.26412200927734 0.001613616943359375 21.26303672790527 0.0016021728515625 21.26205062866211 C 0.001575469970703125 21.25993347167969 0.001556396484375 21.25829315185547 0.001529693603515625 21.25617599487305 C 0.001522064208984375 21.25543594360352 0.001514434814453125 21.25474739074707 0.00150299072265625 21.25400924682617 C 0.0014801025390625 21.25189018249512 0.001453399658203125 21.24969291687012 0.001430511474609375 21.2475757598877 C 0.001422882080078125 21.24691772460938 0.001415252685546875 21.24628448486328 0.001407623291015625 21.24562644958496 C 0.001384735107421875 21.24350929260254 0.001361846923828125 21.24168586730957 0.001338958740234375 21.23956680297852 C 0.001331329345703125 21.23874664306641 0.001323699951171875 21.23810195922852 0.001312255859375 21.23728179931641 C 0.001251220703125 21.23163223266602 0.001194000244140625 21.22645378112793 0.00113677978515625 21.22080421447754 C 0.001129150390625 21.22006416320801 0.00112152099609375 21.21911239624023 0.0011138916015625 21.2183723449707 C 0.00109100341796875 21.21625518798828 0.00107574462890625 21.21487426757812 0.001056671142578125 21.21275520324707 C 0.001041412353515625 21.21144104003906 0.00102996826171875 21.21022415161133 0.001018524169921875 21.20890808105469 C 0.001003265380859375 21.20749664306641 0.0009918212890625 21.20606994628906 0.0009765625 21.20465850830078 C 0.000965118408203125 21.20326042175293 0.000949859619140625 21.20190811157227 0.00093841552734375 21.20051002502441 C 0.00092315673828125 21.1990966796875 0.000911712646484375 21.1977653503418 0.0009002685546875 21.19635200500488 C 0.000888824462890625 21.1952018737793 0.00087738037109375 21.1939754486084 0.000865936279296875 21.19282341003418 C 0.0008544921875 21.1914119720459 0.000835418701171875 21.18937110900879 0.000823974609375 21.18795776367188 C 0.00081634521484375 21.1868896484375 0.000804901123046875 21.18563270568848 0.00079345703125 21.1845645904541 C 0.000782012939453125 21.18315124511719 0.000766754150390625 21.18112754821777 0.000751495361328125 21.17971420288086 C 0.000743865966796875 21.17856407165527 0.000736236572265625 21.17750549316406 0.00072479248046875 21.17635536193848 C 0.000713348388671875 21.17494201660156 0.000698089599609375 21.17314338684082 0.0006866455078125 21.17173004150391 C 0.00067901611328125 21.17041397094727 0.000667572021484375 21.16905212402344 0.0006561279296875 21.1677360534668 C 0.000644683837890625 21.16632270812988 0.00063323974609375 21.16491508483887 0.000621795654296875 21.16350173950195 C 0.000614166259765625 21.16226959228516 0.000606536865234375 21.16104507446289 0.0005950927734375 21.15981101989746 C 0.000583648681640625 21.15839767456055 0.00057220458984375 21.15649032592773 0.000560760498046875 21.15507698059082 C 0.000553131103515625 21.1539249420166 0.000545501708984375 21.15266227722168 0.0005340576171875 21.15151023864746 C 0.00052642822265625 21.15009689331055 0.00051116943359375 21.14825057983398 0.0005035400390625 21.14683723449707 C 0.00049591064453125 21.14560317993164 0.00048828125 21.14457511901855 0.00048065185546875 21.14334106445312 C 0.00046539306640625 21.14122200012207 0.000461578369140625 21.14094543457031 0.00045013427734375 21.13882446289062 C 0.0004425048828125 21.1375904083252 0.000431060791015625 21.13621520996094 0.000423431396484375 21.13498115539551 C 0.0004119873046875 21.13286209106445 0.000400543212890625 21.13081741333008 0.000385284423828125 21.12869644165039 C 0.000385284423828125 21.12820434570312 0.0003814697265625 21.12768173217773 0.000377655029296875 21.12718772888184 C 0.0003662109375 21.12506675720215 0.000347137451171875 21.1222038269043 0.000335693359375 21.12008285522461 C 0.000335693359375 21.11967277526855 0.000331878662109375 21.11912155151367 0.00032806396484375 21.11871147155762 C 0.00031280517578125 21.11588287353516 0.00029754638671875 21.11323165893555 0.000286102294921875 21.11040306091309 C 0.00028228759765625 21.11015701293945 0.00028228759765625 21.10990524291992 0.00028228759765625 21.10965919494629 C 0.00026702880859375 21.10683059692383 0.0002593994140625 21.10516738891602 0.000244140625 21.10233879089355 C 0.000240325927734375 21.1014347076416 0.00023651123046875 21.10036468505859 0.000232696533203125 21.09945869445801 C 0.00022125244140625 21.09733772277832 0.000213623046875 21.09603500366211 0.00020599365234375 21.09391403198242 C 0.000202178955078125 21.09300804138184 0.0001983642578125 21.09211540222168 0.000194549560546875 21.09121131896973 C 0.000186920166015625 21.08908843994141 0.000179290771484375 21.08793640136719 0.000171661376953125 21.0858154296875 C 0.0001678466796875 21.0848274230957 0.000164031982421875 21.08368492126465 0.00016021728515625 21.08269691467285 C 0.000152587890625 21.08057594299316 0.000148773193359375 21.07956504821777 0.000141143798828125 21.07744216918945 C 0.0001373291015625 21.07645606994629 0.000133514404296875 21.07529640197754 0.00012969970703125 21.07430839538574 C 0.000125885009765625 21.0728931427002 0.000118255615234375 21.07087135314941 0.00011444091796875 21.06945610046387 C 0.000110626220703125 21.06830406188965 0.0001068115234375 21.06709289550781 0.000102996826171875 21.06594085693359 C 9.918212890625e-05 21.06452560424805 9.1552734375e-05 21.0622615814209 8.7738037109375e-05 21.06084632873535 C 8.392333984375e-05 21.05985832214355 8.0108642578125e-05 21.05887222290039 8.0108642578125e-05 21.05788421630859 C 7.62939453125e-05 21.05646896362305 6.866455078125e-05 21.05420875549316 6.4849853515625e-05 21.05279350280762 C 6.103515625e-05 21.0516414642334 6.103515625e-05 21.05063629150391 5.7220458984375e-05 21.04948234558105 C 5.340576171875e-05 21.04806709289551 4.9591064453125e-05 21.04570198059082 4.57763671875e-05 21.04428672790527 C 4.57763671875e-05 21.04329872131348 4.1961669921875e-05 21.04232788085938 4.1961669921875e-05 21.04133987426758 C 3.814697265625e-05 21.03992462158203 3.4332275390625e-05 21.03752708435059 3.0517578125e-05 21.03611183166504 C 3.0517578125e-05 21.03512382507324 2.6702880859375e-05 21.03401184082031 2.6702880859375e-05 21.03302192687988 C 2.288818359375e-05 21.03089904785156 2.288818359375e-05 21.02985000610352 1.9073486328125e-05 21.0277271270752 C 1.52587890625e-05 21.0267391204834 1.52587890625e-05 21.02569580078125 1.52587890625e-05 21.02470779418945 C 1.1444091796875e-05 21.02258491516113 1.1444091796875e-05 21.02174186706543 7.62939453125e-06 21.01961708068848 C 7.62939453125e-06 21.01854705810547 7.62939453125e-06 21.01750373840332 7.62939453125e-06 21.01643371582031 C 3.814697265625e-06 21.01430892944336 3.814697265625e-06 21.01285362243652 3.814697265625e-06 21.0107307434082 C 3.814697265625e-06 21.00990676879883 3.814697265625e-06 21.00906181335449 0 21.00823974609375 C 0 21.00540733337402 0 21.00283241271973 0 21 C 0 21 0 21 0 21 C 0 16.49006843566895 1.421855926513672 12.31191253662109 3.841476440429688 8.889778137207031 C 4.533069610595703 7.911640167236328 5.305999755859375 6.995517730712891 6.150760650634766 6.150760650634766 C 6.995517730712891 5.305999755859375 7.911640167236328 4.533069610595703 8.889778137207031 3.841476440429688 C 12.31191253662109 1.421855926513672 16.49006843566895 0 21 0 Z" stroke="none" fill="#646a86"/>
    </g>
  </g>
</svg>
