<svg xmlns="http://www.w3.org/2000/svg" width="161" height="73" viewBox="0 0 161 73">
  <g id="Group_7527" data-name="Group 7527" transform="translate(-785 -1014)">
    <g id="Group_7347" data-name="Group 7347" transform="translate(216.901 -15)">
      <g id="Group_5059" data-name="Group 5059" transform="translate(568 1035)">
        <rect id="Rectangle_1670" data-name="Rectangle 1670" width="114" height="4" rx="2" transform="translate(22.099)" fill="#d5dae8"/>
        <rect id="Rectangle_1671" data-name="Rectangle 1671" width="69" height="4" rx="2" transform="translate(0.099)" fill="#8088a2"/>
      </g>
      <text id="_50_" data-name="50%" transform="translate(707.099 1040)" fill="#bfc4d5" font-size="10" font-family="HeroNew-Regular, Hero New"><tspan x="0" y="0">50%</tspan></text>
    </g>
    <g id="Group_7348" data-name="Group 7348" transform="translate(10 -10)">
      <g id="Path_4136" data-name="Path 4136" transform="translate(834 1055)" fill="#f1f4ff">
        <path d="M 21 40.75 C 18.33321952819824 40.75 15.74687004089355 40.22798919677734 13.31278991699219 39.19845962524414 C 10.96113014221191 38.20378875732422 8.848850250244141 36.77957153320312 7.034639835357666 34.96535873413086 C 5.22042989730835 33.15114974975586 3.796210050582886 31.03886985778809 2.801539897918701 28.68721008300781 C 1.772009968757629 26.25312995910645 1.25 23.66678047180176 1.25 21 C 1.25 18.33321952819824 1.772009968757629 15.74687004089355 2.801539897918701 13.31278991699219 C 3.796210050582886 10.96113014221191 5.22042989730835 8.848850250244141 7.034639835357666 7.034639835357666 C 8.848850250244141 5.22042989730835 10.96113014221191 3.796210050582886 13.31278991699219 2.801539897918701 C 15.74687004089355 1.772009968757629 18.33321952819824 1.25 21 1.25 C 23.66678047180176 1.25 26.25312995910645 1.772009968757629 28.68721008300781 2.801539897918701 C 31.03886985778809 3.796210050582886 33.15114974975586 5.22042989730835 34.96535873413086 7.034639835357666 C 36.77957153320312 8.848850250244141 38.20378875732422 10.96113014221191 39.19845962524414 13.31278991699219 C 40.22798919677734 15.74687004089355 40.75 18.33321952819824 40.75 21 C 40.75 23.66678047180176 40.22798919677734 26.25312995910645 39.19845962524414 28.68721008300781 C 38.20378875732422 31.03886985778809 36.77957153320312 33.15114974975586 34.96535873413086 34.96535873413086 C 33.15114974975586 36.77957153320312 31.03886985778809 38.20378875732422 28.68721008300781 39.19845962524414 C 26.25312995910645 40.22798919677734 23.66678047180176 40.75 21 40.75 Z" stroke="none"/>
        <path d="M 21 2.5 C 16.05846977233887 2.5 11.41271018981934 4.424339294433594 7.918521881103516 7.918521881103516 C 4.424339294433594 11.41271018981934 2.5 16.05846977233887 2.5 21 C 2.5 25.94153022766113 4.424339294433594 30.58728981018066 7.918521881103516 34.08148193359375 C 11.41271018981934 37.57566070556641 16.05846977233887 39.5 21 39.5 C 25.94153022766113 39.5 30.58728981018066 37.57566070556641 34.08148193359375 34.08148193359375 C 37.57566070556641 30.58728981018066 39.5 25.94153022766113 39.5 21 C 39.5 16.05846977233887 37.57566070556641 11.41271018981934 34.08148193359375 7.918521881103516 C 30.58728981018066 4.424339294433594 25.94153022766113 2.5 21 2.5 M 21 0 C 32.59798049926758 0 42 9.402019500732422 42 21 C 42 32.59798049926758 32.59798049926758 42 21 42 C 9.402019500732422 42 0 32.59798049926758 0 21 C 0 9.402019500732422 9.402019500732422 0 21 0 Z" stroke="none" fill="#646a86"/>
      </g>
      <text id="_100_" data-name="100%" transform="translate(842 1081)" fill="#bfc4d5" font-size="10" font-family="HeroNew-Regular, Hero New"><tspan x="0" y="0">100%</tspan></text>
    </g>
  </g>
</svg>
