<svg xmlns="http://www.w3.org/2000/svg" xmlns:xlink="http://www.w3.org/1999/xlink" width="160" height="26.335" viewBox="0 0 160 26.335">
  <defs>
    <clipPath id="clip-path">
      <rect id="Rectangle_3217" data-name="Rectangle 3217" width="160" height="26.335" fill="#fff"/>
    </clipPath>
  </defs>
  <g id="Group_26" data-name="Group 26" clip-path="url(#clip-path)">
    <path id="Path_9240" data-name="Path 9240" d="M49.776,12.181V6.69h3.883V22.2H49.952l-.181-1.354c-.536,1.009-1.824,1.547-3.524,1.547a4.831,4.831,0,0,1-3.727-1.646,6.012,6.012,0,0,1-1.5-4.231,6.009,6.009,0,0,1,1.5-4.239,4.821,4.821,0,0,1,3.727-1.646A3.89,3.89,0,0,1,49.776,12.181Zm-.7,6.22a2.58,2.58,0,0,0,.7-1.889,2.592,2.592,0,0,0-.7-1.9,2.545,2.545,0,0,0-2.674-.538,2.3,2.3,0,0,0-.791.538,2.592,2.592,0,0,0-.7,1.9,2.536,2.536,0,0,0,.71,1.889,2.444,2.444,0,0,0,3.451,0Z" fill="#123054"/>
    <path id="Path_9241" data-name="Path 9241" d="M65.1,12.4a6.541,6.541,0,0,1,1.52,5.148H58.171a2.383,2.383,0,0,0,4.466.445l3.3,1.593a5.475,5.475,0,0,1-2.281,2.055,6.976,6.976,0,0,1-3.19.729,6.843,6.843,0,0,1-4.424-1.515,5.55,5.55,0,0,1-1.9-4.346,5.638,5.638,0,0,1,1.9-4.377,6.871,6.871,0,0,1,4.424-1.515A6.331,6.331,0,0,1,65.1,12.4Zm-4.634,1.25a2.322,2.322,0,0,0-1.488.465,2.474,2.474,0,0,0-.832,1.342h4.634a2.458,2.458,0,0,0-.827-1.34,2.327,2.327,0,0,0-1.48-.464Z" fill="#123054"/>
    <path id="Path_9242" data-name="Path 9242" d="M71.024,20.842v5.493H67.137V10.828h3.7l.183,1.352c.537-1.009,1.822-1.554,3.524-1.554a4.816,4.816,0,0,1,3.724,1.646,6.041,6.041,0,0,1,1.5,4.238,6.043,6.043,0,0,1-1.5,4.231,4.825,4.825,0,0,1-3.724,1.646A3.875,3.875,0,0,1,71.024,20.842Zm2.439-6.935a2.336,2.336,0,0,0-1.741.708,2.592,2.592,0,0,0-.7,1.9,2.578,2.578,0,0,0,.7,1.889,2.466,2.466,0,0,0,3.473,0,2.614,2.614,0,0,0,.69-1.889,2.628,2.628,0,0,0-.69-1.9,2.325,2.325,0,0,0-1.732-.708Z" fill="#123054"/>
    <path id="Path_9243" data-name="Path 9243" d="M84.078,21.985a5.519,5.519,0,0,1-3.393-2.979,5.893,5.893,0,0,1-.515-2.495,5.957,5.957,0,0,1,.515-2.5,5.54,5.54,0,0,1,3.393-2.979,7.7,7.7,0,0,1,4.819,0,5.57,5.57,0,0,1,3.4,2.979,6.11,6.11,0,0,1,.507,2.5,6.04,6.04,0,0,1-.507,2.495,5.548,5.548,0,0,1-3.4,2.979A7.737,7.737,0,0,1,84.078,21.985Zm2.41-2.869a2.33,2.33,0,0,0,1.732-.715,2.58,2.58,0,0,0,.7-1.889,2.592,2.592,0,0,0-.7-1.9,2.486,2.486,0,0,0-3.473,0,2.592,2.592,0,0,0-.7,1.9,2.578,2.578,0,0,0,.7,1.889,2.343,2.343,0,0,0,1.742.715Z" fill="#123054"/>
    <path id="Path_9244" data-name="Path 9244" d="M99.512,14.25a1.18,1.18,0,0,0-1.219-1.019c-.8,0-1.256.292-1.256.817s.558.759,1.449.973c.79.192,1.439.362,1.951.515a11.274,11.274,0,0,1,1.463.545,3.837,3.837,0,0,1,1.064.657,2.441,2.441,0,0,1,.731,1.945c-.092,2.412-1.9,3.694-5.365,3.694-3.373,0-5.336-1.311-5.429-3.648l3.878-.285A1.461,1.461,0,0,0,98.33,19.7c.82,0,1.446-.333,1.446-.907,0-.3-.212-.567-.627-.8a5.823,5.823,0,0,0-1.571-.557c-.6-.151-1.083-.272-1.463-.384a8.46,8.46,0,0,1-1.124-.372,3.532,3.532,0,0,1-.844-.45,2.454,2.454,0,0,1-.976-2.281c0-2.189,1.9-3.322,5.237-3.322,3.078,0,4.919,1.2,5.012,3.421Z" fill="#123054"/>
    <path id="Path_9245" data-name="Path 9245" d="M104.539,9a2.2,2.2,0,0,1,0-3.139,2.159,2.159,0,0,1,1.578-.657A2.217,2.217,0,0,1,107.7,9a2.168,2.168,0,0,1-1.581.666A2.121,2.121,0,0,1,104.539,9Zm-.366,1.829h3.888V22.2h-3.888Z" fill="#123054"/>
    <path id="Path_9246" data-name="Path 9246" d="M110.078,8.3h3.878v2.524h2.551v3.008h-2.551v3.915a1.15,1.15,0,0,0,.78,1.252,3.521,3.521,0,0,0,1.771.051v3.161a14.839,14.839,0,0,1-2.256.16,4.077,4.077,0,0,1-3.2-1.089,5.067,5.067,0,0,1-.976-3.4V13.837H108.7V10.828h1.378Z" fill="#123054"/>
    <path id="Path_9247" data-name="Path 9247" d="M123.6,14.25a1.18,1.18,0,0,0-1.22-1.019c-.8,0-1.256.292-1.256.817s.558.759,1.449.973c.79.192,1.436.362,1.951.515a11.274,11.274,0,0,1,1.463.545,3.838,3.838,0,0,1,1.064.657,2.441,2.441,0,0,1,.731,1.945c-.092,2.412-1.9,3.694-5.365,3.694-3.374,0-5.337-1.311-5.43-3.648l3.878-.285a1.461,1.461,0,0,0,1.552,1.252c.819,0,1.446-.333,1.446-.907,0-.3-.212-.567-.627-.8a5.822,5.822,0,0,0-1.571-.557c-.6-.151-1.083-.272-1.463-.384a8.539,8.539,0,0,1-1.122-.372,3.539,3.539,0,0,1-.861-.455,2.457,2.457,0,0,1-.976-2.281c0-2.189,1.9-3.322,5.235-3.322,3.08,0,4.922,1.2,5.012,3.421Z" fill="#123054"/>
    <path id="Path_9248" data-name="Path 9248" d="M128.293,22.014a.9.9,0,0,1-.213-.307.888.888,0,0,1-.07-.367.96.96,0,0,1,.959-.948.944.944,0,0,1,.675.277.908.908,0,0,1,.21.305.925.925,0,0,1,.071.363.936.936,0,0,1-.071.366.921.921,0,0,1-.21.308.944.944,0,0,1-.678.282.908.908,0,0,1-.366-.069.9.9,0,0,1-.307-.211Z" fill="#123054"/>
    <path id="Path_9249" data-name="Path 9249" d="M136.434,19.736l1.515.635a3.457,3.457,0,0,1-1.42,1.4,4.187,4.187,0,0,1-2.073.523,4.328,4.328,0,0,1-2.017-.469,3.7,3.7,0,0,1-1.463-1.362,3.985,3.985,0,0,1,0-4.071,3.7,3.7,0,0,1,1.463-1.362,4.328,4.328,0,0,1,2.017-.469,4.22,4.22,0,0,1,2.078.513,3.442,3.442,0,0,1,1.415,1.408l-1.515.63a2.165,2.165,0,0,0-1.978-1.17,2.265,2.265,0,0,0-1.68.7,2.423,2.423,0,0,0-.691,1.778,2.4,2.4,0,0,0,.691,1.773,2.265,2.265,0,0,0,1.68.717,2.166,2.166,0,0,0,1.978-1.177Z" fill="#123054"/>
    <path id="Path_9250" data-name="Path 9250" d="M142.463,22.3a4.346,4.346,0,0,1-2.02-.469,3.7,3.7,0,0,1-1.463-1.362,4,4,0,0,1,0-4.071,3.7,3.7,0,0,1,1.463-1.362,4.575,4.575,0,0,1,4.037,0,3.776,3.776,0,0,1,1.481,1.362,4,4,0,0,1,0,4.071,3.775,3.775,0,0,1-1.481,1.362,4.328,4.328,0,0,1-2.017.469Zm0-1.425a2.293,2.293,0,0,0,1.683-.688,2.56,2.56,0,0,0,0-3.5,2.4,2.4,0,0,0-3.371,0,2.541,2.541,0,0,0,0,3.5,2.3,2.3,0,0,0,1.693.688Z" fill="#123054"/>
    <path id="Path_9251" data-name="Path 9251" d="M159.4,15.6a5.351,5.351,0,0,1,.6,2.833V22.2h-1.676V18.432c0-1.6-.517-2.432-1.744-2.432a1.843,1.843,0,0,0-1.519.666,2.743,2.743,0,0,0-.544,1.778V22.2h-1.683V18.432c0-1.6-.517-2.432-1.741-2.432a1.843,1.843,0,0,0-1.522.666,2.716,2.716,0,0,0-.547,1.765V22.2h-1.675V14.67h1.6l.073,1.189a2.629,2.629,0,0,1,2.661-1.3,2.414,2.414,0,0,1,2.515,1.624,3.014,3.014,0,0,1,2.983-1.624A2.413,2.413,0,0,1,159.4,15.6Z" fill="#123054"/>
    <path id="Path_9252" data-name="Path 9252" d="M6.8,21.985H0l2.927-4.511h2.02a13.433,13.433,0,0,0,1.846,4.511Z" fill="#123054"/>
    <path id="Path_9253" data-name="Path 9253" d="M36.314,21.985h-6.8a13.322,13.322,0,0,0,1.242-2.454,12.974,12.974,0,0,0,.6-2.057h2.02Z" fill="#123054"/>
    <path id="Path_9254" data-name="Path 9254" d="M32.917,17.474H2.93v4.511H32.917Z" fill="#123054"/>
    <path id="Path_9255" data-name="Path 9255" d="M31.644,20.7H4.668l.7-1.449H30.922Z"/>
    <path id="Path_9256" data-name="Path 9256" d="M31.644,13.45a13.481,13.481,0,0,1-.278,2.736,12.961,12.961,0,0,1-.6,2.052A13.317,13.317,0,0,1,29.512,20.7H19.549V19.084a4.491,4.491,0,0,0,1.89-.846,3.16,3.16,0,0,0,1.219-2.057,3.469,3.469,0,0,0,.044-.559c0-1.6-.927-2.736-2.976-3.436l-1.434-.428c-.663-.226-.949-.452-.949-.773,0-.379.361-.569.89-.569a2.318,2.318,0,0,1,1.912,1.172l2.161-1.644a4.122,4.122,0,0,0-2.766-2.225V5.45H16.829V7.755a3.323,3.323,0,0,0-2.654,3.21c0,1.569,1.041,2.772,2.927,3.436l1.268.416c.817.282,1.142.472,1.142.868a.564.564,0,0,1-.3.5,1.77,1.77,0,0,1-.866.18,2.871,2.871,0,0,1-1.024-.18,3.229,3.229,0,0,1-1.541-1.311l-1.724,1.311-.434.328A4.9,4.9,0,0,0,15.1,18.238a5,5,0,0,0,1.707.785v1.668H6.795A13.475,13.475,0,1,1,31.644,13.45Z" fill="#0cb9e9"/>
    <path id="Path_9257" data-name="Path 9257" d="M22.683,15.626a3.47,3.47,0,0,1-.044.559,3.16,3.16,0,0,1-1.22,2.057,4.49,4.49,0,0,1-1.89.841V20.7h-2.7V19.028a5,5,0,0,1-1.707-.785,4.9,4.9,0,0,1-1.485-1.729l.434-.328L15.8,14.875a3.229,3.229,0,0,0,1.522,1.311,2.872,2.872,0,0,0,1.02.18,1.771,1.771,0,0,0,.866-.18.564.564,0,0,0,.31-.5c0-.4-.322-.586-1.137-.868L17.107,14.4c-1.9-.664-2.927-1.868-2.927-3.436a3.311,3.311,0,0,1,2.649-3.21V5.449h2.72V7.718a4.122,4.122,0,0,1,2.766,2.225l-2.161,1.644a2.309,2.309,0,0,0-1.912-1.172c-.529,0-.89.19-.89.569,0,.321.285.547.949.773l1.417.433C21.766,12.888,22.683,14.021,22.683,15.626Z" fill="#fff"/>
  </g>
</svg>
