<svg xmlns="http://www.w3.org/2000/svg" xmlns:xlink="http://www.w3.org/1999/xlink" width="292" height="259" viewBox="0 0 292 259">
  <defs>
    <filter id="Rectangle_3118" x="7" y="124" width="151" height="135" filterUnits="userSpaceOnUse">
      <feOffset dy="3" input="SourceAlpha"/>
      <feGaussianBlur stdDeviation="3" result="blur"/>
      <feFlood flood-opacity="0.102"/>
      <feComposite operator="in" in2="blur"/>
      <feComposite in="SourceGraphic"/>
    </filter>
    <filter id="Rectangle_3122" x="125" y="17" width="151" height="135" filterUnits="userSpaceOnUse">
      <feOffset dy="3" input="SourceAlpha"/>
      <feGaussianBlur stdDeviation="3" result="blur-2"/>
      <feFlood flood-opacity="0.102"/>
      <feComposite operator="in" in2="blur-2"/>
      <feComposite in="SourceGraphic"/>
    </filter>
    <filter id="Rectangle_2879" x="71" y="1" width="60" height="60" filterUnits="userSpaceOnUse">
      <feOffset dy="3" input="SourceAlpha"/>
      <feGaussianBlur stdDeviation="3" result="blur-3"/>
      <feFlood flood-opacity="0.102"/>
      <feComposite operator="in" in2="blur-3"/>
      <feComposite in="SourceGraphic"/>
    </filter>
    <filter id="star" x="89" y="17.376" width="24" height="23.249" filterUnits="userSpaceOnUse">
      <feOffset dy="1" input="SourceAlpha"/>
      <feGaussianBlur stdDeviation="1" result="blur-4"/>
      <feFlood flood-opacity="0.161"/>
      <feComposite operator="in" in2="blur-4"/>
      <feComposite in="SourceGraphic"/>
    </filter>
    <filter id="Rectangle_3151" x="145" y="141" width="141" height="88" filterUnits="userSpaceOnUse">
      <feOffset dy="3" input="SourceAlpha"/>
      <feGaussianBlur stdDeviation="3" result="blur-5"/>
      <feFlood flood-opacity="0.161"/>
      <feComposite operator="in" in2="blur-5"/>
      <feComposite in="SourceGraphic"/>
    </filter>
    <filter id="Path_9126" x="18" y="50" width="38.767" height="43.176" filterUnits="userSpaceOnUse">
      <feOffset dy="3" input="SourceAlpha"/>
      <feGaussianBlur stdDeviation="3" result="blur-6"/>
      <feFlood flood-opacity="0.161"/>
      <feComposite operator="in" in2="blur-6"/>
      <feComposite in="SourceGraphic"/>
    </filter>
    <filter id="Path_9127" x="41.956" y="59.681" width="31.425" height="33.494" filterUnits="userSpaceOnUse">
      <feOffset dy="3" input="SourceAlpha"/>
      <feGaussianBlur stdDeviation="3" result="blur-7"/>
      <feFlood flood-opacity="0.161"/>
      <feComposite operator="in" in2="blur-7"/>
      <feComposite in="SourceGraphic"/>
    </filter>
  </defs>
  <g id="Group_7399" data-name="Group 7399" transform="translate(-1019 -112)">
    <rect id="bg" width="250" height="250" rx="125" transform="translate(1043 112)" fill="#eef1fb" opacity="0.6"/>
    <g id="alignment" transform="translate(228.096 18.5)">
      <g id="Group_7395" data-name="Group 7395" transform="translate(817.352 100.5)">
        <line id="Line_920" data-name="Line 920" y2="246" transform="translate(-0.447)" fill="none" stroke="#d6defb" stroke-width="1"/>
        <line id="Line_922" data-name="Line 922" y2="246" transform="translate(12.648)" fill="none" stroke="#d6defb" stroke-width="1"/>
      </g>
      <g id="Group_7396" data-name="Group 7396" transform="translate(1041.404 100.5)">
        <line id="Line_924" data-name="Line 924" y2="246" fill="none" stroke="#d6defb" stroke-width="1"/>
        <line id="Line_925" data-name="Line 925" y2="246" transform="translate(12.5)" fill="none" stroke="#d6defb" stroke-width="1"/>
      </g>
      <g id="Group_7394" data-name="Group 7394" transform="translate(791.352 124.5)">
        <line id="Line_921" data-name="Line 921" x2="292" transform="translate(-0.447)" fill="none" stroke="#d6defb" stroke-width="1"/>
        <line id="Line_923" data-name="Line 923" x2="292" transform="translate(-0.447 13)" fill="none" stroke="#d6defb" stroke-width="1"/>
      </g>
      <g id="Group_7397" data-name="Group 7397" transform="translate(791.5 314.705)">
        <line id="Line_927" data-name="Line 927" x2="291.404" fill="none" stroke="#d6defb" stroke-width="1"/>
        <line id="Line_926" data-name="Line 926" x2="291.404" transform="translate(0 13)" fill="none" stroke="#d6defb" stroke-width="1"/>
      </g>
    </g>
    <g id="layout" transform="translate(-56 48)">
      <g transform="matrix(1, 0, 0, 1, 1075, 64)" filter="url(#Rectangle_3118)">
        <rect id="Rectangle_3118-2" data-name="Rectangle 3118" width="133" height="117" transform="translate(16 130)" fill="#fff"/>
      </g>
      <g id="Group_7373" data-name="Group 7373" transform="translate(1121 194)">
        <rect id="Rectangle_3119" data-name="Rectangle 3119" width="5" height="117" fill="#d5dae8"/>
        <rect id="Rectangle_3120" data-name="Rectangle 3120" width="5" height="117" transform="translate(34)" fill="#d5dae8"/>
        <rect id="Rectangle_3121" data-name="Rectangle 3121" width="5" height="117" transform="translate(68)" fill="#d5dae8"/>
      </g>
    </g>
    <g id="grid" transform="translate(-7 21)">
      <g transform="matrix(1, 0, 0, 1, 1026, 91)" filter="url(#Rectangle_3122)">
        <rect id="Rectangle_3122-2" data-name="Rectangle 3122" width="133" height="117" transform="translate(134 23)" fill="#fff"/>
      </g>
      <rect id="Rectangle_3123" data-name="Rectangle 3123" width="107" height="43" rx="1" transform="translate(1173 127)" fill="#d5dae8"/>
      <g id="Group_7375" data-name="Group 7375">
        <rect id="Rectangle_3124" data-name="Rectangle 3124" width="51" height="6" rx="1" transform="translate(1173 175)" fill="#d5dae8"/>
        <rect id="Rectangle_3128" data-name="Rectangle 3128" width="51" height="6" rx="1" transform="translate(1173 184)" fill="#d5dae8"/>
        <rect id="Rectangle_3129" data-name="Rectangle 3129" width="51" height="6" rx="1" transform="translate(1173 193)" fill="#d5dae8"/>
        <rect id="Rectangle_3131" data-name="Rectangle 3131" width="26" height="6" rx="1" transform="translate(1173 211)" fill="#d5dae8"/>
        <rect id="Rectangle_3130" data-name="Rectangle 3130" width="51" height="6" rx="1" transform="translate(1173 202)" fill="#d5dae8"/>
      </g>
      <g id="Group_7376" data-name="Group 7376">
        <rect id="Rectangle_3125" data-name="Rectangle 3125" width="51" height="19" rx="1" transform="translate(1229 175)" fill="#d5dae8"/>
        <rect id="Rectangle_3126" data-name="Rectangle 3126" width="23" height="18" rx="1" transform="translate(1229 199)" fill="#d5dae8"/>
        <rect id="Rectangle_3127" data-name="Rectangle 3127" width="23" height="18" rx="1" transform="translate(1257 199)" fill="#d5dae8"/>
      </g>
    </g>
    <g id="icon" transform="translate(1099 119)">
      <g transform="matrix(1, 0, 0, 1, -80, -7)" filter="url(#Rectangle_2879)">
        <rect id="Rectangle_2879-2" data-name="Rectangle 2879" width="42" height="42" rx="21" transform="translate(80 7)" fill="#fff"/>
      </g>
      <g transform="matrix(1, 0, 0, 1, -80, -7)" filter="url(#star)">
        <path id="star-2" data-name="star" d="M17.952,7.014a.955.955,0,0,0-.823-.657l-5.2-.472L9.88,1.077a.957.957,0,0,0-1.76,0L6.066,5.885l-5.2.472A.958.958,0,0,0,.326,8.031l3.928,3.444L3.1,16.576A.957.957,0,0,0,4.519,17.61L9,14.931l4.48,2.679A.957.957,0,0,0,14.9,16.576l-1.158-5.1,3.928-3.444a.958.958,0,0,0,.279-1.017ZM9.086,14.879" transform="translate(92 18.88)" fill="#0370d6"/>
      </g>
    </g>
    <g id="color_neutral" data-name="color neutral" transform="translate(-160 -40)">
      <rect id="Rectangle_3132" data-name="Rectangle 3132" width="78" height="17" transform="translate(1227 260)" fill="#fff"/>
      <rect id="Rectangle_3133" data-name="Rectangle 3133" width="12" height="11" transform="translate(1230 263)" fill="#212934"/>
      <rect id="Rectangle_3134" data-name="Rectangle 3134" width="12" height="11" transform="translate(1242 263)" fill="#5f6b7a"/>
      <rect id="Rectangle_3135" data-name="Rectangle 3135" width="12" height="11" transform="translate(1254 263)" fill="#8895a7"/>
      <rect id="Rectangle_3136" data-name="Rectangle 3136" width="12" height="11" transform="translate(1266 263)" fill="#cfd6de"/>
      <rect id="Rectangle_3137" data-name="Rectangle 3137" width="12" height="11" transform="translate(1278 263)" fill="#e1e7ec"/>
      <rect id="Rectangle_3138" data-name="Rectangle 3138" width="12" height="11" transform="translate(1290 263)" fill="#fcfcfe"/>
    </g>
    <g id="color" transform="translate(-153 -102)">
      <rect id="Rectangle_3139" data-name="Rectangle 3139" width="35" height="33" rx="1" transform="translate(1263 278)" fill="#fcfcfe"/>
      <g id="Group_7400" data-name="Group 7400" transform="translate(1)">
        <rect id="Rectangle_3146" data-name="Rectangle 3146" width="12" height="11" rx="1" transform="translate(1266 296)" fill="#ff6a6a"/>
        <rect id="Rectangle_3140" data-name="Rectangle 3140" width="12" height="11" rx="1" transform="translate(1281 296)" fill="#ffe926"/>
        <rect id="Rectangle_3141" data-name="Rectangle 3141" width="12" height="11" rx="1" transform="translate(1266 282)" fill="#0370d6"/>
        <rect id="Rectangle_3142" data-name="Rectangle 3142" width="12" height="11" rx="1" transform="translate(1281 282)" fill="#24b57a"/>
      </g>
    </g>
    <g id="accessability" transform="translate(-111.349 -19.795)">
      <g transform="matrix(1, 0, 0, 1, 1130.35, 131.79)" filter="url(#Rectangle_3151)">
        <rect id="Rectangle_3151-2" data-name="Rectangle 3151" width="123" height="70" transform="translate(154 147)" fill="#fff"/>
      </g>
      <g id="Group_7392" data-name="Group 7392" transform="translate(1349.871 295.397)">
        <g id="Group_7409" data-name="Group 7409">
          <rect id="Rectangle_3144" data-name="Rectangle 3144" width="49" height="43" rx="4" transform="translate(-0.022)" fill="#d5dae8"/>
          <g id="text-font" transform="translate(10.698 12.227)">
            <path id="Path_9126-2" data-name="Path 9126" d="M10.811,82.515a2.128,2.128,0,0,0-2.032-1.51H6.471a2.13,2.13,0,0,0-2.034,1.519L.089,96.876A2.065,2.065,0,0,0,.4,98.7,2.032,2.032,0,0,0,4,98.027l.894-3.25h5.26l.963,3.229a2.12,2.12,0,0,0,3.749.654,2.161,2.161,0,0,0,.319-1.908ZM5.5,91.644l1.089-3.932c.3-1.072.573-2.473.846-3.574h.052c.273,1.1.6,2.474.928,3.574l1.145,3.932Z" transform="translate(0 -81.005)" fill="#e7eaf4"/>
            <path id="Path_9127-2" data-name="Path 9127" d="M326.249,216.212v-3.794c0-2.566-1.161-4.708-4.8-4.708a9.885,9.885,0,0,0-3.293.539,1.094,1.094,0,0,0-.686,1.331l.011.037a1.113,1.113,0,0,0,1.425.748,6.218,6.218,0,0,1,1.941-.334c1.674,0,1.987.826,1.987,1.406v.157c-3.862-.023-6.405,1.338-6.405,4.173a3.345,3.345,0,0,0,3.527,3.347,3.933,3.933,0,0,0,3.123-1.339h.066l.088.477a.754.754,0,0,0,.741.617h1.581a.754.754,0,0,0,.752-.81C326.266,217.52,326.249,216.875,326.249,216.212Zm-3.3-1.317a2.386,2.386,0,0,1-.067.58,1.852,1.852,0,0,1-1.763,1.25,1.218,1.218,0,0,1-1.339-1.294c0-1.317,1.384-1.74,3.169-1.719Z" transform="translate(-298.798 -200.585)" fill="#e7eaf4"/>
          </g>
          <g id="Group_7388" data-name="Group 7388" transform="translate(38.278 -14.205)">
            <path id="Path_9221" data-name="Path 9221" d="M0,0H21.4V21.4H0Z" fill="none"/>
            <path id="Path_9222" data-name="Path 9222" d="M9.642,17.284a7.642,7.642,0,1,1,7.642-7.642A7.642,7.642,0,0,1,9.642,17.284Zm0-8.723L7.481,6.4,6.4,7.481,8.561,9.642,6.4,11.8l1.081,1.081,2.161-2.162L11.8,12.884,12.884,11.8,10.723,9.642l2.162-2.161L11.8,6.4Z" transform="translate(1.057 1.057)" fill="#ff6a6a"/>
          </g>
        </g>
      </g>
      <g id="Group_7390" data-name="Group 7390" transform="translate(1290.15 295.397)">
        <g id="Group_7389" data-name="Group 7389">
          <rect id="Rectangle_3145" data-name="Rectangle 3145" width="49" height="43" rx="4" fill="#2843b4"/>
          <g id="text-font-2" data-name="text-font" transform="translate(10.699 12.227)">
            <path id="Path_9126-3" data-name="Path 9126" d="M10.811,82.515a2.128,2.128,0,0,0-2.032-1.51H6.471a2.13,2.13,0,0,0-2.034,1.519L.089,96.876A2.065,2.065,0,0,0,.4,98.7,2.032,2.032,0,0,0,4,98.027l.894-3.25h5.26l.963,3.229a2.12,2.12,0,0,0,3.749.654,2.161,2.161,0,0,0,.319-1.908ZM5.5,91.644l1.089-3.932c.3-1.072.573-2.473.846-3.574h.052c.273,1.1.6,2.474.928,3.574l1.145,3.932Z" transform="translate(0 -81.005)" fill="#fff"/>
            <path id="Path_9127-3" data-name="Path 9127" d="M326.249,216.212v-3.794c0-2.566-1.161-4.708-4.8-4.708a9.885,9.885,0,0,0-3.293.539,1.094,1.094,0,0,0-.686,1.331l.011.037a1.113,1.113,0,0,0,1.425.748,6.218,6.218,0,0,1,1.941-.334c1.674,0,1.987.826,1.987,1.406v.157c-3.862-.023-6.405,1.338-6.405,4.173a3.345,3.345,0,0,0,3.527,3.347,3.933,3.933,0,0,0,3.123-1.339h.066l.088.477a.754.754,0,0,0,.741.617h1.581a.754.754,0,0,0,.752-.81C326.266,217.52,326.249,216.875,326.249,216.212Zm-3.3-1.317a2.386,2.386,0,0,1-.067.58,1.852,1.852,0,0,1-1.763,1.25,1.218,1.218,0,0,1-1.339-1.294c0-1.317,1.384-1.74,3.169-1.719Z" transform="translate(-298.798 -200.585)" fill="#fff"/>
          </g>
        </g>
        <g id="Group_3094" data-name="Group 3094" transform="translate(38.301 -14.205)">
          <path id="Path_4002" data-name="Path 4002" d="M0,0H21.4V21.4H0Z" fill="none"/>
          <path id="Path_4003" data-name="Path 4003" d="M9.642,17.284a7.642,7.642,0,1,1,7.642-7.642A7.642,7.642,0,0,1,9.642,17.284ZM8.88,12.7l5.4-5.4L13.2,6.215,8.88,10.538,6.718,8.376,5.638,9.456Z" transform="translate(1.056 1.057)" fill="#24b57a"/>
        </g>
      </g>
    </g>
    <g id="typography" transform="translate(4 17)">
      <rect id="Rectangle_2879-3" data-name="Rectangle 2879" width="56" height="56" rx="5" transform="translate(1033 136)" fill="#141d47"/>
      <g id="text-font-3" data-name="text-font" transform="translate(1042 151)">
        <g transform="matrix(1, 0, 0, 1, -27, -56)" filter="url(#Path_9126)">
          <path id="Path_9126-4" data-name="Path 9126" d="M14.69,83.057a2.892,2.892,0,0,0-2.76-2.052H8.793a2.894,2.894,0,0,0-2.764,2.064L.121,102.57a2.806,2.806,0,0,0,.422,2.479,2.761,2.761,0,0,0,4.9-.915l1.215-4.416H13.8l1.308,4.388a2.88,2.88,0,0,0,5.094.888,2.936,2.936,0,0,0,.434-2.593Zm-7.22,12.4,1.479-5.342c.407-1.457.779-3.361,1.15-4.856h.071c.371,1.495.818,3.362,1.261,4.856l1.556,5.342Z" transform="translate(27 -25.01)" fill="#fff"/>
        </g>
        <g transform="matrix(1, 0, 0, 1, -27, -56)" filter="url(#Path_9127)">
          <path id="Path_9127-4" data-name="Path 9127" d="M329.772,219.262v-5.155c0-3.486-1.578-6.4-6.522-6.4a13.431,13.431,0,0,0-4.475.733,1.487,1.487,0,0,0-.932,1.809l.015.05a1.512,1.512,0,0,0,1.937,1.016,8.449,8.449,0,0,1,2.637-.454c2.275,0,2.7,1.122,2.7,1.911v.213c-5.247-.031-8.7,1.818-8.7,5.67a4.545,4.545,0,0,0,4.793,4.548,5.344,5.344,0,0,0,4.244-1.82h.089l.119.649a1.024,1.024,0,0,0,1.007.838h2.148a1.024,1.024,0,0,0,1.022-1.1C329.8,221.04,329.772,220.164,329.772,219.262Zm-4.49-1.789a3.241,3.241,0,0,1-.091.788,2.517,2.517,0,0,1-2.4,1.7,1.656,1.656,0,0,1-1.819-1.758c0-1.789,1.881-2.365,4.306-2.335Z" transform="translate(-265.47 -142.03)" fill="#fff"/>
        </g>
      </g>
      <g id="Group_7398" data-name="Group 7398">
        <line id="Line_916" data-name="Line 916" x2="44.5" transform="translate(1038.5 150.5)" fill="none" stroke="#fcfcfe" stroke-width="0.5" stroke-dasharray="2 1" opacity="0.9"/>
        <line id="Line_918" data-name="Line 918" x2="44.5" transform="translate(1038.5 160.5)" fill="none" stroke="#fcfcfe" stroke-width="0.5" stroke-dasharray="2 1" opacity="0.9"/>
        <line id="Line_919" data-name="Line 919" x2="44.5" transform="translate(1038.5 176.5)" fill="none" stroke="#fcfcfe" stroke-width="0.5" stroke-dasharray="2 1" opacity="0.9"/>
      </g>
    </g>
  </g>
</svg>
