<svg id="Logo" xmlns="http://www.w3.org/2000/svg" width="82.316" height="28.493" viewBox="0 0 82.316 28.493">
  <g id="Fill-1-_-Group-24" data-name="Fill-1-+-Group-24" transform="translate(5)">
    <g id="Group-24">
      <path id="Fill-2" d="M288.584,58.788c-2.525,0-4.093,2.006-4.093,5.235s1.568,5.235,4.093,5.235a4.373,4.373,0,0,0,2.548-.778l.035-.025V64.827h-3.633V63.539h5.119v5.406a5.729,5.729,0,0,1-4.069,1.6c-3.389,0-5.579-2.56-5.579-6.523s2.19-6.523,5.579-6.523a5.163,5.163,0,0,1,4.034,1.743l-.99.823a3.869,3.869,0,0,0-3.044-1.278Zm28.584,11.551h-1.147l-.385-1.065-.091.082a4.889,4.889,0,0,1-2.9,1.148,2.609,2.609,0,0,1-2.807-2.573c0-2.159,1.863-2.612,3.426-2.612a10.66,10.66,0,0,1,2.319.277l.1.026v-.262c0-1.175-.734-1.771-2.181-1.771a6.428,6.428,0,0,0-2.683.626l-.595-1.026A6.193,6.193,0,0,1,313.5,62.1c2.3,0,3.668,1.248,3.668,3.338ZM314,66.463c-1.753,0-2.68.508-2.68,1.468,0,.671.506,1.087,1.321,1.087a5.844,5.844,0,0,0,3.006-.876l.036-.024V66.6l-.069-.012A10.878,10.878,0,0,0,314,66.463Zm-4.992,2.588v1.288h-4.954V58.119h1.486V69.051ZM322.3,70.546a13.95,13.95,0,0,1-3.146-.395V58.119h1.486v4.634l.128-.083a3.988,3.988,0,0,1,1.98-.535,3.656,3.656,0,0,1,.676.063,3.775,3.775,0,0,1,2.992,4.044,4.031,4.031,0,0,1-4.116,4.3Zm.165-6.956a3.273,3.273,0,0,0-1.788.585l-.037.025v4.927l.071.01a11.037,11.037,0,0,0,1.589.123,2.72,2.72,0,0,0,2.63-3.018,2.333,2.333,0,0,0-2.464-2.652ZM302.07,62.248v1.288h-2.477v3.782a1.734,1.734,0,0,0,1.734,1.734h.743v1.288h-.743a3.224,3.224,0,0,1-3.22-3.22v-9h1.486v4.128Zm-7.433-3.3h1.486v1.486h-1.486Zm0,3.3h1.486v8.092h-1.486Z" transform="translate(-249.097 -50.462)" fill="#646a86"/>
      <g id="Group" transform="translate(-5)">
        <path id="Fill-4" d="M72.107,92.231h0l5.685-17.5H66.421l5.685,17.5Z" transform="translate(-56.648 -63.738)" fill="#646a86"/>
        <path id="Fill-6" fill="#fc6d26"/>
        <path id="Fill-8" d="M25.921,92.231l-5.685-17.5H12.268Z" transform="translate(-10.463 -63.738)" fill="#737a92"/>
        <path id="Fill-10" fill="#fc6d26"/>
        <path id="Fill-12" d="M1.92,74.734h0L.192,80.051A1.177,1.177,0,0,0,.62,81.367L15.573,92.232Z" transform="translate(-0.115 -63.738)" fill="#b8bbc5"/>
        <path id="Fill-14" fill="#fc6d26"/>
        <path id="Fill-16" d="M12.268,11.29h7.968L16.812.752a.588.588,0,0,0-1.119,0Z" transform="translate(-10.463 -0.294)" fill="#646a86"/>
        <path id="Fill-18" d="M105.061,92.231l5.685-17.5h7.968Z" transform="translate(-89.603 -63.738)" fill="#737a92"/>
        <path id="Fill-20" d="M118.714,74.734h0l1.728,5.317a1.177,1.177,0,0,1-.428,1.316L105.061,92.232Z" transform="translate(-89.603 -63.738)" fill="#b8bbc5"/>
        <path id="Fill-22" d="M151.669,11.29H143.7L147.125.752a.588.588,0,0,1,1.119,0Z" transform="translate(-122.558 -0.294)" fill="#646a86"/>
      </g>
    </g>
  </g>
</svg>
