<svg xmlns="http://www.w3.org/2000/svg" xmlns:xlink="http://www.w3.org/1999/xlink" width="100.3" height="30.463" viewBox="0 0 100.3 30.463">
  <defs>
    <linearGradient id="linear-gradient" x1="0.031" y1="0.831" x2="1.035" y2="0.067" gradientUnits="objectBoundingBox">
      <stop offset="0.323" stop-color="#030ba6"/>
      <stop offset="0.606" stop-color="#0339bb"/>
      <stop offset="1" stop-color="#0476d9"/>
    </linearGradient>
    <linearGradient id="linear-gradient-2" x1="-1.618" y1="1.472" x2="1.115" y2="0.195" gradientUnits="objectBoundingBox">
      <stop offset="0.198" stop-color="#030ba6"/>
      <stop offset="0.385" stop-color="#032bb5"/>
      <stop offset="0.656" stop-color="#0353c8"/>
      <stop offset="0.87" stop-color="#036cd4"/>
      <stop offset="1" stop-color="#0476d9"/>
    </linearGradient>
  </defs>
  <g id="Logo" transform="translate(-293.85 -94.621)">
    <g id="Group_22" data-name="Group 22" transform="translate(367.263 94.621)">
      <path id="Path_3" data-name="Path 3" d="M673.68,96.768v1.282h-19.5l16.525-3.584c.047-.012.094-.022.143-.033a2.364,2.364,0,0,1,.452-.043,2.321,2.321,0,0,1,.707.108q.055.015.11.037a2.38,2.38,0,0,1,1.552,2.025A1.781,1.781,0,0,1,673.68,96.768Z" transform="translate(-654.18 -94.39)" fill="#5cc8f2"/>
      <path id="Path_4" data-name="Path 4" d="M689.5,116.492q-.055-.021-.11-.037a2.321,2.321,0,0,0-.707-.108H666.72l19.272,6.479q.082.024.165.055a3.12,3.12,0,0,1,1.265.866,3.223,3.223,0,0,1,.6.972,3.18,3.18,0,0,1,.218,1.155v12.12a2.322,2.322,0,0,0,.448.043,2.368,2.368,0,0,0,2.367-2.367V118.517A2.377,2.377,0,0,0,689.5,116.492Zm-.634,3.767h-.621v.623a.553.553,0,0,1-1.106,0v-.623h-.621a.553.553,0,0,1-.554-.552.545.545,0,0,1,.163-.391.553.553,0,0,1,.391-.163h.621v-.621a.554.554,0,0,1,.552-.554.557.557,0,0,1,.554.554v.621h.621a.553.553,0,1,1,0,1.106Z" transform="translate(-664.165 -111.874)" fill="url(#linear-gradient)"/>
      <path id="Path_5" data-name="Path 5" d="M677.437,125.877v14.095a2.37,2.37,0,0,1-3.044,2.27l-.173-.059-20.04-6.736v-19.1l21.586,7.257q.055.015.11.037a2.383,2.383,0,0,1,1.375,1.316A2.324,2.324,0,0,1,677.437,125.877Z" transform="translate(-654.18 -111.876)" fill="#fff"/>
      <path id="Path_6" data-name="Path 6" d="M677.437,125.877v14.095a2.37,2.37,0,0,1-3.044,2.27l-.173-.059-20.04-6.736v-19.1l21.586,7.257q.055.015.11.037a2.383,2.383,0,0,1,1.375,1.316A2.324,2.324,0,0,1,677.437,125.877Z" transform="translate(-654.18 -111.876)" fill="url(#linear-gradient-2)"/>
    </g>
    <g id="Group_24" data-name="Group 24" transform="translate(293.85 99.622)">
      <g id="Group_23" data-name="Group 23" transform="translate(0 0)">
        <path id="Path_7" data-name="Path 7" d="M297.638,143.5a2.078,2.078,0,0,0,2.29,1.967c1.145,0,1.7-.617,1.7-1.263,0-.529-.352-.969-1.439-1.2l-1.674-.382c-3.113-.675-4.346-2.437-4.346-4.493,0-2.672,2.349-4.845,5.609-4.845,4.229,0,5.7,2.643,5.844,4.346l-3.7.675a1.918,1.918,0,0,0-2.085-1.791,1.422,1.422,0,0,0-1.586,1.263c0,.617.5.969,1.145,1.087l1.938.382c3.025.617,4.493,2.437,4.493,4.581,0,2.5-1.909,4.933-5.814,4.933-4.581,0-6.049-2.966-6.167-4.581Z" transform="translate(-293.85 -133.282)" fill="#2c3149"/>
        <path id="Path_8" data-name="Path 8" d="M370.653,135.445l2.849,8.663,2.437-8.663h4.375l-4.522,15h-4.434l-3.171-9.834-3.113,9.834h-4.523l-4.581-15h4.64l2.437,8.633,2.878-8.633Z" transform="translate(-343.314 -135.004)" fill="#2c3149"/>
        <path id="Path_9" data-name="Path 9" d="M482.31,155.648l3.318-7.576-6.137-12.627h4.992l3.553,7.811,3.23-7.811h4.728l-8.986,20.2Z" transform="translate(-441.669 -135.004)" fill="#2c3149"/>
        <path id="Path_10" data-name="Path 10" d="M567.16,143.5a2.078,2.078,0,0,0,2.29,1.967c1.145,0,1.7-.617,1.7-1.263,0-.529-.352-.969-1.439-1.2l-1.674-.382c-3.113-.675-4.346-2.437-4.346-4.493,0-2.672,2.349-4.845,5.609-4.845,4.229,0,5.7,2.643,5.844,4.346l-3.7.675a1.917,1.917,0,0,0-2.085-1.791,1.422,1.422,0,0,0-1.586,1.263c0,.617.5.969,1.145,1.087l1.938.382c3.025.617,4.493,2.437,4.493,4.581,0,2.5-1.909,4.933-5.814,4.933-4.581,0-6.049-2.966-6.167-4.581Z" transform="translate(-508.46 -133.282)" fill="#2c3149"/>
      </g>
    </g>
  </g>
</svg>
