<svg id="Design_team-amico" data-name="Design team-amico" xmlns="http://www.w3.org/2000/svg" width="418.38" height="408.041" viewBox="0 0 418.38 408.041">
  <g id="freepik--Floor--inject-32" transform="translate(12.845 173.163)">
    <path id="Path_8810" data-name="Path 8810" d="M80.346,251.211c79.445-45.828,207.835-45.828,286.759,0s78.519,120.241-.9,166.1-207.835,45.873-286.768,0S.9,297.084,80.346,251.211Z" transform="translate(-20.5 -216.84)" fill="#eef1fb"/>
  </g>
  <g id="freepik--Shadows--inject-32" transform="translate(8.877 216.305)">
    <path id="Path_8811" data-name="Path 8811" d="M466.755,354.092c-7.117-4.107-18.619-4.107-25.691,0s-7.036,10.783.081,14.881,18.619,4.107,25.691,0S473.872,358.19,466.755,354.092Z" transform="translate(-435.784 -273.587)" fill="#d6defb"/>
    <path id="Path_8812" data-name="Path 8812" d="M117.885,418.536c-18.87-10.918-49.476-10.918-68.293,0s-18.691,28.62.216,39.538,49.476,10.918,68.293,0S136.8,429.454,117.885,418.536Z" transform="translate(263.834 -279.605)" fill="#d6defb"/>
    <path id="Path_8813" data-name="Path 8813" d="M70.124,315.638c17.819-10.3,46.628-10.3,64.339,0s17.612,26.958-.216,37.265-46.628,10.289-64.339,0S52.3,325.963,70.124,315.638Z" transform="translate(229.302 -269.217)" fill="#d6defb"/>
    <path id="Path_8814" data-name="Path 8814" d="M250.371,401.023c-20.012-11.547-52.352-11.547-72.229,0s-19.769,30.292.234,41.847,52.352,11.547,72.229,0S270.382,412.57,250.371,401.023Z" transform="translate(15.735 -277.781)" fill="#d6defb"/>
    <path id="Path_8815" data-name="Path 8815" d="M405.436,271.446,183.807,398.516l-11.367-6.623L394.123,264.85Z" transform="translate(-132.465 -264.85)" fill="#d6defb"/>
  </g>
  <g id="freepik--light-bulb--inject-32" transform="translate(342.434 11.142)">
    <g id="freepik--freepik--light-bulb--inject-77--inject-32" transform="translate(0)">
      <g id="freepik--freepik--Idea--inject-77--inject-32">
        <g id="freepik--freepik--light--inject-77--inject-32" transform="translate(8.915 10.702)">
          <path id="Path_8816" data-name="Path 8816" d="M87.564,84.44a1.467,1.467,0,1,0,0-.036Z" transform="translate(-85.807 -51.923)" fill="#37474f"/>
          <path id="Path_8817" data-name="Path 8817" d="M91.377,86.745c2.049-.252,2.7-1.8,1.456-3.451a7.135,7.135,0,0,0-5.958-2.516c-2.049.252-2.7,1.8-1.456,3.433A7.189,7.189,0,0,0,91.377,86.745Z" transform="translate(-84.201 -51.72)" fill="#455a64"/>
          <path id="Path_8818" data-name="Path 8818" d="M90.978,85.767c2.112-.27,2.786-1.851,1.51-3.594a7.4,7.4,0,0,0-6.146-2.615c-2.112.27-2.786,1.851-1.492,3.594a7.315,7.315,0,0,0,6.128,2.615Z" transform="translate(-83.336 -51.597)" fill="#37474f"/>
          <path id="Path_8819" data-name="Path 8819" d="M90.6,84.778c2.175-.27,2.867-1.9,1.519-3.594a7.566,7.566,0,0,0-6.29-2.7c-2.175.261-2.875,1.9-1.564,3.648A7.593,7.593,0,0,0,90.6,84.778Z" transform="translate(-82.48 -51.488)" fill="#455a64"/>
          <path id="Path_8820" data-name="Path 8820" d="M90.187,83.72c2.237-.27,2.947-1.959,1.591-3.756a7.818,7.818,0,0,0-6.551-2.777c-2.237.279-2.956,1.959-1.591,3.765a7.818,7.818,0,0,0,6.551,2.768Z" transform="translate(-81.547 -51.356)" fill="#37474f"/>
          <path id="Path_8821" data-name="Path 8821" d="M89.674,82.647C92,82.342,92.694,80.652,91.31,78.8A7.988,7.988,0,0,0,84.642,76c-2.282.27-3.019,1.995-1.626,3.837A7.962,7.962,0,0,0,89.674,82.647Z" transform="translate(-80.531 -51.235)" fill="#455a64"/>
          <path id="Path_8822" data-name="Path 8822" d="M84.324,49.474a12.832,12.832,0,0,1,6.838,16.8v.054C87.2,75.722,78.8,74,77.135,77.77A2.211,2.211,0,0,1,75.23,78.93a6.928,6.928,0,0,1-5.769-2.444,2.228,2.228,0,0,1-.476-2.157h0c1.617-3.783-5.472-8.635-1.483-18.035a12.832,12.832,0,0,1,16.822-6.838Z" transform="translate(-66.267 -48.443)" fill="#2843b4"/>
          <g id="Group_7159" data-name="Group 7159" opacity="0.6">
            <path id="Path_8823" data-name="Path 8823" d="M84.324,49.474a12.832,12.832,0,0,1,6.838,16.8v.054C87.2,75.722,78.8,74,77.135,77.77A2.211,2.211,0,0,1,75.23,78.93a6.928,6.928,0,0,1-5.769-2.444,2.228,2.228,0,0,1-.476-2.157h0c1.617-3.783-5.472-8.635-1.483-18.035a12.832,12.832,0,0,1,16.822-6.838Z" transform="translate(-66.267 -48.443)" fill="#fff"/>
          </g>
          <path id="Path_8824" data-name="Path 8824" d="M88.722,81.007c1.465-.207,1.977-1.294,1.1-2.471a5.2,5.2,0,0,0-4.349-1.8c-1.465.207-1.959,1.3-1.06,2.5A5.176,5.176,0,0,0,88.722,81.007Z" transform="translate(-80.243 -51.311)" fill="#2843b4"/>
          <path id="Path_8825" data-name="Path 8825" d="M75.824,76.421a.431.431,0,0,0,.557-.216A31.181,31.181,0,0,0,78.412,69.1a15.411,15.411,0,0,0,.189-2.13A6.478,6.478,0,0,0,79.85,66.9,7.494,7.494,0,0,0,82,66.213,7.8,7.8,0,0,0,83,68.2a6.769,6.769,0,0,0,.818.9,18.468,18.468,0,0,0-1.393,1.626,30.974,30.974,0,0,0-3.693,6.416.431.431,0,0,0,.243.566.449.449,0,0,0,.566-.252,30.462,30.462,0,0,1,3.594-6.2,13.982,13.982,0,0,1,1.384-1.617,2.741,2.741,0,0,0,2.525.288,1.393,1.393,0,0,0,.9-1.582,1.159,1.159,0,0,0-.9-.9A3.307,3.307,0,0,0,84.5,68.531a4.69,4.69,0,0,1-.737-.845,6.7,6.7,0,0,1-.961-1.932,3.19,3.19,0,0,0,1.546-2,1.231,1.231,0,0,0-2.157-.9,3.154,3.154,0,0,0-.368,2.507,6.911,6.911,0,0,1-2.049.656,5.2,5.2,0,0,1-1.123,0,3.334,3.334,0,0,0-1-2.588,1.168,1.168,0,0,0-1.294,0,1.384,1.384,0,0,0-.53,1.725,2.75,2.75,0,0,0,1.959,1.617,15.276,15.276,0,0,1-.2,2.121,30.552,30.552,0,0,1-1.977,6.892.449.449,0,0,0,.216.584Zm11.1-8.087a.305.305,0,0,1,.162.243c.081.35-.27.548-.377.593a1.716,1.716,0,0,1-1.465-.126,2.462,2.462,0,0,1,1.617-.737ZM77.7,65.9a1.8,1.8,0,0,1-1.105-.979c0-.108-.153-.494.162-.683a.279.279,0,0,1,.341,0C77.369,64.38,77.63,64.928,77.7,65.9Zm5.508-2.561a.3.3,0,0,1,.216.35h0a2.1,2.1,0,0,1-.9,1.186,2.148,2.148,0,0,1,.252-1.447.306.306,0,0,1,.4-.1Z" transform="translate(-70.428 -49.861)" fill="#fff"/>
        </g>
        <path id="Path_8826" data-name="Path 8826" d="M69.741,43.939a.629.629,0,0,0,.189.126.845.845,0,0,0,1.105-.44L72.769,39.6a.827.827,0,0,0-.4-1.1h0a.845.845,0,0,0-1.105.449l-1.734,4.017A.9.9,0,0,0,69.741,43.939Z" transform="translate(-40.899 -36.727)" fill="#e0e0e0"/>
        <path id="Path_8827" data-name="Path 8827" d="M59.434,50.788a.836.836,0,0,0,1.015,0l3.514-2.606a.845.845,0,0,0-1-1.357l-3.514,2.606a.845.845,0,0,0-.171,1.177A.521.521,0,0,0,59.434,50.788Z" transform="translate(-23.008 -37.565)" fill="#e0e0e0"/>
        <path id="Path_8828" data-name="Path 8828" d="M54.458,61.028a.845.845,0,0,0,.629.18l4.34-.5a.836.836,0,0,0,.737-.9.9.9,0,0,0-.9-.746l-4.349.5a.836.836,0,0,0-.737.9A.818.818,0,0,0,54.458,61.028Z" transform="translate(-14.483 -38.818)" fill="#e0e0e0"/>
        <path id="Path_8829" data-name="Path 8829" d="M56.538,71.717a.521.521,0,0,0,.162.153l4.017,1.743a.827.827,0,0,0,1.1-.413h0a.836.836,0,0,0-.413-1.105h0l-4-1.8a.845.845,0,0,0-.9,1.429Z" transform="translate(-17.964 -39.947)" fill="#e0e0e0"/>
        <path id="Path_8830" data-name="Path 8830" d="M98.948,53.3a.9.9,0,0,0,.162.153l4.08,1.7a.836.836,0,1,0,.656-1.537l-4.017-1.743a.836.836,0,0,0-1.087.476.845.845,0,0,0,.234.953Z" transform="translate(-98.682 -38.084)" fill="#e0e0e0"/>
        <path id="Path_8831" data-name="Path 8831" d="M94.968,46.434a.845.845,0,0,0,1.2-1.168l-2.615-3.5a.818.818,0,0,0-1.15-.18h0a.836.836,0,0,0-.18,1.159h0l2.615,3.513a.656.656,0,0,0,.135.18Z" transform="translate(-84.682 -37.03)" fill="#e0e0e0"/>
        <path id="Path_8832" data-name="Path 8832" d="M82.9,42.344a.845.845,0,0,0,1.366-.755l-.548-4.313a.837.837,0,0,0-1.662.189l.512,4.349A.8.8,0,0,0,82.9,42.344Z" transform="translate(-63.625 -36.534)" fill="#e0e0e0"/>
      </g>
    </g>
  </g>
  <g id="freepik--Plant--inject-32" transform="translate(0 213.697)">
    <path id="Path_8833" data-name="Path 8833" d="M471.27,328.13l-17.226.5-17.235-.5c-.737,11.637,1.537,23.5,4.664,29.285h0a7.79,7.79,0,0,0,3.406,3.469c5.086,2.938,13.3,2.938,18.349,0a7.638,7.638,0,0,0,3.415-3.594C469.77,351.5,472.016,339.695,471.27,328.13Z" transform="translate(-427.001 -268.66)" fill="#fff" stroke="#eff0f5" stroke-width="1"/>
    <path id="Path_8834" data-name="Path 8834" d="M466.2,319.95c6.757,3.9,6.793,10.217.081,14.117s-17.612,3.891-24.37,0-6.784-10.217-.072-14.117S459.451,316.05,466.2,319.95Z" transform="translate(-427.017 -267.534)" fill="#ebebeb"/>
    <path id="Path_8835" data-name="Path 8835" d="M463.954,321.743c5.266,3.046,5.3,7.971.063,11.017s-13.739,3.037-19.005,0-5.3-7.971-.063-11.017S458.688,318.705,463.954,321.743Z" transform="translate(-427.44 -267.781)" fill="#e0e0e0"/>
    <g id="Group_7160" data-name="Group 7160" transform="translate(13.601 51.68)" opacity="0.15">
      <path id="Path_8836" data-name="Path 8836" d="M463.954,321.743c5.266,3.046,5.3,7.971.063,11.017s-13.739,3.037-19.005,0-5.3-7.971-.063-11.017S458.688,318.705,463.954,321.743Z" transform="translate(-441.041 -319.461)"/>
    </g>
    <path id="Path_8837" data-name="Path 8837" d="M452.369,286.158c-2.8-3.487-6.056-6.6-8.626-10.262-1.752-2.5-3.217-5.553-2.48-8.51a7.6,7.6,0,0,1,6.03-5.311,11.538,11.538,0,0,1,8.087,1.8A24.783,24.783,0,0,1,461.5,269.7a60.808,60.808,0,0,1,12.8,43.42,8.993,8.993,0,0,1-1.6,4.987,4.969,4.969,0,0,1-5.149,1.573c-4.691-1.393-4.071-7.728-4.834-11.457a52.543,52.543,0,0,0-5.392-14.638,51.488,51.488,0,0,0-4.96-7.422Z" transform="translate(-434.114 -261.949)" fill="#455a64"/>
    <path id="Path_8838" data-name="Path 8838" d="M452.369,286.158c-2.8-3.487-6.056-6.6-8.626-10.262-1.752-2.5-3.217-5.553-2.48-8.51a7.6,7.6,0,0,1,6.03-5.311,11.538,11.538,0,0,1,8.087,1.8A24.783,24.783,0,0,1,461.5,269.7a60.808,60.808,0,0,1,12.8,43.42,8.993,8.993,0,0,1-1.6,4.987,4.969,4.969,0,0,1-5.149,1.573c-4.691-1.393-4.071-7.728-4.834-11.457a52.543,52.543,0,0,0-5.392-14.638,51.488,51.488,0,0,0-4.96-7.422Z" transform="translate(-434.114 -261.949)" fill="#fff" opacity="0.2"/>
    <path id="Path_8839" data-name="Path 8839" d="M468.984,315.475a.413.413,0,0,1-.332-.386c-.332-7.539-2.777-33.248-20.506-47.85a.413.413,0,0,1-.054-.575.4.4,0,0,1,.575-.054c17.972,14.809,20.47,40.823,20.8,48.443a.4.4,0,0,1-.4.422Z" transform="translate(-435.237 -262.411)" fill="#f0f0f0"/>
    <path id="Path_8840" data-name="Path 8840" d="M481.4,318.528a12.591,12.591,0,0,1-5.76,7.98,16.175,16.175,0,0,1-8.707,1.465,38.279,38.279,0,0,1-8.842-2.121c-1.42-.476-3-1.123-3.145-2.884a3.127,3.127,0,0,1,1-2.471,9.95,9.95,0,0,1,.9-.791.9.9,0,0,0-.485-1.635,19.985,19.985,0,0,1-2.525-.315,10.972,10.972,0,0,1-5.284-2.39,8.762,8.762,0,0,1-2.444-3.594c-.431-1.177-.548-2.7.35-3.549a3.872,3.872,0,0,1,1.959-.854q.943-.207,1.887-.35a.836.836,0,0,0,.2-1.608l-2.7-1.105a5.059,5.059,0,0,1-2.031-1.267,4.394,4.394,0,0,1-.512-3.675c.323-1.68.9-3.289,1.294-4.951a10.6,10.6,0,0,0,.18-5.059,42.6,42.6,0,0,1,14.971,1,10.729,10.729,0,0,1,4.089,1.8c1.662,1.339,2.1,3.334,1.923,5.508a.386.386,0,0,0,.728.207l1.707-3.154a2.022,2.022,0,0,1,2.7-.845,12.285,12.285,0,0,1,3.9,3.064,6.757,6.757,0,0,1,1.671,5.005,44.125,44.125,0,0,1-1.24,7.342.674.674,0,0,0,1.06.71l.081-.054a2.282,2.282,0,0,1,1.608-.467c1.51.189,1.9,1.716,1.995,3.019a25.062,25.062,0,0,1-.521,6.048Z" transform="translate(-445.063 -264.701)" fill="#455a64"/>
    <path id="Path_8841" data-name="Path 8841" d="M481.4,318.528a12.591,12.591,0,0,1-5.76,7.98,16.175,16.175,0,0,1-8.707,1.465,38.279,38.279,0,0,1-8.842-2.121c-1.42-.476-3-1.123-3.145-2.884a3.127,3.127,0,0,1,1-2.471,9.95,9.95,0,0,1,.9-.791.9.9,0,0,0-.485-1.635,19.985,19.985,0,0,1-2.525-.315,10.972,10.972,0,0,1-5.284-2.39,8.762,8.762,0,0,1-2.444-3.594c-.431-1.177-.548-2.7.35-3.549a3.872,3.872,0,0,1,1.959-.854q.943-.207,1.887-.35a.836.836,0,0,0,.2-1.608l-2.7-1.105a5.059,5.059,0,0,1-2.031-1.267,4.394,4.394,0,0,1-.512-3.675c.323-1.68.9-3.289,1.294-4.951a10.6,10.6,0,0,0,.18-5.059,42.6,42.6,0,0,1,14.971,1,10.729,10.729,0,0,1,4.089,1.8c1.662,1.339,2.1,3.334,1.923,5.508a.386.386,0,0,0,.728.207l1.707-3.154a2.022,2.022,0,0,1,2.7-.845,12.285,12.285,0,0,1,3.9,3.064,6.757,6.757,0,0,1,1.671,5.005,44.125,44.125,0,0,1-1.24,7.342.674.674,0,0,0,1.06.71l.081-.054a2.282,2.282,0,0,1,1.608-.467c1.51.189,1.9,1.716,1.995,3.019a25.062,25.062,0,0,1-.521,6.048Z" transform="translate(-445.063 -264.701)" opacity="0.2"/>
    <path id="Path_8842" data-name="Path 8842" d="M481.4,318.528a12.591,12.591,0,0,1-5.76,7.98,16.175,16.175,0,0,1-8.707,1.465,38.279,38.279,0,0,1-8.842-2.121c-1.42-.476-3-1.123-3.145-2.884a3.127,3.127,0,0,1,1-2.471,9.95,9.95,0,0,1,.9-.791.9.9,0,0,0-.485-1.635,19.985,19.985,0,0,1-2.525-.315,10.972,10.972,0,0,1-5.284-2.39,8.762,8.762,0,0,1-2.444-3.594c-.431-1.177-.548-2.7.35-3.549a3.872,3.872,0,0,1,1.959-.854q.943-.207,1.887-.35a.836.836,0,0,0,.2-1.608l-2.7-1.105a5.059,5.059,0,0,1-2.031-1.267,4.394,4.394,0,0,1-.512-3.675c.323-1.68.9-3.289,1.294-4.951a10.6,10.6,0,0,0,.18-5.059,42.6,42.6,0,0,1,14.971,1,10.729,10.729,0,0,1,4.089,1.8c1.662,1.339,2.1,3.334,1.923,5.508a.386.386,0,0,0,.728.207l1.707-3.154a2.022,2.022,0,0,1,2.7-.845,12.285,12.285,0,0,1,3.9,3.064,6.757,6.757,0,0,1,1.671,5.005,44.125,44.125,0,0,1-1.24,7.342.674.674,0,0,0,1.06.71l.081-.054a2.282,2.282,0,0,1,1.608-.467c1.51.189,1.9,1.716,1.995,3.019a25.062,25.062,0,0,1-.521,6.048Z" transform="translate(-445.063 -264.701)" fill="#fff" opacity="0.2"/>
    <path id="Path_8843" data-name="Path 8843" d="M477.477,326.365a59.949,59.949,0,0,0-4.026-11.682.4.4,0,0,0-.144-.306c-.09-.207-.18-.4-.279-.611a37.535,37.535,0,0,1,4-13.353.422.422,0,0,0-.153-.566.413.413,0,0,0-.557.153,38.027,38.027,0,0,0-3.936,12.419c-3.406-6.829-8.851-14.827-17.244-20.668a.4.4,0,0,0-.575.1.413.413,0,0,0,.108.575c8.662,6.021,14.126,14.377,17.442,21.306a25.25,25.25,0,0,0-14.27-1.932.422.422,0,0,0-.333.485.413.413,0,0,0,.323.323H458c.081,0,7.917-1.438,14.692,2.354a59.615,59.615,0,0,1,3.99,11.556.413.413,0,0,0,.323.324.332.332,0,0,0,.162,0A.4.4,0,0,0,477.477,326.365Z" transform="translate(-449.087 -264.963)" fill="#f0f0f0"/>
  </g>
  <g id="freepik--Screen--inject-32" transform="translate(38.635 0)">
    <path id="Path_8844" data-name="Path 8844" d="M183.073,324.372l-.3-166.428a12.8,12.8,0,0,1,5.814-10.082L395.033,28.942c1.6-.9,3.055-1.024,4.116-.431l-6.11-3.531h0c-1.06-.674-2.57-.62-4.241.341L182.363,144.2a12.823,12.823,0,0,0-5.823,10.082l.243,166.482a4.215,4.215,0,0,0,1.555,3.639h0l.323.189,6.03,3.514A4.2,4.2,0,0,1,183.073,324.372Z" transform="translate(-159.62 -24.175)" fill="#2843b4"/>
    <path id="Path_8845" data-name="Path 8845" d="M391.708,24.949h0c-1.06-.674-2.57-.62-4.241.341l-206.434,118.9a12.239,12.239,0,0,0-4.493,4.969l6.245,3.594a12.176,12.176,0,0,1,4.448-4.96L393.7,28.939c1.6-.9,3.055-1.024,4.116-.431Z" transform="translate(-158.29 -24.172)" fill="#fff" opacity="0.3"/>
    <path id="Path_8846" data-name="Path 8846" d="M415.2,168.35l.243,166.482A4.215,4.215,0,0,0,417,338.472h0l.323.189,6.03,3.514a4.119,4.119,0,0,1-1.68-3.729l-.234-166.428a11.3,11.3,0,0,1,1.366-5.122l-6.245-3.594a11.393,11.393,0,0,0-1.357,5.05Z" transform="translate(-398.28 -38.248)" fill="#fff" opacity="0.2"/>
    <path id="Path_8847" data-name="Path 8847" d="M174.27,167.161l.288,158.916a4.131,4.131,0,0,0,1.68,3.729l.09.054h.045a4.183,4.183,0,0,0,4.044-.458L386.85,210.545a12.859,12.859,0,0,0,5.823-10.082L392.394,41.34Z" transform="translate(-151.104 -25.88)" fill="#2843b4"/>
    <path id="Path_8848" data-name="Path 8848" d="M174.27,167.161l.288,158.916a4.131,4.131,0,0,0,1.68,3.729l.09.054h.045a4.183,4.183,0,0,0,4.044-.458L386.85,210.545a12.859,12.859,0,0,0,5.823-10.082L392.394,41.34Z" transform="translate(-151.104 -25.88)" opacity="0.2"/>
    <path id="Path_8849" data-name="Path 8849" d="M380.946,209.235,380.713,77.16,203.16,179.24l.234,131.877Z" transform="translate(-165.338 -29.512)" fill="#fff"/>
    <path id="Path_8850" data-name="Path 8850" d="M363.795,204.005l-.1-68.275L284.97,180.983l.108,68.194Z" transform="translate(-221.7 -35.452)" fill="#2c3149"/>
    <path id="Path_8851" data-name="Path 8851" d="M392.705,32.688a4.114,4.114,0,0,0-1.68-3.72h0c-1.06-.593-2.516-.494-4.116.431L180.4,148.229a12.8,12.8,0,0,0-5.814,10.127v7.557l218.124-125.8Z" transform="translate(-151.433 -24.588)" fill="#2843b4"/>
    <path id="Path_8852" data-name="Path 8852" d="M392.705,32.688a4.114,4.114,0,0,0-1.68-3.72h0c-1.06-.593-2.516-.494-4.116.431L180.4,148.229a12.8,12.8,0,0,0-5.814,10.127v7.557l218.124-125.8Z" transform="translate(-151.433 -24.588)" opacity="0.3"/>
    <g id="Group_7161" data-name="Group 7161" transform="translate(224.226 10.903)" opacity="0.39">
      <path id="Path_8853" data-name="Path 8853" d="M191.62,42.076c.9-.5,1.59-.1,1.59.9a3.46,3.46,0,0,1-1.582,2.75c-.9.512-1.6.1-1.6-.9a3.5,3.5,0,0,1,1.59-2.75Z" transform="translate(-190.03 -36.836)" fill="#fff"/>
      <path id="Path_8854" data-name="Path 8854" d="M186.829,39.285c.9-.512,1.591-.108,1.591.9a3.487,3.487,0,0,1-1.591,2.759c-.9.5-1.6.1-1.6-.9A3.5,3.5,0,0,1,186.829,39.285Z" transform="translate(-180.926 -36.552)" fill="#fff"/>
      <path id="Path_8855" data-name="Path 8855" d="M181.94,36.486c.9-.5,1.59-.1,1.59.9a3.46,3.46,0,0,1-1.582,2.75c-.9.512-1.6.108-1.6-.9A3.522,3.522,0,0,1,181.94,36.486Z" transform="translate(-171.652 -36.269)" fill="#fff"/>
    </g>
    <path id="Path_8856" data-name="Path 8856" d="M191.05,102.5l.027,8.294-.027-8.294Z" transform="translate(35.413 -32.082)" fill="#fff"/>
    <path id="Path_8857" data-name="Path 8857" d="M183.01,114.809l7.216-4.169h0l-7.216,4.169.018,8.294h0Z" transform="translate(43.489 -32.907)" fill="#fff"/>
    <rect id="Rectangle_2872" data-name="Rectangle 2872" height="8.33" transform="translate(226.535 93.369) rotate(-120)" fill="#fff"/>
    <rect id="Rectangle_2873" data-name="Rectangle 2873" height="8.33" transform="translate(226.649 135.115) rotate(-120)" fill="#fff"/>
    <path id="Path_8858" data-name="Path 8858" d="M190.315,81.55l-7.225,4.169,7.225-4.169Z" transform="translate(43.328 -29.957)" fill="#fff"/>
    <path id="Path_8859" data-name="Path 8859" d="M190.649,87.05l-4.169,2.408.027,8.294-.027-8.294Z" transform="translate(39.947 -30.515)" fill="#fff"/>
    <path id="Path_8860" data-name="Path 8860" d="M190.276,94.32l-7.216,4.169,7.216-4.169Z" transform="translate(43.394 -31.252)" fill="#fff"/>
    <path id="Path_8861" data-name="Path 8861" d="M190.236,107.09l-7.216,4.169,7.216-4.169Z" transform="translate(43.47 -32.547)" fill="#fff"/>
    <path id="Path_8862" data-name="Path 8862" d="M190.369,184.59,186.2,187l.027,8.294h0L186.2,187Z" transform="translate(40.479 -40.406)" fill="#fff"/>
    <rect id="Rectangle_2874" data-name="Rectangle 2874" height="8.33" transform="translate(226.581 112.156) rotate(-120)" fill="#fff"/>
    <rect id="Rectangle_2875" data-name="Rectangle 2875" height="8.33" transform="translate(226.613 123.632) rotate(-120)" fill="#fff"/>
    <path id="Path_8863" data-name="Path 8863" d="M190.236,97.87l-7.216,4.16.027,8.294,7.216-4.169Z" transform="translate(43.443 -31.612)" fill="#fff"/>
    <path id="Path_8864" data-name="Path 8864" d="M183.008,123.1l7.216-4.169-.018-8.294-7.216,4.169Z" transform="translate(43.509 -32.907)" fill="#fff"/>
    <path id="Path_8865" data-name="Path 8865" d="M190.066,157.09l-7.216,4.169.027,8.294,7.216-4.169Z" transform="translate(43.766 -37.618)" fill="#fff"/>
    <path id="Path_8866" data-name="Path 8866" d="M182.847,182.314l7.216-4.16-.018-8.294-7.225,4.169Z" transform="translate(43.823 -38.913)" fill="#fff"/>
    <path id="Path_8867" data-name="Path 8867" d="M190.106,144.32l-7.216,4.16.027,8.294,7.216-4.169Z" transform="translate(43.69 -36.323)" fill="#fff"/>
    <path id="Path_8868" data-name="Path 8868" d="M192.191,199.4l-11.87,6.847-.171-59.541,11.87-6.856Zm-2.417-32.583-7.189,4.169h0v8.294l7.189-4.169Zm-7.261-10.5,7.189-4.169v-8.285h0l-7.189,4.16h0Zm0,11.484,7.189-4.169v-8.294h0l-7.189,4.169h0Zm.063,22.95h0l7.189-4.169V178.3l-3.046,1.8-4.169,2.408V190.8Zm7.243,7.306v-8.294l-7.189,4.169v8.294Z" transform="translate(44.094 -35.87)" fill="#2843b4"/>
    <path id="Path_8869" data-name="Path 8869" d="M192.392,127.4l-11.861,6.856-.171-59.55,11.87-6.856Zm-9.678-43.07,7.189-4.169h0V71.867l-7.189,4.169Zm0,11.475,7.189-4.169h0V83.342l-3.055,1.8-4.169,2.408Zm0,11.475,7.189-4.16h0V94.826l-7.189,4.16h0Zm0,11.484h0l7.189-4.169V106.3h0l-7.189,4.169Zm0,11.475,7.189-4.169v-8.294h0l-7.189,4.169h0Z" transform="translate(43.704 -28.568)" fill="#2843b4"/>
    <path id="Path_8870" data-name="Path 8870" d="M192.191,199.4l-11.87,6.847-.171-59.541,11.87-6.856Zm-2.417-32.583-7.189,4.169h0v8.294l7.189-4.169Zm-7.261-10.5,7.189-4.169v-8.285h0l-7.189,4.16h0Zm0,11.484,7.189-4.169v-8.294h0l-7.189,4.169h0Zm.063,22.95h0l7.189-4.169V178.3l-3.046,1.8-4.169,2.408V190.8Zm7.243,7.306v-8.294l-7.189,4.169v8.294Z" transform="translate(44.094 -35.87)" fill="#455a64"/>
    <path id="Path_8871" data-name="Path 8871" d="M192.392,127.4l-11.861,6.856-.171-59.55,11.87-6.856Zm-9.678-43.07,7.189-4.169h0V71.867l-7.189,4.169Zm0,11.475,7.189-4.169h0V83.342l-3.055,1.8-4.169,2.408Zm0,11.475,7.189-4.16h0V94.826l-7.189,4.16h0Zm0,11.484h0l7.189-4.169V106.3h0l-7.189,4.169Zm0,11.475,7.189-4.169v-8.294h0l-7.189,4.169h0Z" transform="translate(43.704 -28.568)" fill="#455a64"/>
    <path id="Path_8872" data-name="Path 8872" d="M190.3,93.384l-.018-8.294-3.055,1.761-4.169,2.408.027,8.294,7.216-4.169Z" transform="translate(43.367 -30.316)" fill="#fff"/>
    <path id="Path_8873" data-name="Path 8873" d="M192.428,67.329l-.018-4.619-11.87,6.847.018,4.628,11.87-6.856Z" transform="translate(43.506 -28.047)" fill="#fff"/>
    <path id="Path_8874" data-name="Path 8874" d="M190.333,80.614l-.027-8.294-7.216,4.169.018,8.294,7.225-4.169Z" transform="translate(43.31 -29.021)" fill="#fff"/>
    <path id="Path_8875" data-name="Path 8875" d="M190.175,123.41h0l-7.225,4.169h0l.027,8.294,7.216-4.169Z" transform="translate(43.576 -34.202)" fill="#fff"/>
    <path id="Path_8876" data-name="Path 8876" d="M190.023,190.924,190,182.63l-3.046,1.761L182.78,186.8l.027,8.294h0Z" transform="translate(43.899 -40.208)" fill="#fff"/>
    <path id="Path_8877" data-name="Path 8877" d="M182.75,199.569l.018,8.294,7.216-4.169-.018-8.294Z" transform="translate(43.965 -41.503)" fill="#fff"/>
    <path id="Path_8878" data-name="Path 8878" d="M284.71,260.692l.018,3.783,60.781-35.6-.018-3.783Z" transform="translate(-203.181 -44.514)" fill="#37474f"/>
    <ellipse id="Ellipse_344" data-name="Ellipse 344" cx="5.94" cy="10.253" rx="5.94" ry="10.253" transform="matrix(-0.865, -0.502, 0.502, -0.865, 196.093, 182.847)" fill="#d6defb"/>
    <path id="Path_8879" data-name="Path 8879" d="M224.132,181.429a15.976,15.976,0,0,0-7.252,12.58c.018,4.637,3.28,6.479,7.3,4.16a15.976,15.976,0,0,0,7.252-12.58C231.41,180.953,228.193,179.146,224.132,181.429Z" transform="translate(-28.149 -39.986)" fill="#d6defb"/>
    <path id="Path_8880" data-name="Path 8880" d="M246.132,194.127a15.976,15.976,0,0,0-7.252,12.58c.018,4.637,3.28,6.479,7.3,4.16a15.976,15.976,0,0,0,7.252-12.58C253.41,193.651,250.193,191.809,246.132,194.127Z" transform="translate(-69.918 -41.272)" fill="#d6defb"/>
    <path id="Path_8881" data-name="Path 8881" d="M268,230.407a16,16,0,0,0-7.252,12.58c.009,4.637,3.28,6.479,7.306,4.16a15.976,15.976,0,0,0,7.252-12.58C275.3,229.931,272.027,228.089,268,230.407Z" transform="translate(-111.449 -44.951)" fill="#d6defb"/>
    <ellipse id="Ellipse_345" data-name="Ellipse 345" cx="5.94" cy="10.253" rx="5.94" ry="10.253" transform="matrix(-0.865, -0.502, 0.502, -0.865, 156.502, 184.488)" fill="#d6defb"/>
    <ellipse id="Ellipse_346" data-name="Ellipse 346" cx="5.94" cy="10.253" rx="5.94" ry="10.253" transform="matrix(-0.865, -0.502, 0.502, -0.865, 176.331, 194.265)" fill="#d6defb"/>
    <path id="Path_8882" data-name="Path 8882" d="M347.979,124.992l77.845-44.966a1.564,1.564,0,0,1,1.582-.153h0l5.823,4.169h0a1.581,1.581,0,0,0-1.564.162l-77.89,44.975a4.906,4.906,0,0,0-2.175,3.81l.306,69.542a1.555,1.555,0,0,0,.62,1.4h0l-5.895-4.223h0a1.617,1.617,0,0,1-.566-1.366L345.76,128.8a4.906,4.906,0,0,1,2.219-3.81Z" transform="translate(-345.76 -29.773)" fill="#2843b4"/>
    <path id="Path_8883" data-name="Path 8883" d="M344.936,203.04l-.306-69.578a4.906,4.906,0,0,1,2.219-3.846l77.89-44.93a1.581,1.581,0,0,1,1.564-.162,1.546,1.546,0,0,1,.665,1.447l.305,69.542a4.906,4.906,0,0,1-2.22,3.846l-77.89,44.93a1.519,1.519,0,0,1-1.608.126,1.555,1.555,0,0,1-.62-1.375Z" transform="translate(-338.789 -30.245)" fill="#1e2e72"/>
    <g id="Group_7162" data-name="Group 7162" transform="translate(76.344 101.24)" opacity="0.3">
      <path id="Path_8884" data-name="Path 8884" d="M350.13,140.943l.018,8.249,7.18-4.143L357.3,136.8Z" transform="translate(-350.13 -136.8)"/>
    </g>
    <g id="Group_7163" data-name="Group 7163" transform="translate(76.344 116.669)" opacity="0.3">
      <path id="Path_8885" data-name="Path 8885" d="M350.13,158.121l.018,8.24,7.18-4.143-.027-8.249Z" transform="translate(-350.13 -153.97)"/>
    </g>
    <path id="Path_8886" data-name="Path 8886" d="M358.12,162.724l.018,8.249,7.18-4.143-.027-8.24Z" transform="translate(-288.955 -37.77)" fill="#fff"/>
    <g id="Group_7164" data-name="Group 7164" transform="translate(29.402 110.352)" opacity="0.5">
      <path id="Path_8887" data-name="Path 8887" d="M362.85,171.588l.009,3.217,42.7-24.648-.009-3.217Z" transform="translate(-362.85 -146.94)" fill="#fff"/>
    </g>
    <g id="Group_7165" data-name="Group 7165" transform="translate(76.308 88.597)" opacity="0.3">
      <path id="Path_8888" data-name="Path 8888" d="M350.17,126.873l.018,8.24,7.18-4.143-.027-8.24Z" transform="translate(-350.17 -122.73)"/>
    </g>
    <g id="Group_7166" data-name="Group 7166" transform="translate(29.33 85.047)" opacity="0.5">
      <path id="Path_8889" data-name="Path 8889" d="M362.93,143.437l.009,3.217,42.7-24.648-.009-3.226Z" transform="translate(-362.93 -118.78)" fill="#fff"/>
    </g>
    <g id="Group_7167" data-name="Group 7167" transform="translate(29.366 97.708)" opacity="0.5">
      <path id="Path_8890" data-name="Path 8890" d="M362.89,157.518l.009,3.217,42.7-24.648-.009-3.217Z" transform="translate(-362.89 -132.87)" fill="#fff"/>
    </g>
    <g id="Group_7168" data-name="Group 7168" transform="translate(76.273 75.944)" opacity="0.3">
      <path id="Path_8891" data-name="Path 8891" d="M350.21,112.793l.018,8.249,7.18-4.143-.027-8.249Z" transform="translate(-350.21 -108.65)"/>
    </g>
    <path id="Path_8892" data-name="Path 8892" d="M414.67,154.37l.027,8.249,14.737-8.51-.027-8.249Z" transform="translate(-403.887 -36.479)" fill="#fff"/>
    <path id="Path_8893" data-name="Path 8893" d="M414.59,182.53l.027,8.24,14.737-8.51-.027-8.24Z" transform="translate(-403.735 -39.335)" fill="#fff"/>
    <path id="Path_8894" data-name="Path 8894" d="M414.63,168.45l.027,8.249,14.737-8.51-.027-8.249Z" transform="translate(-403.811 -37.907)" fill="#fff"/>
    <g id="Group_7169" data-name="Group 7169" transform="translate(5.841 73.006)" opacity="0.3">
      <path id="Path_8895" data-name="Path 8895" d="M385.52,131.772a4.906,4.906,0,0,0-2.22,3.819v6.659l47.895-27.659V105.38Z" transform="translate(-383.3 -105.38)"/>
    </g>
    <path id="Path_8896" data-name="Path 8896" d="M348.76,105.47l26.706-15.42.009,3.046-26.715,15.42Z" transform="translate(-290.702 -30.819)" fill="#fff"/>
    <path id="Path_8897" data-name="Path 8897" d="M432.173,133.08v.863l-5.383,3.109v-.863Z" transform="translate(-417.517 -35.183)" fill="#fff"/>
    <path id="Path_8898" data-name="Path 8898" d="M432.163,138.854l-5.374,3.1-.009-.845L432.163,138Z" transform="translate(-417.498 -35.682)" fill="#fff"/>
    <path id="Path_8899" data-name="Path 8899" d="M432.173,135.583l-5.374,3.1-.009-.854,5.383-3.109Z" transform="translate(-417.517 -35.349)" fill="#fff"/>
    <path id="Path_8900" data-name="Path 8900" d="M432.163,137.214l-5.383,3.1v-.845l5.383-3.109Z" transform="translate(-417.498 -35.516)" fill="#fff"/>
    <path id="Path_8901" data-name="Path 8901" d="M347.782,124.992l77.845-44.966a1.564,1.564,0,0,1,1.582-.153h0l5.823,4.169h0a1.581,1.581,0,0,0-1.564.162l-77.89,44.975a4.628,4.628,0,0,0-1.7,1.905l-6.119-3.514a4.924,4.924,0,0,1,2.022-2.579Z" transform="translate(-345.562 -29.773)" fill="#1e2e72"/>
    <path id="Path_8902" data-name="Path 8902" d="M441.912,136.483a4.4,4.4,0,0,0-.521,1.941l.306,69.542a1.555,1.555,0,0,0,.62,1.4h0l-5.895-4.223h0a1.617,1.617,0,0,1-.566-1.366l-.306-69.542a3.845,3.845,0,0,1,.243-1.267Z" transform="translate(-435.532 -35.172)" fill="#263238"/>
    <path id="Path_8903" data-name="Path 8903" d="M214.06,69.366l77.89-44.93a1.591,1.591,0,0,1,1.582-.162h0l5.823,4.178h0a1.581,1.581,0,0,0-1.564.162L219.9,73.589a4.906,4.906,0,0,0-2.22,3.846l.306,31.8a1.573,1.573,0,0,0,.611,1.4h0l-5.895-4.223h0a1.626,1.626,0,0,1-.557-1.357l-.306-31.81a4.906,4.906,0,0,1,2.22-3.882Z" transform="translate(-91.546 -24.135)" fill="#2843b4"/>
    <path id="Path_8904" data-name="Path 8904" d="M211.066,109.673l-.306-31.8a4.906,4.906,0,0,1,2.22-3.846L290.87,29.1a1.582,1.582,0,0,1,1.564-.162,1.564,1.564,0,0,1,.665,1.438l.306,31.81a4.906,4.906,0,0,1-2.22,3.846l-77.89,44.93a1.536,1.536,0,0,1-1.617.126,1.573,1.573,0,0,1-.611-1.411Z" transform="translate(-84.625 -24.608)" fill="#1e2e72"/>
    <g id="Group_7170" data-name="Group 7170" transform="translate(193.763 24.275)" opacity="0.5">
      <path id="Path_8905" data-name="Path 8905" d="M216.43,56.856l.036,11.367,9.885-5.706-.027-11.367Z" transform="translate(-216.43 -51.15)" fill="#fff"/>
    </g>
    <g id="Group_7171" data-name="Group 7171" transform="translate(178.344 32.812)" opacity="0.5">
      <path id="Path_8906" data-name="Path 8906" d="M233.59,66.356l.036,11.376,9.885-5.706-.027-11.376Z" transform="translate(-233.59 -60.65)" fill="#fff"/>
    </g>
    <g id="Group_7172" data-name="Group 7172" transform="translate(162.933 41.349)" opacity="0.5">
      <path id="Path_8907" data-name="Path 8907" d="M250.74,75.865l.027,11.367,9.893-5.706-.036-11.376Z" transform="translate(-250.74 -70.15)" fill="#fff"/>
    </g>
    <g id="Group_7173" data-name="Group 7173" transform="translate(147.513 49.894)" opacity="0.5">
      <path id="Path_8908" data-name="Path 8908" d="M267.9,85.366l.027,11.367,9.893-5.706-.036-11.367Z" transform="translate(-267.9 -79.66)" fill="#fff"/>
    </g>
    <g id="Group_7174" data-name="Group 7174" transform="translate(132.093 58.431)" opacity="0.5">
      <path id="Path_8909" data-name="Path 8909" d="M285.06,94.866l.036,11.376,9.885-5.715-.036-11.367Z" transform="translate(-285.06 -89.16)" fill="#fff"/>
    </g>
    <g id="Group_7175" data-name="Group 7175" transform="translate(126.135 23.017)" opacity="0.3">
      <path id="Path_8910" data-name="Path 8910" d="M251.629,76.142a4.906,4.906,0,0,0-2.219,3.846v6.65l47.913-27.677V49.75Z" transform="translate(-249.41 -49.75)"/>
    </g>
    <path id="Path_8911" data-name="Path 8911" d="M214.9,49.84l26.706-15.42.009,3.046-26.706,15.42Z" transform="translate(-36.556 -25.178)" fill="#fff"/>
    <path id="Path_8912" data-name="Path 8912" d="M298.294,77.45l.009.863-5.383,3.1v-.854Z" transform="translate(-163.352 -29.542)" fill="#fff"/>
    <path id="Path_8913" data-name="Path 8913" d="M298.293,83.224l-5.383,3.1v-.845l5.383-3.109Z" transform="translate(-163.333 -30.041)" fill="#fff"/>
    <path id="Path_8914" data-name="Path 8914" d="M298.3,79.953l-5.383,3.1V82.2L298.3,79.09Z" transform="translate(-163.352 -29.708)" fill="#fff"/>
    <path id="Path_8915" data-name="Path 8915" d="M298.293,81.584l-5.383,3.1v-.845l5.374-3.109Z" transform="translate(-163.333 -29.874)" fill="#fff"/>
    <path id="Path_8916" data-name="Path 8916" d="M213.853,69.366l77.89-44.93a1.591,1.591,0,0,1,1.582-.162h0l5.823,4.178h0a1.581,1.581,0,0,0-1.564.162l-77.89,44.975a4.628,4.628,0,0,0-1.7,1.905l-6.155-3.549a4.888,4.888,0,0,1,2.013-2.579Z" transform="translate(-91.339 -24.135)" fill="#1e2e72"/>
    <path id="Path_8917" data-name="Path 8917" d="M308.072,80.853a4.395,4.395,0,0,0-.521,1.941l.306,31.8a1.572,1.572,0,0,0,.611,1.4h0l-5.895-4.223h0a1.627,1.627,0,0,1-.557-1.357l-.306-31.81a3.845,3.845,0,0,1,.243-1.267Z" transform="translate(-181.415 -29.531)" fill="#263238"/>
    <path id="Path_8918" data-name="Path 8918" d="M347.929,225.356l77.89-44.93a1.59,1.59,0,0,1,1.581-.162h0l5.823,4.178h0a1.582,1.582,0,0,0-1.564.162l-77.89,44.975a4.906,4.906,0,0,0-2.219,3.846l.305,106.411a1.555,1.555,0,0,0,.62,1.4h0l-5.895-4.223h0a1.617,1.617,0,0,1-.566-1.366l-.306-106.411A4.906,4.906,0,0,1,347.929,225.356Z" transform="translate(-345.71 -39.954)" fill="#2843b4"/>
    <path id="Path_8919" data-name="Path 8919" d="M344.936,340.268l-.306-106.411a4.906,4.906,0,0,1,2.219-3.846l77.89-44.975a1.581,1.581,0,0,1,1.564-.162,1.546,1.546,0,0,1,.665,1.438l.306,106.42a4.906,4.906,0,0,1-2.22,3.846l-77.89,44.93a1.519,1.519,0,0,1-1.608.126,1.555,1.555,0,0,1-.62-1.366Z" transform="translate(-338.789 -40.422)" fill="#2843b4"/>
    <g id="Group_7176" data-name="Group 7176" transform="translate(5.841 163.198)" opacity="0.3">
      <path id="Path_8920" data-name="Path 8920" d="M385.5,232.133a4.906,4.906,0,0,0-2.22,3.846v6.65l47.913-27.668V205.75Z" transform="translate(-383.28 -205.75)"/>
    </g>
    <path id="Path_8921" data-name="Path 8921" d="M428.48,315.468h0l.53-.908.979.566-.979-.566Z" transform="translate(-416.852 -53.586)" fill="none"/>
    <path id="Path_8922" data-name="Path 8922" d="M428.55,289.6h0l.521-.917.988.566-.988-.566Z" transform="translate(-416.985 -50.962)" fill="none"/>
    <path id="Path_8923" data-name="Path 8923" d="M426.9,276.96l.53.306-.53-.306Z" transform="translate(-412.873 -49.774)" fill="none"/>
    <path id="Path_8924" data-name="Path 8924" d="M379.74,278.562l1.51-2.606-.53-.3.53.3-1.51,2.606Z" transform="translate(-324.315 -49.642)" fill="none"/>
    <path id="Path_8925" data-name="Path 8925" d="M426.71,344.89l.359-.62.53.306-.53-.306Z" transform="translate(-412.872 -56.599)" fill="none"/>
    <path id="Path_8926" data-name="Path 8926" d="M426.8,315l.979-1.7.53.3-.53-.3Z" transform="translate(-413.663 -53.459)" fill="none"/>
    <path id="Path_8927" data-name="Path 8927" d="M382.2,286.11l-.979,1.707-.988-.575-.521.917h0l.521-.917.988.575.979-1.707.53.306h0Z" transform="translate(-325.768 -50.701)" fill="none"/>
    <rect id="Rectangle_2876" data-name="Rectangle 2876" height="0.611" transform="translate(56.629 212)" fill="none"/>
    <path id="Path_8928" data-name="Path 8928" d="M381.3,319.258h0l.521-.908.988.566-.988-.566Z" transform="translate(-327.277 -53.971)" fill="none"/>
    <path id="Path_8929" data-name="Path 8929" d="M380.581,317.387l-.53-.3h0l.53.3-.961,1.653Z" transform="translate(-323.539 -53.843)" fill="none"/>
    <path id="Path_8930" data-name="Path 8930" d="M428.911,345.539l-.521.908.521-.917.988.575h0Z" transform="translate(-416.681 -56.727)" fill="none"/>
    <path id="Path_8931" data-name="Path 8931" d="M427.4,287.726h0l-.521-.306Z" transform="translate(-412.826 -50.834)" fill="none"/>
    <path id="Path_8932" data-name="Path 8932" d="M428.62,264.68l.988.557-.988-.557Z" transform="translate(-416.597 -48.528)" fill="none"/>
    <path id="Path_8933" data-name="Path 8933" d="M348.55,268.384l5.463-3.154.018,6.641-5.463,3.154Z" transform="translate(-269.07 -48.584)" fill="#fff"/>
    <path id="Path_8934" data-name="Path 8934" d="M348.58,257.924l5.463-3.154.018,6.641-5.463,3.154Z" transform="translate(-269.126 -47.523)" fill="#fff"/>
    <path id="Path_8935" data-name="Path 8935" d="M348.76,205.821l26.706-15.411.009,3.046-26.715,15.42Z" transform="translate(-290.702 -40.997)" fill="#fff"/>
    <path id="Path_8936" data-name="Path 8936" d="M426.94,265.451l.521-.9.988.557.979-1.689.53.288-1.51,2.606Z" transform="translate(-415.438 -48.4)" fill="#fff"/>
    <path id="Path_8937" data-name="Path 8937" d="M348.62,242.5l5.472-3.154.018,6.641-5.463,3.163Z" transform="translate(-269.211 -45.96)" fill="#fff"/>
    <path id="Path_8938" data-name="Path 8938" d="M348.65,232.044l5.472-3.154.018,6.641-5.472,3.163Z" transform="translate(-269.268 -44.899)" fill="#fff"/>
    <path id="Path_8939" data-name="Path 8939" d="M416.839,215.33l.018,6.65-68.149,39.34-.018-6.641Z" transform="translate(-332.021 -43.524)" fill="#2843b4"/>
    <path id="Path_8940" data-name="Path 8940" d="M431.863,265.761l-7.333,4.232v-6.641l7.333-4.232Zm-2.7-2.777-.979,1.689-.988-.557h0l-.521.9,1.51.9,1.51-2.606Z" transform="translate(-415.176 -47.964)" fill="#2843b4"/>
    <path id="Path_8941" data-name="Path 8941" d="M416.869,204.32l.018,6.641L348.738,250.31l-.018-6.641Z" transform="translate(-332.078 -42.407)" fill="#2843b4"/>
    <path id="Path_8942" data-name="Path 8942" d="M426.97,254.439l.521-.908.988.557.979-1.7.53.306-1.51,2.6Z" transform="translate(-415.495 -47.282)" fill="#fff"/>
    <path id="Path_8943" data-name="Path 8943" d="M431.893,254.751l-7.333,4.232v-6.641l7.333-4.232Zm-2.7-2.795-.979,1.7-.988-.557-.521.9,1.51.9,1.483-2.633Z" transform="translate(-415.233 -46.848)" fill="#2843b4"/>
    <path id="Path_8944" data-name="Path 8944" d="M379.81,251.82l.521-.908.988.566.979-1.7.53.3-1.51,2.606Z" transform="translate(-325.957 -47.017)" fill="#fff"/>
    <path id="Path_8945" data-name="Path 8945" d="M377.4,256.363v-6.641l7.332-4.232v6.641Zm4.637-7.018-.979,1.7-.988-.566-.521.9,1.51.9,1.51-2.606Z" transform="translate(-325.695 -46.582)" fill="#2843b4"/>
    <path id="Path_8946" data-name="Path 8946" d="M375.4,251.291l-17.585,10.154h0L357.8,254.8l17.585-10.154Z" transform="translate(-298.754 -46.497)" fill="#2843b4"/>
    <path id="Path_8947" data-name="Path 8947" d="M357.83,244.344l17.585-10.154.018,6.65-17.586,10.145Z" transform="translate(-298.81 -45.436)" fill="#2843b4"/>
    <path id="Path_8948" data-name="Path 8948" d="M381.3,263.142l-1.51-.863.521-.908.988.557.979-1.689.521.3Z" transform="translate(-325.91 -48.078)" fill="#fff"/>
    <path id="Path_8949" data-name="Path 8949" d="M384.7,262.6l-7.333,4.232v-6.641L384.685,256h0v6.641Zm-2.7-2.786h0l-.979,1.689-.988-.557-.521.9,1.51.9,1.5-2.606h0Z" transform="translate(-325.638 -47.648)" fill="#2843b4"/>
    <path id="Path_8950" data-name="Path 8950" d="M431.792,289.781l-7.333,4.232v-6.641l7.333-4.232Zm-2.175-2.489-.521-.306-.979,1.7-.988-.566-.521.9h0l1.51.9,1.5-2.606Z" transform="translate(-415.043 -50.4)" fill="#2843b4"/>
    <path id="Path_8951" data-name="Path 8951" d="M431.753,305.251l-7.333,4.232v-6.641l7.333-4.232Zm-2.7-2.786-.979,1.7-.979-.566-.53.9,1.51.9,1.51-2.606Z" transform="translate(-414.967 -51.969)" fill="#2843b4"/>
    <path id="Path_8952" data-name="Path 8952" d="M431.723,315.659l-7.333,4.232v-6.65L431.7,309Zm-2.7-2.795-.979,1.7-.988-.566-.521.9h0l1.51.9,1.51-2.6Z" transform="translate(-414.91 -53.023)" fill="#2843b4"/>
    <path id="Path_8953" data-name="Path 8953" d="M422.405,297.71l.018,6.65-17.585,10.154h0l-.018-6.65Z" transform="translate(-388.025 -51.878)" fill="#2843b4"/>
    <path id="Path_8954" data-name="Path 8954" d="M422.435,287.26l.018,6.641-17.585,10.154-.018-6.641Z" transform="translate(-388.082 -50.818)" fill="#2843b4"/>
    <path id="Path_8955" data-name="Path 8955" d="M422.484,271.84l.018,6.641-17.585,10.154-.027-6.641Z" transform="translate(-388.167 -49.254)" fill="#2843b4"/>
    <path id="Path_8956" data-name="Path 8956" d="M422.505,261.38l.018,6.641-17.585,10.154-.018-6.641Z" transform="translate(-388.215 -48.194)" fill="#2843b4"/>
    <path id="Path_8957" data-name="Path 8957" d="M426.9,279.009l.521-.908.988.566.979-1.707.53.306-1.51,2.606Z" transform="translate(-415.362 -49.774)" fill="#fff"/>
    <path id="Path_8958" data-name="Path 8958" d="M431.843,272.68v6.641l-7.333,4.232v-6.641Zm-2.7,3.846h0l-.979,1.707-.988-.566-.521.9,1.51.9,1.51-2.606Z" transform="translate(-415.138 -49.339)" fill="#2843b4"/>
    <path id="Path_8959" data-name="Path 8959" d="M401.2,273.181l-5.472,3.154-.018-6.641,5.472-3.154Z" transform="translate(-358.616 -48.717)" fill="#fff"/>
    <path id="Path_8960" data-name="Path 8960" d="M395.74,259.234l5.472-3.154.018,6.641-5.463,3.163Z" transform="translate(-358.673 -47.656)" fill="#fff"/>
    <path id="Path_8961" data-name="Path 8961" d="M428.39,290.331l-1.51-.863h0l.521-.917.988.566.979-1.7.521.306h0Z" transform="translate(-415.315 -50.834)" fill="#fff"/>
    <path id="Path_8962" data-name="Path 8962" d="M375.363,266.711l-17.585,10.154h0l-.018-6.641,17.585-10.154Z" transform="translate(-298.678 -48.061)" fill="#2843b4"/>
    <path id="Path_8963" data-name="Path 8963" d="M384.663,278.011l-7.333,4.232V275.6l7.333-4.232Zm-2.7-2.786-.979,1.7-.979-.566-.53.9,1.51.9h0l1.51-2.606Z" transform="translate(-325.562 -49.207)" fill="#2843b4"/>
    <path id="Path_8964" data-name="Path 8964" d="M381.25,278.562h0l-1.51-.863.53-.908.979.566.979-1.7.53.3Z" transform="translate(-325.824 -49.642)" fill="#fff"/>
    <path id="Path_8965" data-name="Path 8965" d="M381.22,287.817l.979-1.707.53.306-1.51,2.606-1.51-.863.521-.917Z" transform="translate(-325.768 -50.701)" fill="#fff"/>
    <path id="Path_8966" data-name="Path 8966" d="M384.633,288.471h0L377.3,292.7v-6.641l7.333-4.232h0Zm-2.7-2.795-.979,1.707-.988-.575-.521.9h0l1.51.9,1.51-2.606h0Z" transform="translate(-325.505 -50.267)" fill="#2843b4"/>
    <path id="Path_8967" data-name="Path 8967" d="M359.158,295.865l-.018-6.641,5.463-3.154.018,6.641Z" transform="translate(-289.176 -50.697)" fill="#fff"/>
    <path id="Path_8968" data-name="Path 8968" d="M375.333,277.171l-17.585,10.154h0l-.018-6.641h0l17.585-10.154Z" transform="translate(-298.621 -49.121)" fill="#2843b4"/>
    <path id="Path_8969" data-name="Path 8969" d="M348.46,311.117h0L374.294,296.2l.018,6.641-25.835,14.917-.018-6.641Z" transform="translate(-289.27 -51.725)" fill="#2843b4"/>
    <path id="Path_8970" data-name="Path 8970" d="M381.678,319.04l-.548.953-1.51-.863.521-.908.988.566.979-1.7.53.3Z" transform="translate(-325.597 -53.843)" fill="#fff"/>
    <path id="Path_8971" data-name="Path 8971" d="M384.563,312.8v6.641h0l-7.333,4.232v-6.641Zm-2.7,3.855h0l-.961,1.716-.988-.566-.521.9h0l1.51.9.548-.952.961-1.653Z" transform="translate(-325.372 -53.408)" fill="#2843b4"/>
    <path id="Path_8972" data-name="Path 8972" d="M395.55,338.307l25.835-14.917.018,6.641-25.835,14.917h0Z" transform="translate(-378.674 -54.482)" fill="#2843b4"/>
    <path id="Path_8973" data-name="Path 8973" d="M416.839,215.33l.018,6.65-68.149,39.34-.018-6.641Z" transform="translate(-332.021 -43.524)" opacity="0.3"/>
    <path id="Path_8974" data-name="Path 8974" d="M416.869,204.32l.018,6.641L348.738,250.31l-.018-6.641Z" transform="translate(-332.078 -42.407)" opacity="0.3"/>
    <path id="Path_8975" data-name="Path 8975" d="M375.4,251.291l-17.585,10.154h0L357.8,254.8l17.585-10.154Z" transform="translate(-298.754 -46.497)" opacity="0.3"/>
    <path id="Path_8976" data-name="Path 8976" d="M357.83,244.344l17.585-10.154.018,6.65-17.586,10.145Z" transform="translate(-298.81 -45.436)" opacity="0.3"/>
    <path id="Path_8977" data-name="Path 8977" d="M422.405,297.71l.018,6.65-17.585,10.154h0l-.018-6.65Z" transform="translate(-388.025 -51.878)" opacity="0.3"/>
    <path id="Path_8978" data-name="Path 8978" d="M422.435,287.26l.018,6.641-17.585,10.154-.018-6.641Z" transform="translate(-388.082 -50.818)" opacity="0.3"/>
    <path id="Path_8979" data-name="Path 8979" d="M422.484,271.84l.018,6.641-17.585,10.154-.027-6.641Z" transform="translate(-388.167 -49.254)" opacity="0.3"/>
    <path id="Path_8980" data-name="Path 8980" d="M422.505,261.38l.018,6.641-17.585,10.154-.018-6.641Z" transform="translate(-388.215 -48.194)" opacity="0.3"/>
    <path id="Path_8981" data-name="Path 8981" d="M375.363,266.711l-17.585,10.154h0l-.018-6.641,17.585-10.154Z" transform="translate(-298.678 -48.061)" opacity="0.3"/>
    <path id="Path_8982" data-name="Path 8982" d="M375.333,277.171l-17.585,10.154h0l-.018-6.641h0l17.585-10.154Z" transform="translate(-298.621 -49.121)" opacity="0.3"/>
    <path id="Path_8983" data-name="Path 8983" d="M348.46,311.117h0L374.294,296.2l.018,6.641-25.835,14.917-.018-6.641Z" transform="translate(-289.27 -51.725)" opacity="0.3"/>
    <path id="Path_8984" data-name="Path 8984" d="M395.55,338.307l25.835-14.917.018,6.641-25.835,14.917h0Z" transform="translate(-378.674 -54.482)" opacity="0.3"/>
    <path id="Path_8985" data-name="Path 8985" d="M431.653,340v6.641h0l-7.332,4.232v-6.641Zm-2.7,3.846-.359.62-.62,1.087-.988-.575-.521.9,1.51.9,1.51-2.606Z" transform="translate(-414.777 -56.166)" fill="#2843b4"/>
    <path id="Path_8986" data-name="Path 8986" d="M431.863,265.761l-7.333,4.232v-6.641l7.333-4.232Zm-2.7-2.777-.979,1.689-.988-.557h0l-.521.9,1.51.9,1.51-2.606Z" transform="translate(-415.176 -47.964)" opacity="0.4"/>
    <path id="Path_8987" data-name="Path 8987" d="M431.893,254.751l-7.333,4.232v-6.641l7.333-4.232Zm-2.7-2.795-.979,1.7-.988-.557-.521.9,1.51.9,1.483-2.633Z" transform="translate(-415.233 -46.848)" opacity="0.4"/>
    <path id="Path_8988" data-name="Path 8988" d="M377.4,256.363v-6.641l7.332-4.232v6.641Zm4.637-7.018-.979,1.7-.988-.566-.521.9,1.51.9,1.51-2.606Z" transform="translate(-325.695 -46.582)" opacity="0.4"/>
    <path id="Path_8989" data-name="Path 8989" d="M384.7,262.6l-7.333,4.232v-6.641L384.685,256h0v6.641Zm-2.7-2.786h0l-.979,1.689-.988-.557-.521.9,1.51.9,1.5-2.606h0Z" transform="translate(-325.638 -47.648)" opacity="0.4"/>
    <path id="Path_8990" data-name="Path 8990" d="M431.792,289.781l-7.333,4.232v-6.641l7.333-4.232Zm-2.175-2.489-.521-.306-.979,1.7-.988-.566-.521.9h0l1.51.9,1.5-2.606Z" transform="translate(-415.043 -50.4)" opacity="0.4"/>
    <path id="Path_8991" data-name="Path 8991" d="M431.753,305.251l-7.333,4.232v-6.641l7.333-4.232Zm-2.7-2.786-.979,1.7-.979-.566-.53.9,1.51.9,1.51-2.606Z" transform="translate(-414.967 -51.969)" opacity="0.4"/>
    <path id="Path_8992" data-name="Path 8992" d="M431.723,315.659l-7.333,4.232v-6.65L431.7,309Zm-2.7-2.795-.979,1.7-.988-.566-.521.9h0l1.51.9,1.51-2.6Z" transform="translate(-414.91 -53.023)" opacity="0.4"/>
    <path id="Path_8993" data-name="Path 8993" d="M431.843,272.68v6.641l-7.333,4.232v-6.641Zm-2.7,3.846h0l-.979,1.707-.988-.566-.521.9,1.51.9,1.51-2.606Z" transform="translate(-415.138 -49.339)" opacity="0.4"/>
    <path id="Path_8994" data-name="Path 8994" d="M384.663,278.011l-7.333,4.232V275.6l7.333-4.232Zm-2.7-2.786-.979,1.7-.979-.566-.53.9,1.51.9h0l1.51-2.606Z" transform="translate(-325.562 -49.207)" opacity="0.4"/>
    <path id="Path_8995" data-name="Path 8995" d="M384.633,288.471h0L377.3,292.7v-6.641l7.333-4.232h0Zm-2.7-2.795-.979,1.707-.988-.575-.521.9h0l1.51.9,1.51-2.606h0Z" transform="translate(-325.505 -50.267)" opacity="0.4"/>
    <path id="Path_8996" data-name="Path 8996" d="M384.563,312.8v6.641h0l-7.333,4.232v-6.641Zm-2.7,3.855h0l-.961,1.716-.988-.566-.521.9h0l1.51.9.548-.952.961-1.653Z" transform="translate(-325.372 -53.408)" opacity="0.4"/>
    <path id="Path_8997" data-name="Path 8997" d="M431.653,340v6.641h0l-7.332,4.232v-6.641Zm-2.7,3.846-.359.62-.62,1.087-.988-.575-.521.9,1.51.9,1.51-2.606Z" transform="translate(-414.777 -56.166)" opacity="0.4"/>
    <path id="Path_8998" data-name="Path 8998" d="M426.71,346.319l.521-.908.988.566h0l.62-1.087.359-.62.53.306-1.51,2.606Z" transform="translate(-415.001 -56.599)" fill="#fff"/>
    <path id="Path_8999" data-name="Path 8999" d="M401.121,299.06l-5.463,3.154-.018-6.641,5.463-3.163Z" transform="translate(-358.474 -51.34)" fill="#fff"/>
    <path id="Path_9000" data-name="Path 9000" d="M401.151,288.6l-5.463,3.154-.018-6.641,5.463-3.163Z" transform="translate(-358.531 -50.28)" fill="#fff"/>
    <path id="Path_9001" data-name="Path 9001" d="M426.83,304.89l.521-.908.988.566.979-1.7.53.3-1.5,2.606Z" transform="translate(-415.229 -52.399)" fill="#fff"/>
    <path id="Path_9002" data-name="Path 9002" d="M426.8,315.34h0l.53-.908.979.566.979-1.7.53.3-1.51,2.606Z" transform="translate(-415.172 -53.459)" fill="#fff"/>
    <path id="Path_9003" data-name="Path 9003" d="M348.5,283.084l5.463-3.154.027,6.641-5.472,3.154Z" transform="translate(-268.984 -50.075)" fill="#fff"/>
    <path id="Path_9004" data-name="Path 9004" d="M388.561,306.531l-5.464,3.154-.018-6.641,5.463-3.154Z" transform="translate(-334.628 -52.099)" fill="#fff"/>
    <path id="Path_9005" data-name="Path 9005" d="M399.19,312.661l-5.472,3.163-.018-6.641,5.472-3.163Z" transform="translate(-354.8 -52.72)" fill="#fff"/>
    <path id="Path_9006" data-name="Path 9006" d="M421.253,318.77l.018,6.65-5.463,3.154-.018-6.641Z" transform="translate(-396.731 -54.013)" fill="#fff"/>
    <path id="Path_9007" data-name="Path 9007" d="M431.909,331.551l-5.481,3.163-.018-6.641,5.472-3.163Z" transform="translate(-416.912 -54.636)" fill="#fff"/>
    <path id="Path_9008" data-name="Path 9008" d="M432.173,233.44v.863l-5.383,3.1v-.854Z" transform="translate(-417.517 -45.36)" fill="#fff"/>
    <path id="Path_9009" data-name="Path 9009" d="M432.163,239.214l-5.374,3.1-.009-.854,5.383-3.1Z" transform="translate(-417.498 -45.859)" fill="#fff"/>
    <path id="Path_9010" data-name="Path 9010" d="M432.173,235.943l-5.374,3.1-.009-.854,5.383-3.109Z" transform="translate(-417.517 -45.527)" fill="#fff"/>
    <path id="Path_9011" data-name="Path 9011" d="M432.163,237.574l-5.383,3.1v-.845l5.383-3.109Z" transform="translate(-417.498 -45.693)" fill="#fff"/>
    <path id="Path_9012" data-name="Path 9012" d="M347.687,225.356l77.89-44.93a1.59,1.59,0,0,1,1.581-.162h0l5.823,4.178h0a1.582,1.582,0,0,0-1.564.162l-77.89,44.975a4.574,4.574,0,0,0-1.7,1.905l-6.119-3.514A4.889,4.889,0,0,1,347.687,225.356Z" transform="translate(-345.467 -39.954)" fill="#fff" opacity="0.3"/>
    <path id="Path_9013" data-name="Path 9013" d="M441.912,236.843a4.4,4.4,0,0,0-.521,1.941L441.7,345.2a1.555,1.555,0,0,0,.62,1.4h0l-5.895-4.223h0a1.617,1.617,0,0,1-.566-1.366L435.55,234.6a3.845,3.845,0,0,1,.243-1.267Z" transform="translate(-435.532 -45.349)" fill="#fff" opacity="0.2"/>
    <path id="Path_9014" data-name="Path 9014" d="M284.64,277.013l.009,3.792,42.5-25.062-.009-3.783Z" transform="translate(-184.761 -47.238)" fill="#37474f"/>
    <path id="Path_9015" data-name="Path 9015" d="M284.68,256.8l.009,3.783,31.774-18.852-.009-3.792Z" transform="translate(-174.108 -45.817)" fill="#37474f"/>
    <path id="Path_9016" data-name="Path 9016" d="M284.66,281.141l.009,3.783,60.781-35.6-.009-3.792Z" transform="translate(-203.077 -46.586)" fill="#37474f"/>
    <path id="Path_9017" data-name="Path 9017" d="M284.7,267.122l.018,3.783,60.772-35.611-.009-3.774Z" transform="translate(-203.153 -45.166)" fill="#37474f"/>
  </g>
  <g id="freepik--character-1--inject-32" transform="translate(242.777 50.46)">
    <path id="Path_9018" data-name="Path 9018" d="M133.63,133.231s-.638-2.7,1.06-3.073c0,0-1.465-3.091.386-3.7s4.187,5.571,6.9,8.087c.494.557,3.666,3.424,4.089,2.5h0l4.358,1.68a8.357,8.357,0,0,0,1.231,3.487c4.673,7.117,10,10.549,13.982,15.618l3.864-3.747,7.35,10.217-7.189,5.392a8.087,8.087,0,0,1-11.511-1.959l-13.281-19.769a6.946,6.946,0,0,0-2.2-2.076c-2.112-1.249-6.182-3.783-7.683-5.634C132.875,137.769,132.624,135.028,133.63,133.231Z" transform="translate(-102.395 -84.967)" fill="#ffc3c2"/>
    <path id="Path_9019" data-name="Path 9019" d="M139.178,137.849c-7.359-.323-17.343,11.61-22.968,17.235.431,6.883,7.836,11.4,7.836,11.4a159.753,159.753,0,0,0,15.132-11.834Z" transform="translate(-49.579 -86.126)" fill="#2843b4"/>
    <path id="Path_9020" data-name="Path 9020" d="M139.178,137.849c-7.359-.323-17.343,11.61-22.968,17.235.431,6.883,7.836,11.4,7.836,11.4a159.753,159.753,0,0,0,15.132-11.834Z" transform="translate(-49.579 -86.126)" fill="#fff" opacity="0.3"/>
    <path id="Path_9021" data-name="Path 9021" d="M168.738,80.29,145.86,129.3l40.068,10.855,22.887-49.009Z" transform="translate(-145.86 -80.29)" fill="#2843b4"/>
    <g id="Group_7177" data-name="Group 7177" transform="translate(0 0)" opacity="0.3">
      <path id="Path_9022" data-name="Path 9022" d="M168.738,80.29,145.86,129.3l40.068,10.855,22.887-49.009Z" transform="translate(-145.86 -80.29)" fill="#fff"/>
    </g>
    <path id="Path_9023" data-name="Path 9023" d="M184.056,119.058l-.575,1.24a1.8,1.8,0,0,0,.548,1.357,2.768,2.768,0,0,0,3.451.5,4.906,4.906,0,0,0,1.069-.9,4.089,4.089,0,0,0,.782,1.671,2.884,2.884,0,0,0,1.59,1.015,4.214,4.214,0,0,0,3.316-.521l.422-.27a9.1,9.1,0,0,0,3.055-3.8,7.081,7.081,0,0,0,.836-4.394,3.1,3.1,0,0,0-2.489-2.372,6.066,6.066,0,0,0-1.617-.18,4.754,4.754,0,0,0-1.555.279l2.4-5.131a4.978,4.978,0,0,1,1.528-2.094l.135-.09a1.95,1.95,0,0,1,1.5-.225,1.366,1.366,0,0,1,1.042.979,1.68,1.68,0,0,0-.566.216,2.219,2.219,0,0,0-.5.386,4.079,4.079,0,0,0-.818,1.2,3.477,3.477,0,0,0-.377,2.166,1.411,1.411,0,0,0,1.069,1.15,2.094,2.094,0,0,0,1.6-.252c.1-.054.2-.126.3-.189a5.221,5.221,0,0,0,1.591-2.049,6.065,6.065,0,0,0,.6-2.7,3.864,3.864,0,0,0-.9-2.426,5.032,5.032,0,0,0-2.7-1.537,5.392,5.392,0,0,0-4.268.467l-.144.09a9.489,9.489,0,0,0-3.388,4.241l-4.781,10.235a3.666,3.666,0,0,1-1.357,1.689,1.878,1.878,0,0,1-.8.243Zm6.092.97a1.582,1.582,0,0,1-.4-.6l1.8-3.747a3.424,3.424,0,0,1,.9-.288,2.076,2.076,0,0,1,.818,0,1.1,1.1,0,0,1,.809.988,3.7,3.7,0,0,1-.467,2.067,4,4,0,0,1-1.24,1.6,1.9,1.9,0,0,1-.243.162,1.635,1.635,0,0,1-1.258.2,1.33,1.33,0,0,1-.638-.377" transform="translate(-173.237 -82.476)" fill="#fff"/>
    <path id="Path_9024" data-name="Path 9024" d="M163.059,123.429a3.864,3.864,0,0,0-.108,1.24l6.659,1.8a5.094,5.094,0,0,0,.9-1.006,7.189,7.189,0,0,0,.782-1.3c-.9-.261-1.114-1-.53-2.237a14.458,14.458,0,0,1,1.015-1.8l.53-.773,5.5,1.5-.234.845a11.4,11.4,0,0,1-.575,1.8,3.01,3.01,0,0,1-1.123,1.4,1.716,1.716,0,0,1-1.357.144,6.522,6.522,0,0,0-.485,1.384,3.864,3.864,0,0,0-.108,1.24l5.472,1.483a4.871,4.871,0,0,0,.944-1.006,7.782,7.782,0,0,0,.782-1.312,1.366,1.366,0,0,1-.953-.979,3.945,3.945,0,0,1,0-2.094l4.7-19.769a5.823,5.823,0,0,1,2.7.171,6.38,6.38,0,0,0,.71-2.947l-6.73-1.8-14.782,20.668a5.715,5.715,0,0,1-1.734,1.7,2.1,2.1,0,0,1-1.582.359,6.479,6.479,0,0,0-.386,1.294Zm15.653-5.724-4.43-1.2,6.218-9.1a13.784,13.784,0,0,1,1.492-1.8l-3.28,12.122" transform="translate(-140.666 -82.229)" fill="#fff"/>
    <path id="Path_9025" data-name="Path 9025" d="M109.62,312.13c.135,3.127,0,6.8,0,6.8l1.8.1a4.4,4.4,0,0,1,3.9,2.9v.117a1.716,1.716,0,0,0,2.121,1.051h0a1.707,1.707,0,0,0,1.033-.9l.9-7.854Z" transform="translate(-23.849 -103.8)" fill="#ffc3c2"/>
    <path id="Path_9026" data-name="Path 9026" d="M124.828,341.319c-4.763,2.04-12.05,2.435-15.078-2.426v1.312c3.028,4.861,10.316,4.493,15.078,2.435s3.72-5.392,7.988-7.189a11.529,11.529,0,0,0,4.169-2.633,14.186,14.186,0,0,1,.144-1.429,14.378,14.378,0,0,1-4.313,2.741C128.549,335.964,129.591,339.289,124.828,341.319Z" transform="translate(-41.727 -105.753)" fill="#37474f"/>
    <path id="Path_9027" data-name="Path 9027" d="M136.859,325.927a6.973,6.973,0,0,1,0-2.813,1.492,1.492,0,0,0-.216-1.24l-.359-.35-.171,1.447a1.707,1.707,0,0,1-3.154-.153V322.7a4.4,4.4,0,0,0-3.9-2.9l-1.8-.1a1.339,1.339,0,0,0-1.3.818c-1.905,4.583-6.677,9.678-10.361,12.005-2.7-.063-6.057,2.184-6.057,4.915v.27c3.028,4.861,10.316,4.493,15.078,2.426s3.72-5.392,7.988-7.144a14.378,14.378,0,0,0,4.313-2.741A15.276,15.276,0,0,0,136.859,325.927Z" transform="translate(-41.456 -104.568)" fill="#2843b4"/>
    <path id="Path_9028" data-name="Path 9028" d="M125.049,330.419a.6.6,0,0,0,.9-.728,6.919,6.919,0,0,0-6.218-2.7,10.986,10.986,0,0,1-.782.9A6.65,6.65,0,0,1,125.049,330.419Z" transform="translate(-38.856 -105.304)" fill="#fff"/>
    <path id="Path_9029" data-name="Path 9029" d="M122.994,328.064a.584.584,0,0,0,.836.081.6.6,0,0,0,.1-.836,7.252,7.252,0,0,0-6.488-2.8c-.225.341-.467.683-.71,1.015A6.721,6.721,0,0,1,122.994,328.064Z" transform="translate(-34.923 -105.052)" fill="#fff"/>
    <path id="Path_9030" data-name="Path 9030" d="M127,332.7a.611.611,0,0,0,.845.081.6.6,0,0,0,.1-.836,6.883,6.883,0,0,0-6.057-2.741c-.306.323-.62.629-.9.9A6.65,6.65,0,0,1,127,332.7Z" transform="translate(-42.768 -105.53)" fill="#fff"/>
    <path id="Path_9031" data-name="Path 9031" d="M129.737,334c-2.7-.063-6.057,2.184-6.057,4.915v.27c2.983,4.789,10.1,4.493,14.863,2.516C138.174,335.132,131.893,333.946,129.737,334Z" transform="translate(-55.657 -106.018)" fill="#fff"/>
    <path id="Path_9032" data-name="Path 9032" d="M129.488,334.883a.6.6,0,0,0,.845.081.611.611,0,0,0,.1-.836,6.928,6.928,0,0,0-6.074-2.741c-.377.341-.755.656-1.132.952A6.721,6.721,0,0,1,129.488,334.883Z" transform="translate(-47.258 -105.751)" fill="#fff"/>
    <path id="Path_9033" data-name="Path 9033" d="M81.45,318.57c.135,3.127,0,6.811,0,6.811l1.8.1a4.4,4.4,0,0,1,3.9,2.893v.117a1.707,1.707,0,0,0,2.121,1.051h0a1.7,1.7,0,0,0,1.033-.9l.9-7.854Z" transform="translate(29.634 -104.453)" fill="#ffc3c2"/>
    <path id="Path_9034" data-name="Path 9034" d="M96.658,347.768c-4.754,2.031-12.05,2.426-15.078-2.435v1.321c3.028,4.861,10.325,4.493,15.078,2.426s3.72-5.392,7.988-7.189a11.592,11.592,0,0,0,4.169-2.624c0-.386.081-.9.144-1.438a14.513,14.513,0,0,1-4.313,2.75C100.379,342.413,101.394,345.729,96.658,347.768Z" transform="translate(11.757 -106.407)" fill="#37474f"/>
    <path id="Path_9035" data-name="Path 9035" d="M108.689,332.368a6.91,6.91,0,0,1,0-2.8,1.5,1.5,0,0,0-.216-1.249l-.35-.35-.18,1.456a1.716,1.716,0,0,1-3.154-.162v-.117a4.4,4.4,0,0,0-3.9-2.894l-1.8-.1a1.312,1.312,0,0,0-1.3.818c-1.905,4.583-6.677,9.669-10.361,12.005-2.7-.063-6.057,2.175-6.057,4.906v.27c3.028,4.861,10.325,4.493,15.078,2.435s3.72-5.392,7.988-7.144a14.512,14.512,0,0,0,4.313-2.75A15.276,15.276,0,0,0,108.689,332.368Z" transform="translate(12.027 -105.222)" fill="#2843b4"/>
    <path id="Path_9036" data-name="Path 9036" d="M96.7,336.866a.611.611,0,0,0,.845.072.584.584,0,0,0,.1-.827,6.874,6.874,0,0,0-6.218-2.7c-.252.315-.512.62-.782.9a6.659,6.659,0,0,1,6.057,2.552Z" transform="translate(14.793 -105.955)" fill="#fff"/>
    <path id="Path_9037" data-name="Path 9037" d="M94.93,334.518a.6.6,0,0,0,.9-.755A7.252,7.252,0,0,0,89.376,331c-.225.341-.467.674-.71,1.015a6.721,6.721,0,0,1,6.263,2.507Z" transform="translate(18.455 -105.71)" fill="#fff"/>
    <path id="Path_9038" data-name="Path 9038" d="M98.822,339.152a.611.611,0,0,0,.845.072.6.6,0,0,0,.1-.836,6.883,6.883,0,0,0-6.057-2.741c-.306.324-.62.638-.9.944A6.614,6.614,0,0,1,98.822,339.152Z" transform="translate(10.734 -106.183)" fill="#fff"/>
    <path id="Path_9039" data-name="Path 9039" d="M101.567,340.42c-2.7-.063-6.057,2.175-6.057,4.906v.27c2.983,4.789,10.1,4.493,14.863,2.516C110,341.57,103.723,340.393,101.567,340.42Z" transform="translate(-2.173 -106.669)" fill="#fff"/>
    <path id="Path_9040" data-name="Path 9040" d="M101.475,341.332a.6.6,0,0,0,.9-.755,6.91,6.91,0,0,0-6.074-2.75c-.377.341-.755.656-1.132.962a6.721,6.721,0,0,1,6.308,2.543Z" transform="translate(6.069 -106.404)" fill="#fff"/>
    <path id="Path_9041" data-name="Path 9041" d="M77.382,202.18l.9,60.772,2.867,42.53c7.261,4.592,14.764.243,14.764.243,2.75-20.155,2.858-32.61,1.357-40.994l.9-32.448,1.411,33.535,6.847,42.98c7.449,4.834,15.546-.144,15.546-.144,0-15.447,1.582-33.805-2.7-44.93,3.01-34.434-2.067-60.889-2.067-60.889Z" transform="translate(2.233 -92.651)" fill="#37474f"/>
    <path id="Path_9042" data-name="Path 9042" d="M113.448,221.7l3.01,12.212-.431,15.671-4.493-25.25c-6.479-2.534-7.324-6.1-7.324-6.1a19.9,19.9,0,0,0,9.238,3.469Z" transform="translate(-16.076 -94.278)" opacity="0.3"/>
    <path id="Path_9043" data-name="Path 9043" d="M118.915,143.746c-10.532-4.942-18.43-5.517-27.039-5.886-12.886,8.294-8.087,15.2-7.845,26.284a153.238,153.238,0,0,1-3.972,36.2c16.885,13.479,39.233,10.316,44.337,7.081C123.192,174.424,124.639,146.073,118.915,143.746Z" transform="translate(-2.314 -86.128)" fill="#2843b4"/>
    <path id="Path_9044" data-name="Path 9044" d="M118.915,143.746c-10.532-4.942-18.43-5.517-27.039-5.886-12.886,8.294-8.087,15.2-7.845,26.284a153.238,153.238,0,0,1-3.972,36.2c16.885,13.479,39.233,10.316,44.337,7.081C123.192,174.424,124.639,146.073,118.915,143.746Z" transform="translate(-2.314 -86.128)" fill="#fff" opacity="0.6"/>
    <path id="Path_9045" data-name="Path 9045" d="M95.784,117.131a8.779,8.779,0,0,1-2.435-11.574,4.726,4.726,0,0,1-2.309-2.175,2.543,2.543,0,0,1,3.307-3.4,3.594,3.594,0,0,1,1.429-4.169,3.37,3.37,0,0,1,4.205.773,2.282,2.282,0,0,1,1.564-2.246,4.7,4.7,0,0,1,2.911.18c.9.324,1.8.791,2.759,1.087a21.889,21.889,0,0,0,4.969.638,10.01,10.01,0,0,1,4.789,1.276c1.4.9,2.642,3.028,1.887,4.861a2.768,2.768,0,0,1,1.995-1.06,2.7,2.7,0,0,1,2.04.9c-1.042.647-2.058,1.339-3.1,1.986a2.831,2.831,0,0,1,3.19,1.276,6.362,6.362,0,0,1,.557,3.361,44.929,44.929,0,0,1-2.309,12.877c-.71,2.148-2.7,5.8-4.727,6.784Z" transform="translate(-11.154 -81.7)" fill="#263238"/>
    <path id="Path_9046" data-name="Path 9046" d="M91.393,107.11a11.107,11.107,0,0,0,7.377,3.1,29.392,29.392,0,0,0,7.62-1.51,5.787,5.787,0,0,0,1.716,3.172,6.614,6.614,0,0,0,3.594,1.546,22.761,22.761,0,0,0,0,7.072,1.321,1.321,0,0,0,.9,1.087c.845.252,1.4-.611,1.8-1.312a5.643,5.643,0,0,1,1.8-2.04,2.831,2.831,0,0,1,2.642-.27,2.75,2.75,0,0,1,1.393,1.7,5.077,5.077,0,0,1,.108,2.237,6.721,6.721,0,0,1-1.456,3.424,4.619,4.619,0,0,1-3.253,1.68,3.352,3.352,0,0,1-3.136-1.546l-.054.234a8.986,8.986,0,0,1-.341,1.087,9.363,9.363,0,0,1-6.838,5.859c-1.591.332-3.352.647-5.149.9-.9.135-1.8.261-2.7.368a6.4,6.4,0,0,1-7.072-5.239C89.2,121.847,88.8,113.876,91.393,107.11Z" transform="translate(-6.772 -83.01)" fill="#ffc3c2"/>
    <path id="Path_9047" data-name="Path 9047" d="M112.639,129v11.915a13.155,13.155,0,0,1-9.588,5.311,4.7,4.7,0,0,1-3.442-.9,2.786,2.786,0,0,1,.35-4.421,1.528,1.528,0,0,0,.692-1.276v-3.873c1.8-.27,3.594-.584,5.149-.9A9.363,9.363,0,0,0,112.639,129Z" transform="translate(-7.288 -85.23)" fill="#ffc3c2"/>
    <path id="Path_9048" data-name="Path 9048" d="M102.966,137.534a26.2,26.2,0,0,1-4.026.71v-2.417c1.8-.27,3.594-.584,5.149-.9a9.336,9.336,0,0,0,6.6-5.338,9.57,9.57,0,0,1-2.408,4.978,11.484,11.484,0,0,1-5.32,2.965Z" transform="translate(-5.576 -85.289)" fill="#ffa8a7"/>
    <path id="Path_9049" data-name="Path 9049" d="M119.5,118.44l-4.376,5.293,4.017,1.42Z" transform="translate(-28.918 -84.159)" fill="#ffa8a7"/>
    <path id="Path_9050" data-name="Path 9050" d="M110.658,119.045a1.2,1.2,0,1,1-.353-.848,1.2,1.2,0,0,1,.353.848Z" transform="translate(-13.907 -84.099)" fill="#263238"/>
    <path id="Path_9051" data-name="Path 9051" d="M121.869,118.672a1.2,1.2,0,1,1-.568-1.129A1.2,1.2,0,0,1,121.869,118.672Z" transform="translate(-35.2 -84.05)" fill="#263238"/>
    <path id="Path_9052" data-name="Path 9052" d="M121.977,112.761l-3.217.368a1.707,1.707,0,0,1,1.348-1.42A2.049,2.049,0,0,1,121.977,112.761Z" transform="translate(-34.67 -83.476)" fill="#263238"/>
    <path id="Path_9053" data-name="Path 9053" d="M107.319,112.793l3.109.9a1.7,1.7,0,0,0-1.078-1.626A2.031,2.031,0,0,0,107.319,112.793Z" transform="translate(-12.841 -83.507)" fill="#263238"/>
    <path id="Path_9054" data-name="Path 9054" d="M113.222,127.85l-3.352,1.626a2.193,2.193,0,0,0,2.543.728,2,2,0,0,0,.809-2.354Z" transform="translate(-18.043 -85.113)" fill="#ffa8a7"/>
    <path id="Path_9055" data-name="Path 9055" d="M113.222,127.85l-3.352,1.626a2.193,2.193,0,0,0,2.543.728,2,2,0,0,0,.809-2.354Z" transform="translate(-18.043 -85.113)" opacity="0.3"/>
    <path id="Path_9056" data-name="Path 9056" d="M109.873,130.375a2.049,2.049,0,0,0,1.168-.108,1.8,1.8,0,0,0,.9-1.8,2.076,2.076,0,0,0-1.321.458A2.121,2.121,0,0,0,109.873,130.375Z" transform="translate(-16.662 -85.176)" fill="#ffa8a7"/>
    <path id="Path_9057" data-name="Path 9057" d="M74.664,213.07l14.863-26.059a10.487,10.487,0,0,0,.261-8.779L81.52,158.786a25.34,25.34,0,0,0-14.377-13.793l-2.085-.773c-1.186,11.682,2.336,17.28,13.012,37.543,0,0-5.625,18.87-10.019,27.3a31.729,31.729,0,0,0-9.4,6.811,1.707,1.707,0,0,0-.1,2.246h0a1.581,1.581,0,0,0,1.968.422c1.429-.737,2.858-1.5,4.3-2.229a46.3,46.3,0,0,1-5.58,9.238,1.743,1.743,0,0,0,.108,2.264h0a1.716,1.716,0,0,0,1.528.53l4.655-.683a8.411,8.411,0,0,0,6.29-4.619,28.665,28.665,0,0,0,2.849-9.974Z" transform="translate(51.121 -86.773)" fill="#ffc3c2"/>
    <path id="Path_9058" data-name="Path 9058" d="M63.857,144.18c9.049,3.1,14.171,5.158,21.351,24.639-3.594,5.562-13.479,4.807-13.479,4.807C58.852,154.208,63.857,144.18,63.857,144.18Z" transform="translate(52.295 -86.769)" fill="#2843b4"/>
    <path id="Path_9059" data-name="Path 9059" d="M63.857,144.18c9.049,3.1,14.171,5.158,21.351,24.639-3.594,5.562-13.479,4.807-13.479,4.807C58.852,154.208,63.857,144.18,63.857,144.18Z" transform="translate(52.295 -86.769)" fill="#fff" opacity="0.3"/>
    <path id="Path_9060" data-name="Path 9060" d="M163.309,137.519a1.258,1.258,0,0,0-.054-.836c-.692-2.426-1.393-4.727-.063-5.688a.746.746,0,0,1,1.105.332c.53,1.141,1.8,3.181,2.5,4.538a13.137,13.137,0,0,1,.9,3.343l-4.358-1.68Z" transform="translate(-119.638 -85.419)" fill="#ffc3c2"/>
  </g>
  <g id="freepik--character-3--inject-32" transform="translate(293.323 166.612)">
    <path id="Path_9061" data-name="Path 9061" d="M147.315,259.019c.207-.755-.153-4.223.683-4.816s-.728-1.842-2.246-.593S147.315,259.019,147.315,259.019Z" transform="translate(-135.345 -213.963)" fill="#f8e3b0"/>
    <path id="Path_9062" data-name="Path 9062" d="M157.867,230.518l-.081,27.209-10.316-5.958.072-27.209Z" transform="translate(-146.904 -211.072)" fill="#f0f0f0"/>
    <path id="Path_9063" data-name="Path 9063" d="M156.864,231.336l-.018,5.266-8.186-4.727.009-5.275Z" transform="translate(-146.971 -211.278)" fill="#2843b4"/>
    <path id="Path_9064" data-name="Path 9064" d="M156.884,238.557l-.018,5.275L148.68,239.1l.009-5.275Z" transform="translate(-147.009 -212.012)" fill="#2843b4"/>
    <path id="Path_9065" data-name="Path 9065" d="M156.9,245.787l-.018,5.275-8.186-4.727.009-5.275Z" transform="translate(-147.047 -212.745)" fill="#2843b4"/>
    <path id="Path_9066" data-name="Path 9066" d="M156.924,253.026l-.018,5.266-8.186-4.736.009-5.266Z" transform="translate(-147.085 -213.478)" fill="#2843b4"/>
    <g id="Group_7178" data-name="Group 7178" transform="translate(1.689 15.322)" opacity="0.6">
      <path id="Path_9067" data-name="Path 9067" d="M156.864,231.336l-.018,5.266-8.186-4.727.009-5.275Z" transform="translate(-148.66 -226.6)" fill="#fff"/>
    </g>
    <g id="Group_7179" data-name="Group 7179" transform="translate(1.671 21.818)" opacity="0.4">
      <path id="Path_9068" data-name="Path 9068" d="M156.884,238.557l-.018,5.275L148.68,239.1l.009-5.275Z" transform="translate(-148.68 -233.83)" fill="#fff"/>
    </g>
    <g id="Group_7180" data-name="Group 7180" transform="translate(1.653 28.315)" opacity="0.2">
      <path id="Path_9069" data-name="Path 9069" d="M156.9,245.787l-.018,5.275-8.186-4.727.009-5.275Z" transform="translate(-148.7 -241.06)" fill="#fff"/>
    </g>
    <path id="Path_9070" data-name="Path 9070" d="M43.587,256.552l14.971,33.931-7.629,8.357,2.7,11.412,15.087-13.092a8.132,8.132,0,0,0,1.995-9.66L58.557,262.339a10.361,10.361,0,0,0-9.516-5.859Z" transform="translate(32.803 -214.308)" fill="#bfc4d5"/>
    <path id="Path_9071" data-name="Path 9071" d="M58.986,298.529a10.826,10.826,0,0,1-3.055-4.169l-1.321,1.456A6.811,6.811,0,0,0,58.986,298.529Z" transform="translate(35.42 -218.15)" opacity="0.3"/>
    <path id="Path_9072" data-name="Path 9072" d="M121.593,457.034c-.629,1.321-2.615,2.534-4.8,2.893a21.942,21.942,0,0,1-6.578-.413,43.285,43.285,0,0,0-9.822-.252,51.733,51.733,0,0,1-6.119.431,9.678,9.678,0,0,1-5.742-1.8,5.841,5.841,0,0,1-2.157-3.666,5.517,5.517,0,0,0,2.157,4.942,9.75,9.75,0,0,0,5.742,1.8,51.771,51.771,0,0,0,6.119-.44,43.283,43.283,0,0,1,9.822.252c2.184.306,4.556.9,6.739.575s4.205-1.573,4.79-2.84Z" transform="translate(-55.861 -234.362)" fill="#263238"/>
    <path id="Path_9073" data-name="Path 9073" d="M110.546,452.493c1.8,0,1.159-2.7,2.911-4.493-.71,0-1.429.045-2.139.045C109.7,450.3,109.315,452.493,110.546,452.493Z" transform="translate(-68.662 -233.73)" fill="#fff"/>
    <path id="Path_9074" data-name="Path 9074" d="M106,452.292c1.8,0,1.357-3.235,3.172-5.122a10.076,10.076,0,0,1-1.258.359c-.359.081-.719.144-1.087.2C105.214,450.019,104.756,452.292,106,452.292Z" transform="translate(-60.311 -233.646)" fill="#fff"/>
    <path id="Path_9075" data-name="Path 9075" d="M113.968,445.8a2.435,2.435,0,0,0-.952-1.492l-9.885-.252a8.465,8.465,0,0,1-4.116,2.822c-1.8,1.887-1.33,5.122-3.172,5.122-1.249,0-.791-2.273.827-4.565-.575.09-1.15.144-1.725.18-1.8,1.8-1.078,4.493-2.911,4.493-1.231,0-.8-2.22.773-4.493H91.422a7.5,7.5,0,0,1-1.267-.072c-3.648,2.884-3.954,6-3.487,10.909a12.333,12.333,0,0,0,1.9.2,51.733,51.733,0,0,0,6.119-.431,43.285,43.285,0,0,1,9.822.252,21.96,21.96,0,0,0,6.578.413c2.175-.359,4.169-1.573,4.8-2.893Z" transform="translate(-50.132 -233.331)" fill="#455a64"/>
    <path id="Path_9076" data-name="Path 9076" d="M124.73,447.978a15.562,15.562,0,0,0-4.96,0,5.922,5.922,0,0,0-4.493,3.882,4.385,4.385,0,0,0-.072,1.743,5.841,5.841,0,0,0,2.157,3.666,8.581,8.581,0,0,0,3.846,1.617C120.777,453.935,121.082,450.817,124.73,447.978Z" transform="translate(-84.725 -233.708)" fill="#fff"/>
    <path id="Path_9077" data-name="Path 9077" d="M89.58,440.89v4.772a1.968,1.968,0,0,0,1.968,1.968h4.96a3.217,3.217,0,0,0,3.217-3.118l.117-3.594Z" transform="translate(-36.86 -233.009)" fill="#ffeab6"/>
    <path id="Path_9078" data-name="Path 9078" d="M83.074,437.01a3.666,3.666,0,0,1-3,2.1,6.29,6.29,0,0,1-3.81-.9c-1.716-1.087-2.381-2.8-3.594-4.358a26.725,26.725,0,0,0-4.143-4.044,13.632,13.632,0,0,1-3.954-4.592,5.922,5.922,0,0,1-.476-1.68,5.985,5.985,0,0,0,.476,3.235,13.6,13.6,0,0,0,3.954,4.583,26.382,26.382,0,0,1,4.143,4.053c1.177,1.546,1.8,3.262,3.594,4.349a6.29,6.29,0,0,0,3.81.9,3.666,3.666,0,0,0,3-2.1,8.141,8.141,0,0,0,.18-2.7,3.3,3.3,0,0,1-.18,1.15Z" transform="translate(2.634 -231.25)" fill="#263238"/>
    <path id="Path_9079" data-name="Path 9079" d="M70.086,426.523a1.258,1.258,0,0,0-.234.818.9.9,0,0,0,.539.62,1.222,1.222,0,0,0,1.114-.288,6.4,6.4,0,0,0,.773-.9,5.823,5.823,0,0,1,2.543-1.86,5.956,5.956,0,0,1,1.528-.333l-1.24-1.132a6.146,6.146,0,0,0-5.023,3.1Z" transform="translate(4.362 -231.24)" fill="#fff"/>
    <path id="Path_9080" data-name="Path 9080" d="M74.524,422.428a6.29,6.29,0,0,0-2.768,2.552,1.222,1.222,0,0,0-.234.809.827.827,0,0,0,.539.62,1.177,1.177,0,0,0,1.132-.288,6.289,6.289,0,0,0,.773-.9,5.742,5.742,0,0,1,5.05-2.193L77.8,421.915A6.209,6.209,0,0,0,74.524,422.428Z" transform="translate(0.194 -231.081)" fill="#fff"/>
    <path id="Path_9081" data-name="Path 9081" d="M84.313,420.767a12.886,12.886,0,0,0-3.891-2.6,5.176,5.176,0,0,0-5.392.737,4.646,4.646,0,0,0-1.186,4.008,5.922,5.922,0,0,0,.476,1.68,8.581,8.581,0,0,0,1.222,1.95C76.019,422.276,79.766,420.281,84.313,420.767Z" transform="translate(-7.124 -230.66)" fill="#fff"/>
    <path id="Path_9082" data-name="Path 9082" d="M81.336,432.568a8.815,8.815,0,0,0-.97-4.169l-2.408-2.525-1.716-1.564a5.957,5.957,0,0,0-1.528.332,5.823,5.823,0,0,0-2.543,1.86,6.4,6.4,0,0,1-.773.9,1.222,1.222,0,0,1-1.114.288.9.9,0,0,1-.539-.62,1.258,1.258,0,0,1,.234-.818,6.146,6.146,0,0,1,5.023-3.1l-.279-.252a5.742,5.742,0,0,0-5.05,2.193,6.289,6.289,0,0,1-.773.9,1.177,1.177,0,0,1-1.114.288.827.827,0,0,1-.539-.62,1.222,1.222,0,0,1,.234-.809,6.29,6.29,0,0,1,2.768-2.552,6.209,6.209,0,0,1,3.253-.53h0l-.737-.665c-4.547-.485-8.249,1.51-8.725,5.778a19.981,19.981,0,0,0,2.7,2.642,26.725,26.725,0,0,1,4.143,4.044c1.177,1.555,1.8,3.271,3.594,4.358a6.29,6.29,0,0,0,3.81.9,3.666,3.666,0,0,0,3-2.1,3.3,3.3,0,0,0,.18-1.114,28.524,28.524,0,0,0-.126-3.037Z" transform="translate(4.471 -230.995)" fill="#455a64"/>
    <path id="Path_9083" data-name="Path 9083" d="M64.66,425.48l.279,5.122c3.235,1.86,6.632.845,7.764-.332l.216-4.789Z" transform="translate(12.457 -231.446)" fill="#ffeab6"/>
    <path id="Path_9084" data-name="Path 9084" d="M95,303.079a5,5,0,0,1-.494-.809,46.547,46.547,0,0,1-33.329,3.792c-2.363,17.576-4.394,47.329-3.145,66.963,1.033,22.851,5.239,55.21,5.239,55.21,5.49,1.644,9.606.638,11.152-.548,1.8-22.672,5.859-38.208,2.75-53.206,2.067-10.478,3.406-23.642,3.406-23.642L82.168,374,87.559,414.7a9.6,9.6,0,0,0,9.624-.485c3.9-23.274,5.392-39.053,1.95-50.609C104.318,325.391,104.578,315.641,95,303.079Z" transform="translate(-11.026 -218.952)" fill="#37474f"/>
    <path id="Path_9085" data-name="Path 9085" d="M66.179,349.041l2.875-12.059c3.352-.548,8.591-2.75,11.349-7.341a23.121,23.121,0,0,1-13.91,4.9L63.87,353.614l.566,8.15.225-2.965A61.743,61.743,0,0,1,66.179,349.041Z" transform="translate(5.681 -221.727)" opacity="0.3"/>
    <path id="Path_9086" data-name="Path 9086" d="M74.908,256.87l-8.384,1.644c-1.851,3.4-3.738,6.578-5.589,9.965-1.393,2.552-2.831,5.275-2.7,8.177a8.321,8.321,0,0,0,5.014,7.189l-4.358,28.863c11.322,10.28,40.437,2.929,43.977-.117-1.519-7.71-4.852-10.783-6.6-18.87-1.393-6.479,1.33-13.578,1.8-15.707a50.392,50.392,0,0,0,1.411-9.381,16.606,16.606,0,0,0-2.237-9.157l-.045-.081a10.253,10.253,0,0,0-10.3-4.412Z" transform="translate(-11.719 -214.141)" fill="#fff"/>
    <path id="Path_9087" data-name="Path 9087" d="M93.845,217.482a14.108,14.108,0,0,1,6.128,12.4c-.18,2.777-1.2,5.508-.9,8.267.189,1.626.827,3.271.4,4.843a5.068,5.068,0,0,1-2.642,2.992c-1.213.629-4.044.467-5.392.737-4.089,3.72-9.22,2.327-12.481-.988s-8.528-15.788-8.528-15.788a17.073,17.073,0,0,1-2.579-8.132,6.82,6.82,0,0,1,1.177-4.628,3.27,3.27,0,0,1,4.331-.8c-1.213-.9-.341-3.1.9-3.972a5.248,5.248,0,0,1,4.43-.332,41.947,41.947,0,0,0,4.367,1.42c1.986.359,4.035-.09,6.039.126S93.647,215.478,93.845,217.482Z" transform="translate(-17.456 -209.772)" fill="#37474f"/>
    <path id="Path_9088" data-name="Path 9088" d="M103.942,236.13l-2.552,4.439,2.795,1.033Z" transform="translate(-51.815 -212.245)" fill="#ffeab6"/>
    <path id="Path_9089" data-name="Path 9089" d="M76.4,232.867c.413-3.891,1.555-7.557,4.089-9.417A20.982,20.982,0,0,0,83.4,237.369a6.174,6.174,0,0,1,1.887-3.334,3.522,3.522,0,0,1,3.594-.773,3.594,3.594,0,0,1,1.8,1.986,4.727,4.727,0,0,1-5.9,6.245,9.085,9.085,0,0,0,6.982,7.063,11.682,11.682,0,0,0,6.766-.647l1.051,5.248c-4.268,4.556-11.565,1.492-11.565,1.492l-.962-5.158c-8.393.5-9.184.359-10.1-4.268A45.29,45.29,0,0,1,76.4,232.867Z" transform="translate(-24.582 -210.959)" fill="#ffeab6"/>
    <path id="Path_9090" data-name="Path 9090" d="M71.009,242.509c.054,1.582,0,3.091.072,4.673a12.472,12.472,0,0,1-.485,4.933,4.313,4.313,0,0,1-3.657,2.965,11.214,11.214,0,0,0,10.1,1.8,10.954,10.954,0,0,0,7.126-7.189,8.348,8.348,0,0,1-2.381,6.82A9.947,9.947,0,0,0,90.7,254.55a9.7,9.7,0,0,0,3.316-8.384c-.243-2.184-1.231-4.2-1.914-6.29s-1.042-4.493-.081-6.416a57.877,57.877,0,0,1-6.506,6.686,17.972,17.972,0,0,1-7.818,4.268,7.989,7.989,0,0,1-3.325.126,6.29,6.29,0,0,1-3.361-2.031Z" transform="translate(-10.74 -211.974)" fill="#37474f"/>
    <path id="Path_9091" data-name="Path 9091" d="M67.858,222.722a8.087,8.087,0,0,0,8.132,8.132,7.846,7.846,0,0,0,1.905-.234v-.279a14.108,14.108,0,0,0-6.128-12.4,3.253,3.253,0,0,0-.755-1.671,8.087,8.087,0,0,0-3.154,6.452Z" transform="translate(4.587 -210.231)" opacity="0.2"/>
    <ellipse id="Ellipse_347" data-name="Ellipse 347" cx="8.141" cy="8.141" rx="8.141" ry="8.141" transform="translate(85.672 19.494) rotate(-167.16)" fill="#37474f"/>
    <path id="Path_9092" data-name="Path 9092" d="M114.031,271.233A164.019,164.019,0,0,0,132,294.327a4.412,4.412,0,0,0,5.58.593c9.13-6.021,16.678-16.229,16.678-16.229l-9.885-6.8-8.564,11.134-16.175-15.941-1.069-8.851a2.157,2.157,0,0,0-1.294-1.734l-4.565-1.986a2.184,2.184,0,0,0-1.7,0l-2.7,1.114a1.168,1.168,0,0,0-.494,1.8h0a1.159,1.159,0,0,0,1.276.431l1.312-.386-3.091,2.3a2.435,2.435,0,0,0-.988,1.959v1.591a2.426,2.426,0,0,0,1.087,2.031l.377.252a1.258,1.258,0,0,0,1.8-.44h0C110.167,268.457,114.031,271.233,114.031,271.233Z" transform="translate(-106.33 -214.091)" fill="#ffeab6"/>
    <path id="Path_9093" data-name="Path 9093" d="M148.89,257.625l.827-.548a1.33,1.33,0,0,1,1.006-.2l3.774.746-3.531-1.213a1.357,1.357,0,0,0-1.51.458Z" transform="translate(-144.81 -214.294)" fill="#f8e3b0"/>
    <path id="Path_9094" data-name="Path 9094" d="M157.546,265.933c-.35-1.24-.548-2.9,0-3.513l-1.546.845.171,1.582Z" transform="translate(-154.248 -214.911)" fill="#f8e3b0"/>
    <path id="Path_9095" data-name="Path 9095" d="M136.835,276.283a1.986,1.986,0,0,1,1.869.494l2.273,2.166a2.013,2.013,0,0,1,.593,1.734v.207l-.656-.62c-8.087,2.57-7.189,10.648-7.189,10.648l1.141,1.447a2,2,0,0,1-1.9-.719l-2.822-3.594a1.977,1.977,0,0,1-.431-1.33C129.817,284.469,130.689,277.82,136.835,276.283Z" transform="translate(-114.667 -216.31)" fill="#fff"/>
    <path id="Path_9096" data-name="Path 9096" d="M136.835,276.283a1.986,1.986,0,0,1,1.869.494l2.273,2.166a2.013,2.013,0,0,1,.593,1.734v.207l-.656-.62c-8.087,2.57-7.189,10.648-7.189,10.648l1.141,1.447a2,2,0,0,1-1.9-.719l-2.822-3.594a1.977,1.977,0,0,1-.431-1.33C129.817,284.469,130.689,277.82,136.835,276.283Z" transform="translate(-114.667 -216.31)" fill="#f0f0f0"/>
    <path id="Path_9097" data-name="Path 9097" d="M104.5,278.479l.656.62,2.7,2.579.961-1.483,11.044-14.377a18.331,18.331,0,0,1,12.311-7.018l1.474-.18s2.956,12.419-3.388,19.329L118.12,290.79a47.879,47.879,0,0,1-8.087,6.245,5.652,5.652,0,0,1-7.521-1.258l-5.23-6.641S96.41,281.049,104.5,278.479Z" transform="translate(-78.241 -214.525)" fill="#bfc4d5"/>
  </g>
  <g id="freepik--character-2--inject-32" transform="translate(186.868 61.425)">
    <path id="Path_9098" data-name="Path 9098" d="M183.934,146.053l-3.244,3.01,5.589,31.109,3.451,20.281,11.87,1.384-4.852-21.665-9.193-35.863Z" transform="translate(-114.034 -97.747)" fill="#9c5756"/>
    <path id="Path_9099" data-name="Path 9099" d="M178.51,203.877c8.177-3.037,13.569,1.258,13.569,1.258l1.339,34.74-14.611-8.357Z" transform="translate(-103.892 -103.677)" fill="#2843b4"/>
    <path id="Path_9100" data-name="Path 9100" d="M178.51,203.877c8.177-3.037,13.569,1.258,13.569,1.258l1.339,34.74-14.611-8.357Z" transform="translate(-103.892 -103.677)" fill="#263238"/>
    <path id="Path_9101" data-name="Path 9101" d="M178.51,203.877c8.177-3.037,13.569,1.258,13.569,1.258l1.339,34.74-14.611-8.357Z" transform="translate(-103.892 -103.677)" fill="#fff" opacity="0.1"/>
    <path id="Path_9102" data-name="Path 9102" d="M262.515,92.823c1.339-.773,2.435-.144,2.444,1.4l.44,49.944a5.391,5.391,0,0,1-2.435,4.214l-60.089,34.686c-1.339.782-2.435.153-2.444-1.393L200,131.75a5.392,5.392,0,0,1,2.435-4.214Z" transform="translate(-195.185 -92.492)" fill="#2843b4"/>
    <path id="Path_9103" data-name="Path 9103" d="M274.552,219.426l-12.9-4.3-8.492-32.071a4.852,4.852,0,0,1,.243-2.813l.9-2.237a9.175,9.175,0,0,0,.656-3.711l-.162-4.9a1.51,1.51,0,0,0-1.5-1.456h0a1.492,1.492,0,0,0-1.465,1.231l-.773,4.259-1.8,2.067-1.456-5.832v-7.6l-3.846,5.535a6.739,6.739,0,0,0-1.1,4.906l1.537,9.318,4.134,36.061a14.377,14.377,0,0,0,9.121,11.79L271.2,234.9Z" transform="translate(-242.77 -99.547)" fill="#9c5756"/>
    <path id="Path_9104" data-name="Path 9104" d="M249.52,442.734c-.7,2.2-3.109,3.46-5.392,3.648s-4.583-.467-6.856-.9c-5.086-.9-9.992,0-15.069-.126a21.28,21.28,0,0,1-4.951-.539,8.231,8.231,0,0,1-4.241-2.5,5.517,5.517,0,0,1-1.213-2.651,5.239,5.239,0,0,0,1.213,4.142,8.231,8.231,0,0,0,4.241,2.5,21.77,21.77,0,0,0,4.951.539c5.077.117,9.983-.8,15.069.126,2.273.413,4.547,1.06,6.856.9s4.709-1.438,5.392-3.639a5.733,5.733,0,0,0,.18-2.345,4.655,4.655,0,0,1-.18.845Z" transform="translate(-190.088 -127.699)" fill="#263238"/>
    <path id="Path_9105" data-name="Path 9105" d="M249.348,437.4l-.9-4.619a6.686,6.686,0,0,0-.782-2.354,2.318,2.318,0,0,0-2.058-1.177c-2.786-.368-6.7-1.384-8.986.216a20.8,20.8,0,0,1-12.463,3.594c-2.3-.081-4.61-.557-6.892-.27s-4.673,1.546-5.347,3.747a4.358,4.358,0,0,0-.117,2.013,5.517,5.517,0,0,0,1.213,2.651,8.231,8.231,0,0,0,4.241,2.5,21.278,21.278,0,0,0,4.951.539c5.077.117,9.983-.791,15.069.126,2.273.413,4.547,1.06,6.856.9s4.709-1.447,5.392-3.648a4.657,4.657,0,0,0,.18-.854,11.223,11.223,0,0,0-.359-3.361Z" transform="translate(-190.051 -126.575)" fill="#37474f"/>
    <path id="Path_9106" data-name="Path 9106" d="M214.629,424.17l-.2,6.021a2.39,2.39,0,0,0,2.211,2.462,39.077,39.077,0,0,0,6.074-.054,3.433,3.433,0,0,0,3.1-3.19l.243-4.448Z" transform="translate(-168.811 -126.127)" fill="#9c5756"/>
    <path id="Path_9107" data-name="Path 9107" d="M205.4,418.9a4.7,4.7,0,0,1-.8,2.489,4.493,4.493,0,0,1-2.849,1.6,7.189,7.189,0,0,1-7.054-2.9c-.755-1.1-1.186-2.39-1.905-3.514a16.093,16.093,0,0,0-3.954-3.846,16.723,16.723,0,0,1-3.981-3.81,5.625,5.625,0,0,1-.764-5.1,3.73,3.73,0,0,0-.377.638,5.787,5.787,0,0,0,.719,5.392,17.073,17.073,0,0,0,4.062,4.017,16.3,16.3,0,0,1,4.044,3.963c.728,1.159,1.168,2.489,1.941,3.594a7.3,7.3,0,0,0,7.189,3,4.673,4.673,0,0,0,2.9-1.653,5.607,5.607,0,0,0,.836-3.46A3.1,3.1,0,0,0,205.4,418.9Z" transform="translate(-120.264 -124.063)" fill="#263238"/>
    <path id="Path_9108" data-name="Path 9108" d="M203.153,411.015c-1.8-3.208-5.607-5.544-8.519-7.818a10.954,10.954,0,0,0-5.643-2.561,5.293,5.293,0,0,0-5.257,2.7.964.964,0,0,0-.063.171,5.625,5.625,0,0,0,.764,5.1,16.724,16.724,0,0,0,3.981,3.81,16.1,16.1,0,0,1,3.954,3.846c.719,1.123,1.15,2.417,1.905,3.513a7.189,7.189,0,0,0,7.054,2.9,4.493,4.493,0,0,0,2.849-1.6,4.7,4.7,0,0,0,.8-2.489,6.909,6.909,0,0,0,0-.9A14.126,14.126,0,0,0,203.153,411.015Z" transform="translate(-119.837 -123.737)" fill="#37474f"/>
    <path id="Path_9109" data-name="Path 9109" d="M184.21,409.09v5.472a9.166,9.166,0,0,0,8.519-.368l.512-4.933Z" transform="translate(-108.837 -124.598)" fill="#9c5756"/>
    <path id="Path_9110" data-name="Path 9110" d="M223.669,298.58c1.644,4.924-.377,28.324-1.33,50.77,3.594,8.483,2.6,32.565.548,49.665,0,0-7.189,2.336-13.578.153l-4.493-47.356-1.123-26.688s-2.022,23.678-4.349,38.864c2.184,11.628,3.055,13.263-.386,49.845,0,0-8.923,2.974-15.492-.252-3.055-50.258-1.932-96.069-1.348-112.54Z" transform="translate(-137.828 -113.391)" fill="#2843b4"/>
    <path id="Path_9111" data-name="Path 9111" d="M223.669,298.58c1.644,4.924-.377,28.324-1.33,50.77,3.594,8.483,2.6,32.565.548,49.665,0,0-7.189,2.336-13.578.153l-4.493-47.356-1.123-26.688s-2.022,23.678-4.349,38.864c2.184,11.628,3.055,13.263-.386,49.845,0,0-8.923,2.974-15.492-.252-3.055-50.258-1.932-96.069-1.348-112.54Z" transform="translate(-137.828 -113.391)" opacity="0.3"/>
    <path id="Path_9112" data-name="Path 9112" d="M189.479,342.821l-.9-21.755c5.625,0,10.846-4.205,14.818-8.186-3.819,6.784-11.205,9.795-11.205,9.795Z" transform="translate(-122.921 -114.841)" opacity="0.3"/>
    <path id="Path_9113" data-name="Path 9113" d="M178.38,295.268c25.1,10.514,41.335,1.015,43.564-3.927-1.159-17.352,2.947-37.642,2.624-46.26s-1.366-18.331-14.737-16.39l-14.216,1.393-7.189,1.752-8.653,17.972Z" transform="translate(-134.943 -106.279)" fill="#646a86"/>
    <path id="Path_9114" data-name="Path 9114" d="M207.688,216.844a3.765,3.765,0,0,0,2.777-.9,2.75,2.75,0,0,0,.665-2.381,2.606,2.606,0,0,0,1.905-1.546,2.956,2.956,0,0,0-.44-2.6,4.385,4.385,0,0,0,2.822-2.309,4.583,4.583,0,0,0,.126-3.747,4.044,4.044,0,0,0,2.84-2.822,4.385,4.385,0,0,0-.8-4.053,5.473,5.473,0,0,0,.638-5.445,5.8,5.8,0,0,0-4.682-3.154,5.607,5.607,0,0,0-1.8-5.032,5.392,5.392,0,0,0-5.167-1.015,4.96,4.96,0,0,0-8.276-1.42,3.774,3.774,0,0,0-3.352-1.231,3.9,3.9,0,0,0-3.028,1.995,5.077,5.077,0,0,0-7.189,4.861,3.01,3.01,0,0,0-2.148,2.956,3.19,3.19,0,0,0,2.48,2.858,70.917,70.917,0,0,0,6.668,19.526c1.411,2.7,3.136,5.517,5.868,6.946C200.526,219.89,205.162,219.01,207.688,216.844Z" transform="translate(-132.8 -101.242)" fill="#263238"/>
    <path id="Path_9115" data-name="Path 9115" d="M207.688,216.844a3.765,3.765,0,0,0,2.777-.9,2.75,2.75,0,0,0,.665-2.381,2.606,2.606,0,0,0,1.905-1.546,2.956,2.956,0,0,0-.44-2.6,4.385,4.385,0,0,0,2.822-2.309,4.583,4.583,0,0,0,.126-3.747,4.044,4.044,0,0,0,2.84-2.822,4.385,4.385,0,0,0-.8-4.053,5.473,5.473,0,0,0,.638-5.445,5.8,5.8,0,0,0-4.682-3.154,5.607,5.607,0,0,0-1.8-5.032,5.392,5.392,0,0,0-5.167-1.015,4.96,4.96,0,0,0-8.276-1.42,3.774,3.774,0,0,0-3.352-1.231,3.9,3.9,0,0,0-3.028,1.995,5.077,5.077,0,0,0-7.189,4.861,3.01,3.01,0,0,0-2.148,2.956,3.19,3.19,0,0,0,2.48,2.858,70.917,70.917,0,0,0,6.668,19.526c1.411,2.7,3.136,5.517,5.868,6.946C200.526,219.89,205.162,219.01,207.688,216.844Z" transform="translate(-132.8 -101.242)" fill="#263238"/>
    <path id="Path_9116" data-name="Path 9116" d="M223.777,203.28l-2.947,5.113,3.226,1.2Z" transform="translate(-172.559 -103.727)" fill="#f28f8f"/>
    <path id="Path_9117" data-name="Path 9117" d="M223.777,203.28l-2.947,5.113,3.226,1.2Z" transform="translate(-172.559 -103.727)" fill="#803837"/>
    <path id="Path_9118" data-name="Path 9118" d="M196.505,193.36a47.7,47.7,0,0,0-.845,21.746,7.4,7.4,0,0,0,1.348,3.442,5.391,5.391,0,0,0,3.738,1.725,16.507,16.507,0,0,0,4.2-.4v6.659c5.059,1.186,10.253,1.662,14.216-1.393v-6.811a18.053,18.053,0,0,1-8.824.548c-3.487-1.878-4.187-8.258-3.7-9.938a2.624,2.624,0,0,0,2.7.953,3.594,3.594,0,0,0,2.264-1.8,7.387,7.387,0,0,0,.845-2.831,5.176,5.176,0,0,0-.512-3.513,3.666,3.666,0,0,0-3.954-1.33,5.661,5.661,0,0,0-3.334,2.777,9.609,9.609,0,0,0-.584,1.276.791.791,0,0,1-1.528-.2,10.567,10.567,0,0,1,1-5.571,3.846,3.846,0,0,1-2.849-1.743,3.594,3.594,0,0,1-.557-3.2A10.882,10.882,0,0,1,196.505,193.36Z" transform="translate(-144.262 -102.721)" fill="#9c5756"/>
    <path id="Path_9119" data-name="Path 9119" d="M198.815,145.513l-2.606-6.73-1.177-5.284a1.348,1.348,0,0,1,.9-1.573h0a1.339,1.339,0,0,1,1.707.845l.988,2.867V127.55l3.379,6.048a5.311,5.311,0,0,1,.647,2.983l.656,10.657Z" transform="translate(-128.6 -96.047)" fill="#9c5756"/>
    <path id="Path_9120" data-name="Path 9120" d="M238.144,231.416c-8-2.651-22.231-6.946-22.231-6.946-6.389,6.443-5.85,16.849-5.85,16.849l19.4,8.087C247.975,255.256,250.671,235.559,238.144,231.416Z" transform="translate(-184.652 -105.876)" fill="#263238"/>
    <path id="Path_9121" data-name="Path 9121" d="M238.144,231.416c-8-2.651-22.231-6.946-22.231-6.946-6.389,6.443-5.85,16.849-5.85,16.849l19.4,8.087C247.975,255.256,250.671,235.559,238.144,231.416Z" transform="translate(-184.652 -105.876)" fill="#fff" opacity="0.1"/>
    <path id="Path_9122" data-name="Path 9122" d="M244.135,121.15,260.463,134l.036,12.562-54.293,31.343-.036-12.553L216.513,144.8l9.291,7.216-3.28,10.2,4.763-9.058Z" transform="translate(-195.828 -95.398)" fill="#fff"/>
    <path id="Path_9123" data-name="Path 9123" d="M243.679,128.119c2.552-1.474,4.628-.288,4.637,2.651a10.163,10.163,0,0,1-4.61,7.988c-2.552,1.474-4.637.288-4.646-2.651a10.19,10.19,0,0,1,4.619-7.988Z" transform="translate(-213.2 -96.041)" fill="#fff"/>
  </g>
</svg>
