<svg xmlns="http://www.w3.org/2000/svg" xmlns:xlink="http://www.w3.org/1999/xlink" width="257.717" height="246" viewBox="0 0 257.717 246">
  <defs>
    <filter id="Rectangle_3118" x="0" y="113.757" width="139.776" height="126.679" filterUnits="userSpaceOnUse">
      <feOffset dy="3" input="SourceAlpha"/>
      <feGaussianBlur stdDeviation="3" result="blur"/>
      <feFlood flood-opacity="0.102"/>
      <feComposite operator="in" in2="blur"/>
      <feComposite in="SourceGraphic"/>
    </filter>
    <filter id="Rectangle_3122" x="108.693" y="15.235" width="139.776" height="125.663" filterUnits="userSpaceOnUse">
      <feOffset dy="3" input="SourceAlpha"/>
      <feGaussianBlur stdDeviation="3" result="blur-2"/>
      <feFlood flood-opacity="0.102"/>
      <feComposite operator="in" in2="blur-2"/>
      <feComposite in="SourceGraphic"/>
    </filter>
    <filter id="Rectangle_2879" x="58.372" y="0" width="56" height="56" filterUnits="userSpaceOnUse">
      <feOffset dy="3" input="SourceAlpha"/>
      <feGaussianBlur stdDeviation="3" result="blur-3"/>
      <feFlood flood-opacity="0.102"/>
      <feComposite operator="in" in2="blur-3"/>
      <feComposite in="SourceGraphic"/>
    </filter>
    <filter id="star" x="75.723" y="15.458" width="22.513" height="21.825" filterUnits="userSpaceOnUse">
      <feOffset dy="1" input="SourceAlpha"/>
      <feGaussianBlur stdDeviation="1" result="blur-4"/>
      <feFlood flood-opacity="0.161"/>
      <feComposite operator="in" in2="blur-4"/>
      <feComposite in="SourceGraphic"/>
    </filter>
    <filter id="Rectangle_3152" x="130.717" y="137.597" width="127" height="79" filterUnits="userSpaceOnUse">
      <feOffset dy="3" input="SourceAlpha"/>
      <feGaussianBlur stdDeviation="3" result="blur-5"/>
      <feFlood flood-opacity="0.161"/>
      <feComposite operator="in" in2="blur-5"/>
      <feComposite in="SourceGraphic"/>
    </filter>
    <filter id="Path_9126" x="10.092" y="45.367" width="37.052" height="41.097" filterUnits="userSpaceOnUse">
      <feOffset dy="3" input="SourceAlpha"/>
      <feGaussianBlur stdDeviation="3" result="blur-6"/>
      <feFlood flood-opacity="0.161"/>
      <feComposite operator="in" in2="blur-6"/>
      <feComposite in="SourceGraphic"/>
    </filter>
    <filter id="Path_9127" x="32.069" y="54.249" width="30.316" height="32.215" filterUnits="userSpaceOnUse">
      <feOffset dy="3" input="SourceAlpha"/>
      <feGaussianBlur stdDeviation="3" result="blur-7"/>
      <feFlood flood-opacity="0.161"/>
      <feComposite operator="in" in2="blur-7"/>
      <feComposite in="SourceGraphic"/>
    </filter>
  </defs>
  <g id="foundations_illustration" data-name="foundations illustration" transform="translate(-1026 -113)">
    <rect id="bg" width="217" height="217" rx="20" transform="translate(1045.064 138.252)" fill="#eef1fb" opacity="0.6"/>
    <g id="alignment" transform="translate(1045.064 131.237)">
      <g id="Group_7395" data-name="Group 7395" transform="translate(24.153)">
        <line id="Line_920" data-name="Line 920" y2="227.515" transform="translate(0 0.152)" fill="none" stroke="#d6defb" stroke-width="1"/>
        <line id="Line_922" data-name="Line 922" y2="227.763" transform="translate(11.651)" fill="none" stroke="#d6defb" stroke-width="1"/>
      </g>
      <g id="Group_7396" data-name="Group 7396" transform="translate(177.192)">
        <line id="Line_924" data-name="Line 924" y2="227.763" fill="none" stroke="#d6defb" stroke-width="1"/>
        <line id="Line_925" data-name="Line 925" y2="227.515" transform="translate(12.013 0.152)" fill="none" stroke="#d6defb" stroke-width="1"/>
      </g>
      <g id="Group_7394" data-name="Group 7394" transform="translate(0 22.497)">
        <line id="Line_921" data-name="Line 921" x2="215.372" fill="none" stroke="#d6defb" stroke-width="1"/>
        <line id="Line_923" data-name="Line 923" x2="215.372" transform="translate(0 12.188)" fill="none" stroke="#d6defb" stroke-width="1"/>
      </g>
      <g id="Group_7397" data-name="Group 7397" transform="translate(0.485 198.325)">
        <line id="Line_927" data-name="Line 927" x2="214.78" fill="none" stroke="#d6defb" stroke-width="1"/>
        <line id="Line_926" data-name="Line 926" x2="214.78" transform="translate(0 12.036)" fill="none" stroke="#d6defb" stroke-width="1"/>
      </g>
    </g>
    <g id="layout" transform="translate(1035 232.757)">
      <g transform="matrix(1, 0, 0, 1, -9, -119.76)" filter="url(#Rectangle_3118)">
        <rect id="Rectangle_3118-2" data-name="Rectangle 3118" width="121.776" height="108.679" transform="translate(9 119.76)" fill="#fff"/>
      </g>
      <g id="Group_7373" data-name="Group 7373" transform="translate(27.173)">
        <rect id="Rectangle_3119" data-name="Rectangle 3119" width="5.032" height="108.679" transform="translate(0)" fill="#d5dae8"/>
        <rect id="Rectangle_3120" data-name="Rectangle 3120" width="5.032" height="108.679" transform="translate(31.199)" fill="#d5dae8"/>
        <rect id="Rectangle_3121" data-name="Rectangle 3121" width="5.032" height="108.679" transform="translate(62.397)" fill="#d5dae8"/>
      </g>
    </g>
    <g id="grid" transform="translate(1143.693 134.235)">
      <g transform="matrix(1, 0, 0, 1, -117.69, -21.24)" filter="url(#Rectangle_3122)">
        <rect id="Rectangle_3122-2" data-name="Rectangle 3122" width="121.776" height="107.663" transform="translate(117.69 21.24)" fill="#fff"/>
      </g>
      <rect id="Rectangle_3123" data-name="Rectangle 3123" width="98.628" height="40.628" rx="1" transform="translate(11.071 11.173)" fill="#d5dae8"/>
      <g id="Group_7375" data-name="Group 7375" transform="translate(11.07 55.863)">
        <rect id="Rectangle_3124" data-name="Rectangle 3124" width="47.301" height="6.094" rx="1" transform="translate(0)" fill="#d5dae8"/>
        <rect id="Rectangle_3128" data-name="Rectangle 3128" width="47.301" height="6.094" rx="1" transform="translate(0 8.126)" fill="#d5dae8"/>
        <rect id="Rectangle_3129" data-name="Rectangle 3129" width="47.301" height="5.078" rx="1" transform="translate(0 17.267)" fill="#d5dae8"/>
        <rect id="Rectangle_3131" data-name="Rectangle 3131" width="24.154" height="5.078" rx="1" transform="translate(0 33.518)" fill="#d5dae8"/>
        <rect id="Rectangle_3130" data-name="Rectangle 3130" width="47.301" height="5.078" rx="1" transform="translate(0 25.392)" fill="#d5dae8"/>
      </g>
      <g id="Group_7376" data-name="Group 7376" transform="translate(62.397 55.863)">
        <rect id="Rectangle_3125" data-name="Rectangle 3125" width="47.301" height="18.282" rx="1" transform="translate(0)" fill="#d5dae8"/>
        <rect id="Rectangle_3126" data-name="Rectangle 3126" width="21.135" height="16.251" rx="1" transform="translate(0 22.345)" fill="#d5dae8"/>
        <rect id="Rectangle_3127" data-name="Rectangle 3127" width="21.135" height="16.251" rx="1" transform="translate(26.167 22.345)" fill="#d5dae8"/>
      </g>
    </g>
    <g id="icon" transform="translate(1093.372 119)">
      <g transform="matrix(1, 0, 0, 1, -67.37, -6)" filter="url(#Rectangle_2879)">
        <rect id="Rectangle_2879-2" data-name="Rectangle 2879" width="38" height="38" rx="19" transform="translate(67.37 6)" fill="#fff"/>
      </g>
      <g transform="matrix(1, 0, 0, 1, -67.37, -6)" filter="url(#star)">
        <path id="star-2" data-name="star" d="M16.47,6.476a.877.877,0,0,0-.755-.6L10.948,5.44,9.064,1.029a.878.878,0,0,0-1.615,0L5.565,5.44.8,5.873A.879.879,0,0,0,.3,7.408l3.6,3.16L2.84,15.248a.878.878,0,0,0,1.306.949l4.11-2.458,4.11,2.458a.878.878,0,0,0,1.307-.949L12.61,10.568l3.6-3.16a.879.879,0,0,0,.256-.933ZM8.335,13.691" transform="translate(78.72 16.96)" fill="#2843b4"/>
      </g>
    </g>
    <g id="color_neutral" data-name="color neutral" transform="translate(1064.186 212.443)">
      <rect id="Rectangle_3132" data-name="Rectangle 3132" width="71.455" height="16.251" transform="translate(0)" fill="#fff"/>
      <rect id="Rectangle_3133" data-name="Rectangle 3133" width="11.071" height="10.157" transform="translate(3.019 3.047)" fill="#212934"/>
      <rect id="Rectangle_3134" data-name="Rectangle 3134" width="11.071" height="10.157" transform="translate(14.09 3.047)" fill="#5f6b7a"/>
      <rect id="Rectangle_3135" data-name="Rectangle 3135" width="11.071" height="10.157" transform="translate(25.16 3.047)" fill="#8895a7"/>
      <rect id="Rectangle_3136" data-name="Rectangle 3136" width="11.071" height="10.157" transform="translate(36.231 3.047)" fill="#cfd6de"/>
      <rect id="Rectangle_3137" data-name="Rectangle 3137" width="11.071" height="10.157" transform="translate(47.301 3.047)" fill="#e1e7ec"/>
      <rect id="Rectangle_3138" data-name="Rectangle 3138" width="11.071" height="10.157" transform="translate(58.372 3.047)" fill="#fcfcfe"/>
    </g>
    <g id="color" transform="translate(1103.436 171.816)">
      <rect id="Rectangle_3139" data-name="Rectangle 3139" width="32.205" height="30.471" rx="1" transform="translate(0)" fill="#fcfcfe"/>
      <g id="Group_7400" data-name="Group 7400" transform="translate(4.025 4.063)">
        <rect id="Rectangle_3146" data-name="Rectangle 3146" width="11.071" height="10.157" rx="1" transform="translate(0 12.188)" fill="#ff6a6a"/>
        <rect id="Rectangle_3140" data-name="Rectangle 3140" width="11.071" height="10.157" rx="1" transform="translate(14.09 12.188)" fill="#ffe926"/>
        <rect id="Rectangle_3141" data-name="Rectangle 3141" width="11.071" height="10.157" rx="1" transform="translate(0)" fill="#0370d6"/>
        <rect id="Rectangle_3142" data-name="Rectangle 3142" width="11.071" height="10.157" rx="1" transform="translate(14.09)" fill="#24b57a"/>
      </g>
    </g>
    <g id="accessability" transform="translate(1165.717 256.597)">
      <g id="Group_7390" data-name="Group 7390" transform="translate(0)">
        <g transform="matrix(1, 0, 0, 1, -139.72, -143.6)" filter="url(#Rectangle_3152)">
          <rect id="Rectangle_3152-2" data-name="Rectangle 3152" width="109" height="61" transform="translate(139.72 143.6)" fill="#fff"/>
        </g>
        <g id="Group_7392" data-name="Group 7392" transform="translate(59.471 0.426)">
          <g id="Group_7391" data-name="Group 7391" transform="translate(0 13.152)">
            <rect id="Rectangle_3144" data-name="Rectangle 3144" width="40.885" height="39.812" rx="4" fill="#d5dae8"/>
            <g id="text-font" transform="translate(8.946 11.321)">
              <path id="Path_9126-2" data-name="Path 9126" d="M9.021,82.265a1.776,1.776,0,0,0-1.7-1.26H5.4a1.777,1.777,0,0,0-1.7,1.267L.074,94.248A1.723,1.723,0,0,0,.334,95.77a1.7,1.7,0,0,0,3.007-.562L4.086,92.5H8.475l.8,2.695a1.769,1.769,0,0,0,3.128.545,1.8,1.8,0,0,0,.266-1.592ZM4.587,89.882,5.5,86.6c.25-.895.478-2.064.706-2.982h.043c.228.918.5,2.064.774,2.982l.955,3.281Z" transform="translate(0 -81.005)" fill="#e7eaf4"/>
              <path id="Path_9127-2" data-name="Path 9127" d="M324.623,214.8v-3.166c0-2.141-.969-3.928-4.005-3.928a8.248,8.248,0,0,0-2.748.45.913.913,0,0,0-.572,1.111l.009.031a.929.929,0,0,0,1.189.624,5.188,5.188,0,0,1,1.619-.279c1.4,0,1.658.689,1.658,1.173v.131c-3.222-.019-5.345,1.117-5.345,3.482a2.791,2.791,0,0,0,2.943,2.793,3.282,3.282,0,0,0,2.606-1.118h.055l.073.4a.629.629,0,0,0,.618.515h1.319a.629.629,0,0,0,.627-.676C324.637,215.9,324.623,215.358,324.623,214.8Zm-2.758-1.1a1.992,1.992,0,0,1-.056.484,1.545,1.545,0,0,1-1.471,1.043,1.017,1.017,0,0,1-1.117-1.08c0-1.1,1.155-1.452,2.644-1.434Z" transform="translate(-301.718 -201.765)" fill="#e7eaf4"/>
            </g>
          </g>
          <g id="Group_7388" data-name="Group 7388" transform="translate(31.958)">
            <path id="Path_9221" data-name="Path 9221" d="M0,0H17.854V17.854H0Z" fill="none"/>
            <path id="Path_9222" data-name="Path 9222" d="M8.376,14.753a6.376,6.376,0,1,1,6.376-6.376A6.376,6.376,0,0,1,8.376,14.753Zm0-7.278-1.8-1.8-.9.9,1.8,1.8-1.8,1.8.9.9,1.8-1.8,1.8,1.8.9-.9-1.8-1.8,1.8-1.8-.9-.9Z" transform="translate(0.551 0.551)" fill="#ff6a6a"/>
          </g>
        </g>
        <g id="Group_7389" data-name="Group 7389" transform="translate(9.659 13.578)">
          <rect id="Rectangle_3145" data-name="Rectangle 3145" width="40.885" height="39.812" rx="4" fill="#2843b4"/>
          <g id="text-font-2" data-name="text-font" transform="translate(8.927 11.321)">
            <path id="Path_9126-3" data-name="Path 9126" d="M9.021,82.265a1.776,1.776,0,0,0-1.7-1.26H5.4a1.777,1.777,0,0,0-1.7,1.267L.074,94.248A1.723,1.723,0,0,0,.334,95.77a1.7,1.7,0,0,0,3.007-.562L4.086,92.5H8.475l.8,2.695a1.769,1.769,0,0,0,3.128.545,1.8,1.8,0,0,0,.266-1.592ZM4.587,89.882,5.5,86.6c.25-.895.478-2.064.706-2.982h.043c.228.918.5,2.064.774,2.982l.955,3.281Z" transform="translate(0 -81.005)" fill="#fff"/>
            <path id="Path_9127-3" data-name="Path 9127" d="M324.623,214.8v-3.166c0-2.141-.969-3.928-4.005-3.928a8.248,8.248,0,0,0-2.748.45.913.913,0,0,0-.572,1.111l.009.031a.929.929,0,0,0,1.189.624,5.188,5.188,0,0,1,1.619-.279c1.4,0,1.658.689,1.658,1.173v.131c-3.222-.019-5.345,1.117-5.345,3.482a2.791,2.791,0,0,0,2.943,2.793,3.282,3.282,0,0,0,2.606-1.118h.055l.073.4a.629.629,0,0,0,.618.515h1.319a.629.629,0,0,0,.627-.676C324.637,215.9,324.623,215.358,324.623,214.8Zm-2.758-1.1a1.992,1.992,0,0,1-.056.484,1.545,1.545,0,0,1-1.471,1.043,1.017,1.017,0,0,1-1.117-1.08c0-1.1,1.155-1.452,2.644-1.434Z" transform="translate(-301.718 -201.765)" fill="#fff"/>
          </g>
        </g>
        <g id="Group_3094" data-name="Group 3094" transform="translate(41.617 0.426)">
          <path id="Path_4002" data-name="Path 4002" d="M0,0H17.854V17.854H0Z" fill="none"/>
          <path id="Path_4003" data-name="Path 4003" d="M8.376,14.753a6.376,6.376,0,1,1,6.376-6.376A6.376,6.376,0,0,1,8.376,14.753Zm-.636-3.826,4.508-4.509-.9-.9L7.741,9.124l-1.8-1.8-.9.9Z" transform="translate(0.55 0.551)" fill="#24b57a"/>
        </g>
      </g>
    </g>
    <g id="typography" transform="translate(1037.013 150.486)">
      <rect id="Rectangle_2879-3" data-name="Rectangle 2879" width="51" height="51" rx="5" transform="translate(0)" fill="#141d47"/>
      <g id="text-font-3" data-name="text-font" transform="translate(8.079 13.881)">
        <g transform="matrix(1, 0, 0, 1, -19.09, -51.37)" filter="url(#Path_9126)">
          <path id="Path_9126-4" data-name="Path 9126" d="M13.477,82.888a2.653,2.653,0,0,0-2.532-1.883H8.067A2.655,2.655,0,0,0,5.531,82.9L.111,100.789A2.575,2.575,0,0,0,.5,103.063a2.533,2.533,0,0,0,4.492-.839L6.1,98.173h6.556l1.2,4.026a2.642,2.642,0,0,0,4.673.815,2.693,2.693,0,0,0,.4-2.379ZM6.853,94.267l1.357-4.9c.373-1.336.714-3.083,1.055-4.454H9.33c.341,1.371.751,3.084,1.157,4.454l1.427,4.9Z" transform="translate(19.09 -29.64)" fill="#fff"/>
        </g>
        <g transform="matrix(1, 0, 0, 1, -19.09, -51.37)" filter="url(#Path_9127)">
          <path id="Path_9127-4" data-name="Path 9127" d="M328.67,218.308v-4.729c0-3.2-1.447-5.869-5.984-5.869a12.322,12.322,0,0,0-4.105.672,1.364,1.364,0,0,0-.855,1.659l.014.046a1.388,1.388,0,0,0,1.777.932,7.751,7.751,0,0,1,2.419-.417c2.087,0,2.477,1.03,2.477,1.753v.2c-4.814-.028-7.985,1.668-7.985,5.2a4.169,4.169,0,0,0,4.4,4.172,4.9,4.9,0,0,0,3.893-1.67h.082l.109.6a.94.94,0,0,0,.924.769h1.971a.94.94,0,0,0,.937-1.01C328.691,219.939,328.67,219.135,328.67,218.308Zm-4.119-1.641a2.973,2.973,0,0,1-.084.723,2.309,2.309,0,0,1-2.2,1.558,1.519,1.519,0,0,1-1.669-1.613c0-1.641,1.726-2.169,3.95-2.142Z" transform="translate(-275.36 -147.46)" fill="#fff"/>
        </g>
      </g>
      <g id="Group_7398" data-name="Group 7398" transform="translate(4.868 13.418)">
        <line id="Line_916" data-name="Line 916" x2="40.825" fill="none" stroke="#fcfcfe" stroke-width="0.5" stroke-dasharray="2 1" opacity="0.6"/>
        <line id="Line_918" data-name="Line 918" x2="40.825" transform="translate(0 9.259)" fill="none" stroke="#fcfcfe" stroke-width="0.5" stroke-dasharray="2 1" opacity="0.6"/>
        <line id="Line_919" data-name="Line 919" x2="40.825" transform="translate(0 24.073)" fill="none" stroke="#fcfcfe" stroke-width="0.5" stroke-dasharray="2 1" opacity="0.6"/>
      </g>
    </g>
  </g>
</svg>
