<svg id="lola" xmlns="http://www.w3.org/2000/svg" width="67.967" height="23.456" viewBox="0 0 67.967 23.456">
  <g id="Group_22" data-name="Group 22">
    <path id="Path_3" data-name="Path 3" d="M669.195,96.221v.987H654.18L666.9,94.448c.036-.009.072-.017.11-.025a1.821,1.821,0,0,1,.348-.033,1.787,1.787,0,0,1,.544.083c.028.008.056.017.085.028a1.832,1.832,0,0,1,1.2,1.559A1.391,1.391,0,0,1,669.195,96.221Z" transform="translate(-654.18 -94.39)" fill="#bfc4d5"/>
    <path id="Path_4" data-name="Path 4" d="M684.262,116.458q-.042-.016-.085-.028a1.787,1.787,0,0,0-.544-.083H666.72l14.839,4.989q.064.019.127.042a2.4,2.4,0,0,1,.974.667,2.483,2.483,0,0,1,.46.748,2.448,2.448,0,0,1,.168.889v9.333a1.787,1.787,0,0,0,.345.033,1.823,1.823,0,0,0,1.823-1.823V118.018A1.831,1.831,0,0,0,684.262,116.458Zm-.488,2.9H683.3v.48a.426.426,0,0,1-.852,0v-.48h-.478a.426.426,0,0,1-.427-.425.419.419,0,0,1,.125-.3.426.426,0,0,1,.3-.126h.478v-.478a.427.427,0,0,1,.425-.427.428.428,0,0,1,.427.427v.478h.478a.426.426,0,1,1,0,.852Z" transform="translate(-664.753 -112.902)" fill="#bfc4d5"/>
    <path id="Path_5" data-name="Path 5" d="M672.088,123.686v10.853a1.825,1.825,0,0,1-2.344,1.748l-.133-.045-15.43-5.186v-14.7l16.621,5.588a.891.891,0,0,1,.085.028,1.835,1.835,0,0,1,1.059,1.013A1.791,1.791,0,0,1,672.088,123.686Z" transform="translate(-654.18 -112.905)" fill="#bfc4d5"/>
    <path id="Path_6" data-name="Path 6" d="M672.088,123.686v10.853a1.825,1.825,0,0,1-2.344,1.748l-.133-.045-15.43-5.186v-14.7l16.621,5.588a.891.891,0,0,1,.085.028,1.835,1.835,0,0,1,1.059,1.013A1.791,1.791,0,0,1,672.088,123.686Z" transform="translate(-654.18 -112.905)" fill="#bfc4d5"/>
  </g>
  <path id="Path_8710" data-name="Path 8710" d="M-21.29-1.938h3.223V-17.766H-21.29ZM-9.551-1.7A6.3,6.3,0,0,0-3.1-7.952a6.3,6.3,0,0,0-6.447-6.254,6.3,6.3,0,0,0-6.423,6.254A6.3,6.3,0,0,0-9.551-1.7Zm0-2.983A3.117,3.117,0,0,1-12.7-7.952a3.131,3.131,0,0,1,3.151-3.271A3.131,3.131,0,0,1-6.4-7.952,3.117,3.117,0,0,1-9.551-4.68Zm8.539,2.742H2.212V-17.766H-1.012ZM9.741-1.7a4.645,4.645,0,0,0,3.753-1.684v1.443h3.151V-13.965H13.493V-12.5a4.7,4.7,0,0,0-3.753-1.708c-3.32,0-5.436,2.79-5.436,6.254S6.421-1.7,9.741-1.7Zm.818-2.983A3.029,3.029,0,0,1,7.576-7.952a3.043,3.043,0,0,1,2.983-3.271,3,3,0,0,1,2.862,3.271A2.969,2.969,0,0,1,10.559-4.68Z" transform="translate(51.323 24.21)" fill="#bfc4d5"/>
</svg>
