<svg id="Philantro" xmlns="http://www.w3.org/2000/svg" width="187.226" height="37.584" viewBox="0 0 187.226 37.584">
  <g id="Layer_1" data-name="Layer 1">
    <g id="Group_7154" data-name="Group 7154" transform="translate(0 9.2)">
      <path id="Path_8780" data-name="Path 8780" d="M13.7,17.436C12.253,16.652,11,16.43,8.25,16.43c-1.308,0-3.048.028-4.873.085-1.222,0-2.1.051-2.451.051L0,16.595v1.2H.409c1.8,0,2.235.517,2.274,2.775V30.724c0,2.178-.489,2.843-2.206,2.843H.085v1.2H9.393V33.556H8.9C7.2,33.556,6.7,32.9,6.7,30.713V26.562H8.825a10.963,10.963,0,0,0,4.384-.654,4.657,4.657,0,0,0,2.843-4.117h0a2.474,2.474,0,0,0,0-.29A4.458,4.458,0,0,0,13.7,17.436Zm-3.463,7.352a4.725,4.725,0,0,1-2.507.466H6.7V17.738h.694a5.332,5.332,0,0,1,2.752.489A3.706,3.706,0,0,1,11.7,21.576,3.511,3.511,0,0,1,10.235,24.788Z" transform="translate(0 -16.288)" fill="#bfc4d5"/>
      <path id="Path_8781" data-name="Path 8781" d="M45.069,33.518c-1.257,0-1.53-.409-1.581-2.274V27.769A5.506,5.506,0,0,0,43,24.927a3.832,3.832,0,0,0-3.349-1.666,5.055,5.055,0,0,0-4.06,2.047l.028-9.1-3.628,3.042a6.135,6.135,0,0,1,.091,1.041V31.255c-.057,1.854-.33,2.235-1.706,2.274H30.24v1.137h6.823V33.529h-.08c-1.137-.085-1.336-.409-1.393-2.274V26.979c.847-1.331,1.706-1.956,2.7-1.956,1.137,0,1.638.705,1.638,2.343v3.889c-.057,1.854-.244,2.155-1.336,2.235H38.4v1.137h6.823V33.49Z" transform="translate(-13.046 -16.193)" fill="#bfc4d5"/>
      <path id="Path_8782" data-name="Path 8782" d="M65.238,33.509c-1.308,0-1.6-.438-1.66-2.274V23.246l-3.628,3.07a4.918,4.918,0,0,1,.114,1.2v3.758c-.051,1.854-.353,2.235-1.706,2.274H58v1.137h7.392V33.549ZM61.781,16.19a2.087,2.087,0,1,0,2.041,2.1,2.064,2.064,0,0,0-2.041-2.1Z" transform="translate(-25.022 -16.184)" fill="#bfc4d5"/>
      <path id="Path_8783" data-name="Path 8783" d="M79.526,33.509c-1.336,0-1.706-.517-1.706-2.274V16.19l-3.633,3.048a1.738,1.738,0,0,1,.045.267,7.507,7.507,0,0,1,.045.785V31.246c-.051,1.854-.324,2.235-1.66,2.274H72.43v1.137h7.284V33.521Z" transform="translate(-31.247 -16.184)" fill="#bfc4d5"/>
      <path id="Path_8784" data-name="Path 8784" d="M100.241,37.71c-.108.6-.438.955-.87.955-.569,0-.762-.438-.762-1.6V32.189c0-1.365-.136-1.8-.711-2.4-.762-.819-2.07-1.2-4.026-1.2-3.241,0-5.686,1.2-5.686,2.809a1.234,1.234,0,0,0,1.359,1.194A1.444,1.444,0,0,0,91.1,31.206a1.859,1.859,0,0,1,.381-.978,2.706,2.706,0,0,1,1.535-.438,2.661,2.661,0,0,1,1.581.466c.353.244.489.762.489,1.632v.842L94,33.139c-.517.216-.927.381-1.171.466a15.022,15.022,0,0,0-4.276,2.337,2.689,2.689,0,0,0-.79,1.882c0,1.467,1.222,2.451,3.048,2.451a7.67,7.67,0,0,0,4.481-1.609,2.815,2.815,0,0,0,2.843,1.609c1.848,0,2.968-.955,3.048-2.564Zm-5.117-.244a3.787,3.787,0,0,1-2.371,1.171,1.5,1.5,0,0,1-1.467-1.552c0-1.194.978-2.013,3.673-3.1l.165-.057Z" transform="translate(-37.86 -21.534)" fill="#bfc4d5"/>
      <path id="Path_8785" data-name="Path 8785" d="M127.442,38.856c-1.279,0-1.552-.409-1.6-2.274V32.92a5.005,5.005,0,0,0-.466-2.7,3.69,3.69,0,0,0-3.241-1.638,5.584,5.584,0,0,0-4.162,1.99,5.521,5.521,0,0,0-.3-1.8l-3.451,2.883a5.181,5.181,0,0,1,.188,1.274v3.645c-.057,1.854-.33,2.235-1.66,2.274h-.114v1.137h6.823V38.856h-.108c-1.171-.085-1.359-.409-1.416-2.274V32.294c.955-1.308,1.825-1.91,2.78-1.91a1.57,1.57,0,0,1,1.575,1.774v4.435c-.051,1.854-.244,2.155-1.331,2.235h-.193v1.137h6.823V38.827Z" transform="translate(-48.589 -21.531)" fill="#bfc4d5"/>
      <path id="Path_8786" data-name="Path 8786" d="M149.289,36.771c-.438.79-.876,1.137-1.5,1.137a.95.95,0,0,1-.921-.54c-.25-.409-.273-.711-.273-2.127v-6.01h3.292v-1.2h-3.292V26.28l-3.514,2.951v6.317c0,2.559,1.171,3.889,3.412,3.889a3.94,3.94,0,0,0,3.815-2.274Z" transform="translate(-61.726 -20.537)" fill="#bfc4d5"/>
      <path id="Path_8787" data-name="Path 8787" d="M172.4,33.518c-1.257,0-1.524-.409-1.581-2.274V27.769a5.505,5.505,0,0,0-.489-2.843,3.832,3.832,0,0,0-3.349-1.666,5.055,5.055,0,0,0-4.06,2.047l.028-9.1-3.628,3.042a5.169,5.169,0,0,1,.091,1.046V31.255c-.057,1.854-.33,2.235-1.706,2.274h-.136v1.137h6.823V33.529h-.08c-1.137-.085-1.336-.409-1.393-2.274V26.979c.847-1.331,1.706-1.956,2.7-1.956,1.137,0,1.638.705,1.638,2.343v3.889c-.057,1.854-.244,2.155-1.336,2.235h-.188v1.137h6.823V33.49Z" transform="translate(-67.977 -16.193)" fill="#bfc4d5"/>
      <path id="Path_8788" data-name="Path 8788" d="M194.627,28.589a4.529,4.529,0,0,0-3.81,2.78,9.61,9.61,0,0,0-.432-2.775l-3.247,2.724a3.707,3.707,0,0,1,.307,1.706v3.565c-.057,1.854-.33,2.235-1.66,2.274h-.165V40h7.352V38.863h-.3c-1.331,0-1.66-.438-1.706-2.274V35.15a5.788,5.788,0,0,1,.677-3.372c.409-.682.87-1.035,1.387-1.035.358,0,.6.165.927.569.569.739.819.927,1.387.927a1.49,1.49,0,0,0,1.444-1.581,2.081,2.081,0,0,0-2.161-2.07Z" transform="translate(-80.078 -21.533)" fill="#bfc4d5"/>
      <path id="Path_8789" data-name="Path 8789" d="M213.685,28.59c-3.758,0-6.425,2.479-6.425,5.965s2.7,5.879,6.533,5.879a5.962,5.962,0,0,0,6.289-5.908C220.082,31.149,217.415,28.59,213.685,28.59Zm-.057,10.65a2.348,2.348,0,0,1-2.013-1.092,7.713,7.713,0,0,1-.569-3.645,7.677,7.677,0,0,1,.569-3.622,2.274,2.274,0,0,1,2.07-1.092c1.876,0,2.61,1.308,2.61,4.685,0,3.508-.705,4.765-2.667,4.765Z" transform="translate(-89.413 -21.534)" fill="#bfc4d5"/>
      <path id="Path_8790" data-name="Path 8790" d="M247.946,29.081c-.87,3.349-2.206,4.52-5.06,4.52h-.711c-2.343-.057-2.746-.466-2.7-2.843V20.694c.028-2.274.466-2.8,2.274-2.775h.517v-1.2h-9.4v1.2h.3c1.825,0,2.274.517,2.274,2.775V30.85c0,2.206-.495,2.843-2.235,2.843h-.353v1.2h16.171l.08-5.8Z" transform="translate(-100.453 -16.413)" fill="#bfc4d5"/>
      <path id="Path_8791" data-name="Path 8791" d="M277.095,37.71c-.114.6-.438.955-.876.955-.569,0-.762-.438-.762-1.6V32.189c0-1.365-.136-1.8-.705-2.4-.762-.819-2.07-1.2-4.031-1.2-3.241,0-5.686,1.2-5.686,2.809a1.24,1.24,0,0,0,1.365,1.194,1.444,1.444,0,0,0,1.552-1.387,1.814,1.814,0,0,1,.381-.978,2.7,2.7,0,0,1,1.552-.438,2.633,2.633,0,0,1,1.575.466c.358.244.495.762.495,1.632v.842l-1.092.409c-.517.216-.927.381-1.171.466a15.1,15.1,0,0,0-4.287,2.337,2.712,2.712,0,0,0-.785,1.882c0,1.467,1.222,2.451,3.048,2.451a7.642,7.642,0,0,0,4.435-1.609,2.82,2.82,0,0,0,2.843,1.609c1.854,0,2.968-.955,3.053-2.564Zm-5.146-.244a3.815,3.815,0,0,1-2.371,1.171,1.5,1.5,0,0,1-1.473-1.552c0-1.194.984-2.013,3.679-3.1l.165-.057Z" transform="translate(-114.159 -21.534)" fill="#bfc4d5"/>
      <path id="Path_8792" data-name="Path 8792" d="M299.392,23.236a5.686,5.686,0,0,0-3.81,1.473V16.18L292,19.228a4.966,4.966,0,0,1,.1,1.1V34.972h.927c.245-.3,1.331-1.331,2.041-1.962A5.277,5.277,0,0,0,299.312,35a5.576,5.576,0,0,0,5.635-5.936A5.456,5.456,0,0,0,299.392,23.236Zm-1.251,10.405a2.434,2.434,0,0,1-2.149-1.137,5.412,5.412,0,0,1-.409-1.421v-4.9a3.855,3.855,0,0,1,2.843-1.473c1.768,0,2.724,1.552,2.724,4.384.011,3-1.023,4.549-2.985,4.549Z" transform="translate(-125.971 -16.18)" fill="#bfc4d5"/>
    </g>
    <path id="Path_8793" data-name="Path 8793" d="M218.146,11.707H216.44V0H231V1.706h-12.85Z" transform="translate(-93.374)" fill="#bfc4d5"/>
    <path id="Path_8794" data-name="Path 8794" d="M318.232,57.217H303.67V55.512h12.856v-10h1.706Z" transform="translate(-131.005 -19.633)" fill="#bfc4d5"/>
  </g>
</svg>
