<svg xmlns="http://www.w3.org/2000/svg" width="124.548" height="17.853" viewBox="0 0 124.548 17.853">
  <g id="renapay" style="mix-blend-mode: normal;isolation: isolate">
    <path id="Path_6285" data-name="Path 6285" d="M1.326.6h3.7V-4.619c0-3.234,1.576-4.674,4.783-4.674V-13.26c-3.041,0-4.451,1.766-4.838,2.88v-2.609H1.326ZM18.881.871A9.43,9.43,0,0,0,24.024-.624L22.641-3.233a6.947,6.947,0,0,1-3.732,1.06,3.649,3.649,0,0,1-3.843-2.772H25.1a11.849,11.849,0,0,0,.083-1.3,6.846,6.846,0,0,0-6.718-7.011,7.038,7.038,0,0,0-7.16,7.065C11.306-1.711,14.845.871,18.881.871Zm-3.87-8.234a3.448,3.448,0,0,1,3.345-2.853A3.322,3.322,0,0,1,21.7-7.363ZM27.618.6h3.7V-6.276c0-2.065,1.244-3.533,3.1-3.533,1.88,0,2.405,1.06,2.405,3.043V.6h3.7V-7.227c0-3.723-1.272-6.033-4.921-6.033a5.189,5.189,0,0,0-4.368,2.092v-1.821H27.618ZM48.988.871a5.379,5.379,0,0,0,4.313-1.9V.6h3.622V-12.988H53.3v1.658a5.441,5.441,0,0,0-4.313-1.929c-3.815,0-6.248,3.152-6.248,7.065S45.173.871,48.988.871Zm.94-3.37a3.447,3.447,0,0,1-3.428-3.7,3.462,3.462,0,0,1,3.428-3.7,3.406,3.406,0,0,1,3.29,3.7C53.218-4.021,51.836-2.5,49.928-2.5Zm9.814,7.011h3.7V-.95A5.413,5.413,0,0,0,67.622.871c3.815,0,6.3-3.152,6.3-7.092,0-3.886-2.433-7.038-6.248-7.038a5.67,5.67,0,0,0-4.423,1.9v-1.63H59.743ZM66.71-2.5a3.391,3.391,0,0,1-3.29-3.7,3.392,3.392,0,0,1,3.29-3.7,3.431,3.431,0,0,1,3.428,3.7A3.431,3.431,0,0,1,66.71-2.5ZM82.164.871a5.379,5.379,0,0,0,4.313-1.9V.6H90.1V-12.988H86.477v1.658a5.441,5.441,0,0,0-4.313-1.929c-3.815,0-6.248,3.152-6.248,7.065S78.349.871,82.164.871ZM83.1-2.5a3.447,3.447,0,0,1-3.428-3.7A3.462,3.462,0,0,1,83.1-9.89a3.406,3.406,0,0,1,3.29,3.7C86.394-4.021,85.012-2.5,83.1-2.5ZM94.329,4.593A5.7,5.7,0,0,0,100.134.979l6.138-13.967h-3.7l-2.516,6.277c-.3.788-.885,2.391-.885,2.391s-.5-1.359-.912-2.31l-2.792-6.359H91.7L97.48-.95l-.3.6c-.5,1.06-1.134,1.63-2.848,1.63Z" transform="translate(-1.326 13.26)" fill="#bfc4d5"/>
    <g id="Group_4419" data-name="Group 4419" transform="translate(124.162 12.941) rotate(180)">
      <line id="Line_767" data-name="Line 767" x2="16.033" fill="none" stroke="#bfc4d5" stroke-width="3"/>
      <line id="Line_768" data-name="Line 768" y1="4.275" x2="16.033" transform="translate(0 5.344)" fill="none" stroke="#bfc4d5" stroke-width="3"/>
    </g>
  </g>
</svg>
