<svg id="RIL" xmlns="http://www.w3.org/2000/svg" width="82.609" height="37.221" viewBox="0 0 82.609 37.221">
  <g id="RIL-2" data-name="RIL">
    <rect id="Rectangle_1683" data-name="Rectangle 1683" width="9.562" height="3.188" transform="translate(0.001)" fill="#bfc4d5"/>
    <rect id="Rectangle_1684" data-name="Rectangle 1684" width="9.562" height="3.188" transform="translate(3.188) rotate(90)" fill="#bfc4d5"/>
    <rect id="Rectangle_1685" data-name="Rectangle 1685" width="9.562" height="3.188" transform="translate(0.001 34.023)" fill="#bfc4d5"/>
    <rect id="Rectangle_1686" data-name="Rectangle 1686" width="9.562" height="3.188" transform="translate(0.001 37.211) rotate(-90)" fill="#bfc4d5"/>
    <rect id="Rectangle_1687" data-name="Rectangle 1687" width="6.374" height="3.188" transform="translate(0.001 24.877) rotate(-90)" fill="#bfc4d5"/>
    <circle id="Ellipse_526" data-name="Ellipse 526" cx="1.566" cy="1.566" r="1.566" transform="translate(0.029 12.373)" fill="#bfc4d5"/>
    <rect id="Rectangle_1688" data-name="Rectangle 1688" width="9.562" height="3.188" transform="translate(31.193 37.212) rotate(180)" fill="#bfc4d5"/>
    <rect id="Rectangle_1689" data-name="Rectangle 1689" width="9.562" height="3.188" transform="translate(28.567 37.212) rotate(-90)" fill="#bfc4d5"/>
    <rect id="Rectangle_1690" data-name="Rectangle 1690" width="9.562" height="3.188" transform="translate(31.193 3.188) rotate(180)" fill="#bfc4d5"/>
    <rect id="Rectangle_1691" data-name="Rectangle 1691" width="9.562" height="3.188" transform="translate(31.754) rotate(90)" fill="#bfc4d5"/>
    <rect id="Rectangle_1692" data-name="Rectangle 1692" width="6.374" height="3.188" transform="translate(31.754 12.334) rotate(90)" fill="#bfc4d5"/>
    <circle id="Ellipse_527" data-name="Ellipse 527" cx="1.566" cy="1.566" r="1.566" transform="translate(28.595 21.706)" fill="#bfc4d5"/>
    <path id="Path_4109" data-name="Path 4109" d="M365.036,143.151a2.533,2.533,0,0,1-1.851-.653,2.47,2.47,0,0,1-.666-1.851,2.719,2.719,0,0,1,.616-1.9,2.2,2.2,0,0,1,1.7-.673,2.163,2.163,0,0,1,1.618.591,2.246,2.246,0,0,1,.583,1.636v.649h-3.164a1.277,1.277,0,0,0,.337.89,1.186,1.186,0,0,0,.886.319,3.731,3.731,0,0,0,.839-.092,4.229,4.229,0,0,0,.826-.293V142.8a3.085,3.085,0,0,1-.743.261A4.691,4.691,0,0,1,365.036,143.151Zm-.188-4.131a.851.851,0,0,0-.667.27,1.25,1.25,0,0,0-.277.765h1.877a1.108,1.108,0,0,0-.259-.765.875.875,0,0,0-.674-.272Z" transform="translate(-325.051 -123.838)" fill="#bfc4d5"/>
    <path id="Path_4110" data-name="Path 4110" d="M417.186,143.06h-1.338V140.2a1.377,1.377,0,0,0-.188-.8.686.686,0,0,0-.6-.265.909.909,0,0,0-.812.374,2.325,2.325,0,0,0-.248,1.244v2.3h-1.34v-4.9h1.024l.18.627h.074a1.42,1.42,0,0,1,.616-.537,2.1,2.1,0,0,1,.893-.182,1.722,1.722,0,0,1,1.3.463,1.842,1.842,0,0,1,.444,1.338Z" transform="translate(-370.01 -123.834)" fill="#bfc4d5"/>
    <path id="Path_4111" data-name="Path 4111" d="M465.988,143l-.259-.666h-.036a1.982,1.982,0,0,1-.7.59,2.247,2.247,0,0,1-.932.165,1.505,1.505,0,0,1-1.111-.4,1.553,1.553,0,0,1-.406-1.149,1.3,1.3,0,0,1,.547-1.152,3.153,3.153,0,0,1,1.646-.413l.851-.026v-.21a.667.667,0,0,0-.763-.743,3.485,3.485,0,0,0-1.383.355l-.443-.9a3.99,3.99,0,0,1,1.878-.444,2.355,2.355,0,0,1,1.513.425,1.58,1.58,0,0,1,.527,1.307V143Zm-.395-2.272-.518.018a1.634,1.634,0,0,0-.868.213.661.661,0,0,0-.285.587q0,.566.65.566a1.024,1.024,0,0,0,.743-.268.936.936,0,0,0,.278-.71Z" transform="translate(-414.74 -123.773)" fill="#bfc4d5"/>
    <path id="Path_4112" data-name="Path 4112" d="M538.192,141.608a1.351,1.351,0,0,1-.524,1.149,2.588,2.588,0,0,1-1.57.395,4.949,4.949,0,0,1-.909-.073,3.432,3.432,0,0,1-.706-.213v-1.105a4.649,4.649,0,0,0,.84.293,3.355,3.355,0,0,0,.821.119c.485,0,.729-.14.729-.425a.354.354,0,0,0-.1-.256,1.4,1.4,0,0,0-.33-.223q-.238-.126-.632-.292a4.025,4.025,0,0,1-.831-.439,1.252,1.252,0,0,1-.387-.463,1.539,1.539,0,0,1-.121-.639,1.171,1.171,0,0,1,.506-1.011,2.468,2.468,0,0,1,1.437-.358,4.075,4.075,0,0,1,1.723.387l-.4.964a7.017,7.017,0,0,0-.69-.259,2.165,2.165,0,0,0-.653-.107q-.592,0-.591.319a.377.377,0,0,0,.19.311,5.228,5.228,0,0,0,.835.391,3.839,3.839,0,0,1,.843.434,1.29,1.29,0,0,1,.4.465A1.438,1.438,0,0,1,538.192,141.608Z" transform="translate(-479.216 -123.838)" fill="#bfc4d5"/>
    <path id="Path_4113" data-name="Path 4113" d="M577.585,141.67a1.35,1.35,0,0,1-.525,1.149,2.59,2.59,0,0,1-1.57.395,4.962,4.962,0,0,1-.913-.073,3.423,3.423,0,0,1-.706-.213v-1.105a4.638,4.638,0,0,0,.839.293,3.364,3.364,0,0,0,.826.119q.728,0,.728-.425a.349.349,0,0,0-.1-.256,1.358,1.358,0,0,0-.331-.223q-.236-.126-.631-.292a4,4,0,0,1-.831-.439,1.239,1.239,0,0,1-.391-.455,1.523,1.523,0,0,1-.121-.639,1.164,1.164,0,0,1,.506-1.011,2.465,2.465,0,0,1,1.435-.358,4.075,4.075,0,0,1,1.724.387l-.4.964a7.131,7.131,0,0,0-.688-.259,2.171,2.171,0,0,0-.654-.107q-.592,0-.592.319a.376.376,0,0,0,.192.311,5.181,5.181,0,0,0,.835.391,3.8,3.8,0,0,1,.842.434,1.278,1.278,0,0,1,.395.465,1.425,1.425,0,0,1,.128.627Z" transform="translate(-514.533 -123.9)" fill="#bfc4d5"/>
    <path id="Path_4114" data-name="Path 4114" d="M616.545,143l-.255-.661h-.036a1.982,1.982,0,0,1-.7.59,2.246,2.246,0,0,1-.932.165,1.505,1.505,0,0,1-1.111-.4,1.553,1.553,0,0,1-.406-1.149,1.3,1.3,0,0,1,.547-1.152,3.153,3.153,0,0,1,1.646-.413l.851-.026v-.215a.667.667,0,0,0-.762-.743,3.484,3.484,0,0,0-1.383.355l-.443-.9a3.989,3.989,0,0,1,1.874-.444,2.355,2.355,0,0,1,1.513.425,1.58,1.58,0,0,1,.527,1.307V143Zm-.395-2.272-.518.018a1.635,1.635,0,0,0-.868.213.661.661,0,0,0-.285.587c0,.378.213.566.649.566a1.025,1.025,0,0,0,.744-.269.939.939,0,0,0,.279-.71Z" transform="translate(-549.739 -123.773)" fill="#bfc4d5"/>
    <path id="Path_4115" data-name="Path 4115" d="M669.106,143.06h-1.337V140.2a1.377,1.377,0,0,0-.188-.8.687.687,0,0,0-.6-.265.909.909,0,0,0-.812.374,2.324,2.324,0,0,0-.248,1.244v2.3H664.58v-4.9H665.6l.18.627h.074a1.409,1.409,0,0,1,.616-.537,2.1,2.1,0,0,1,.893-.182,1.722,1.722,0,0,1,1.3.463,1.837,1.837,0,0,1,.443,1.338Z" transform="translate(-596.171 -123.834)" fill="#bfc4d5"/>
    <path id="Path_4116" data-name="Path 4116" d="M717.017,143.148q-2.288,0-2.288-2.513a2.68,2.68,0,0,1,.622-1.91,2.335,2.335,0,0,1,1.784-.661,3.4,3.4,0,0,1,1.527.33l-.394,1.035q-.319-.128-.588-.213a1.88,1.88,0,0,0-.544-.083q-1.043,0-1.043,1.482,0,1.438,1.043,1.438a2.364,2.364,0,0,0,.715-.107,2.611,2.611,0,0,0,.661-.319v1.145a2.165,2.165,0,0,1-.655.285,3.713,3.713,0,0,1-.836.083Z" transform="translate(-640.984 -123.834)" fill="#bfc4d5"/>
    <path id="Path_4117" data-name="Path 4117" d="M758.106,143.151a2.53,2.53,0,0,1-1.85-.653,2.478,2.478,0,0,1-.667-1.851,2.719,2.719,0,0,1,.616-1.9,2.2,2.2,0,0,1,1.7-.673,2.159,2.159,0,0,1,1.618.591,2.249,2.249,0,0,1,.578,1.636v.649H756.94a1.285,1.285,0,0,0,.337.89,1.192,1.192,0,0,0,.886.319,3.723,3.723,0,0,0,.838-.092,4.24,4.24,0,0,0,.826-.293V142.8a3.115,3.115,0,0,1-.75.259,4.692,4.692,0,0,1-.971.089Zm-.188-4.131a.851.851,0,0,0-.667.27,1.249,1.249,0,0,0-.276.765h1.877a1.122,1.122,0,0,0-.258-.765.879.879,0,0,0-.675-.272Z" transform="translate(-677.497 -123.838)" fill="#bfc4d5"/>
    <path id="Path_4118" data-name="Path 4118" d="M357.276,227.47h-1.337v-2.863a1.376,1.376,0,0,0-.189-.8.686.686,0,0,0-.6-.265.909.909,0,0,0-.812.374,2.322,2.322,0,0,0-.248,1.239v2.306h-1.34v-4.9h1.023l.18.627h.074a1.4,1.4,0,0,1,.616-.537,2.1,2.1,0,0,1,.891-.182,1.722,1.722,0,0,1,1.3.463,1.836,1.836,0,0,1,.444,1.335Z" transform="translate(-316.292 -199.542)" fill="#bfc4d5"/>
    <path id="Path_4119" data-name="Path 4119" d="M410.225,227.47h-1.337v-2.863a1.377,1.377,0,0,0-.188-.8.687.687,0,0,0-.6-.265.9.9,0,0,0-.81.374,2.335,2.335,0,0,0-.248,1.239v2.306H405.7v-4.9h1.021l.18.627h.074a1.408,1.408,0,0,1,.616-.537,2.1,2.1,0,0,1,.893-.182,1.722,1.722,0,0,1,1.3.463,1.833,1.833,0,0,1,.443,1.335Z" transform="translate(-363.77 -199.542)" fill="#bfc4d5"/>
    <path id="Path_4120" data-name="Path 4120" d="M460.586,225.01a2.637,2.637,0,0,1-.631,1.873,2.288,2.288,0,0,1-1.759.676,2.456,2.456,0,0,1-1.245-.31,2.054,2.054,0,0,1-.826-.887,2.978,2.978,0,0,1-.289-1.352,2.62,2.62,0,0,1,.627-1.869,2.3,2.3,0,0,1,1.763-.666,2.479,2.479,0,0,1,1.245.306,2.051,2.051,0,0,1,.826.882,2.947,2.947,0,0,1,.289,1.346Zm-3.387,0a2.059,2.059,0,0,0,.24,1.1.991.991,0,0,0,1.548,0,2.057,2.057,0,0,0,.235-1.1,2.02,2.02,0,0,0-.237-1.091,1.007,1.007,0,0,0-1.548,0,2.025,2.025,0,0,0-.241,1.094Z" transform="translate(-408.724 -199.543)" fill="#bfc4d5"/>
    <path id="Path_4121" data-name="Path 4121" d="M503.639,228.252l-1.869-4.9h1.4l.947,2.793a4.993,4.993,0,0,1,.2,1h.026a4.31,4.31,0,0,1,.2-1l.943-2.793h1.4l-1.869,4.9Z" transform="translate(-449.921 -200.325)" fill="#bfc4d5"/>
    <path id="Path_4122" data-name="Path 4122" d="M554.237,227.435l-.259-.666h-.035a1.973,1.973,0,0,1-.695.59,2.248,2.248,0,0,1-.932.165,1.509,1.509,0,0,1-1.112-.4,1.544,1.544,0,0,1-.406-1.149,1.3,1.3,0,0,1,.546-1.152,3.146,3.146,0,0,1,1.647-.409l.851-.026v-.213a.667.667,0,0,0-.764-.743,3.49,3.49,0,0,0-1.383.355l-.443-.9a3.977,3.977,0,0,1,1.877-.443,2.355,2.355,0,0,1,1.513.425,1.577,1.577,0,0,1,.525,1.307v3.266Zm-.394-2.272-.518.018a1.638,1.638,0,0,0-.868.213.661.661,0,0,0-.285.587c0,.377.213.566.649.566a1.029,1.029,0,0,0,.744-.268.939.939,0,0,0,.278-.71Z" transform="translate(-493.869 -199.51)" fill="#bfc4d5"/>
    <path id="Path_4123" data-name="Path 4123" d="M600.22,218.507a2.907,2.907,0,0,0,.842-.153v1a3,3,0,0,1-1.228.223,1.508,1.508,0,0,1-1.171-.406,1.755,1.755,0,0,1-.365-1.217v-2.364h-.639v-.565l.736-.448.387-1.034h.851v1.041h1.374v1h-1.371v2.364a.522.522,0,0,0,.16.425A.632.632,0,0,0,600.22,218.507Z" transform="translate(-535.865 -191.551)" fill="#bfc4d5"/>
    <path id="Path_4124" data-name="Path 4124" d="M661.586,225.01a2.637,2.637,0,0,1-.631,1.873,2.288,2.288,0,0,1-1.759.676,2.456,2.456,0,0,1-1.245-.31,2.054,2.054,0,0,1-.826-.887,2.979,2.979,0,0,1-.289-1.352,2.621,2.621,0,0,1,.627-1.869,2.3,2.3,0,0,1,1.763-.666,2.479,2.479,0,0,1,1.245.306,2.051,2.051,0,0,1,.826.882,2.949,2.949,0,0,1,.289,1.346Zm-3.387,0a2.058,2.058,0,0,0,.24,1.1.991.991,0,0,0,1.548,0,2.057,2.057,0,0,0,.236-1.1,2.022,2.022,0,0,0-.237-1.091,1.007,1.007,0,0,0-1.548,0,1.994,1.994,0,0,0-.241,1.094Z" transform="translate(-589.247 -199.543)" fill="#bfc4d5"/>
    <path id="Path_4125" data-name="Path 4125" d="M713.9,227.47h-1.337v-2.863a1.377,1.377,0,0,0-.188-.8.686.686,0,0,0-.6-.265.9.9,0,0,0-.81.374,2.335,2.335,0,0,0-.248,1.239v2.306h-1.34v-4.9h1.024l.18.627h.074a1.409,1.409,0,0,1,.616-.537,2.1,2.1,0,0,1,.893-.182,1.722,1.722,0,0,1,1.3.463,1.833,1.833,0,0,1,.443,1.335Z" transform="translate(-636.195 -199.542)" fill="#bfc4d5"/>
    <path id="Path_4126" data-name="Path 4126" d="M372.127,316.63l-.259-.667h-.031a1.982,1.982,0,0,1-.695.591,2.247,2.247,0,0,1-.932.165,1.5,1.5,0,0,1-1.112-.4,1.556,1.556,0,0,1-.406-1.149,1.3,1.3,0,0,1,.546-1.152,3.15,3.15,0,0,1,1.646-.413l.851-.026v-.213a.667.667,0,0,0-.763-.743,3.49,3.49,0,0,0-1.383.355l-.439-.909a4,4,0,0,1,1.877-.443,2.353,2.353,0,0,1,1.513.425,1.6,1.6,0,0,1,.532,1.307v3.267Zm-.395-2.272-.517.017a1.631,1.631,0,0,0-.868.213.661.661,0,0,0-.284.588q0,.566.649.566a1.028,1.028,0,0,0,.743-.267.94.94,0,0,0,.278-.71Z" transform="translate(-330.582 -279.506)" fill="#bfc4d5"/>
    <path id="Path_4127" data-name="Path 4127" d="M422.9,301.246a1.585,1.585,0,0,1,1.36.677,3.1,3.1,0,0,1,.5,1.858,3.056,3.056,0,0,1-.506,1.881,1.643,1.643,0,0,1-1.383.666,1.625,1.625,0,0,1-1.355-.627h-.092l-.223.539H420.17V300h1.337v1.011c0,.2-.018.525-.053.968h.053a1.551,1.551,0,0,1,1.393-.734Zm-.425,1.074a.843.843,0,0,0-.724.3,1.746,1.746,0,0,0-.237,1.006v.145a2.069,2.069,0,0,0,.234,1.132.838.838,0,0,0,.743.341.743.743,0,0,0,.655-.378,2.053,2.053,0,0,0,.244-1.1,1.944,1.944,0,0,0-.248-1.085.769.769,0,0,0-.675-.362Z" transform="translate(-376.744 -269.118)" fill="#bfc4d5"/>
    <path id="Path_4128" data-name="Path 4128" d="M471.957,315.322a1.35,1.35,0,0,1-.525,1.149,2.59,2.59,0,0,1-1.57.395,4.949,4.949,0,0,1-.909-.073,3.407,3.407,0,0,1-.706-.213v-1.107a4.668,4.668,0,0,0,.839.293,3.412,3.412,0,0,0,.826.118q.728,0,.728-.425a.353.353,0,0,0-.1-.256,1.391,1.391,0,0,0-.33-.223c-.158-.083-.368-.181-.631-.292a3.945,3.945,0,0,1-.835-.43,1.243,1.243,0,0,1-.387-.463,1.537,1.537,0,0,1-.121-.639,1.171,1.171,0,0,1,.506-1.011,2.463,2.463,0,0,1,1.437-.358,4.068,4.068,0,0,1,1.722.386l-.4.965a7.31,7.31,0,0,0-.688-.259,2.162,2.162,0,0,0-.653-.1q-.592,0-.592.319a.374.374,0,0,0,.191.311,5.086,5.086,0,0,0,.835.391,3.9,3.9,0,0,1,.842.434,1.276,1.276,0,0,1,.395.465A1.423,1.423,0,0,1,471.957,315.322Z" transform="translate(-419.826 -279.652)" fill="#bfc4d5"/>
    <path id="Path_4129" data-name="Path 4129" d="M332.709,138.94v1.28h-1.85v3.622H329.52v-4.9Z" transform="translate(-295.446 -124.617)" fill="#bfc4d5"/>
    <path id="Path_4130" data-name="Path 4130" d="M333,306.194v-1.279h-2.139V299.95H329.52v6.244Z" transform="translate(-295.45 -269.073)" fill="#bfc4d5"/>
    <path id="Path_4131" data-name="Path 4131" d="M330.858,228.252H329.52v-4.9h1.338Z" transform="translate(-295.424 -200.325)" fill="#bfc4d5"/>
    <ellipse id="Ellipse_528" data-name="Ellipse 528" cx="0.73" cy="0.705" rx="0.73" ry="0.705" transform="translate(34.035 21.156)" fill="#bfc4d5"/>
    <path id="Path_4132" data-name="Path 4132" d="M637.749,228.252H636.41v-4.9h1.34Z" transform="translate(-570.562 -200.325)" fill="#bfc4d5"/>
    <ellipse id="Ellipse_529" data-name="Ellipse 529" cx="0.73" cy="0.705" rx="0.73" ry="0.705" transform="translate(65.787 21.156)" fill="#bfc4d5"/>
    <path id="Path_4133" data-name="Path 4133" d="M515.4,143.84H514.06v-4.9H515.4Z" transform="translate(-460.871 -124.617)" fill="#bfc4d5"/>
    <ellipse id="Ellipse_530" data-name="Ellipse 530" cx="0.73" cy="0.705" rx="0.73" ry="0.705" transform="translate(53.127 12.428)" fill="#bfc4d5"/>
  </g>
</svg>
