<svg id="sheltr" xmlns="http://www.w3.org/2000/svg" width="90.778" height="24.875" viewBox="0 0 90.778 24.875">
  <g id="Landing">
    <g id="Group" transform="translate(0)">
      <g id="Sheltr-Colored">
        <path id="Path" d="M7.485,28.1a14.014,14.014,0,0,1-7.326-1.64V22.1a11.915,11.915,0,0,0,3.193,1.413,13.7,13.7,0,0,0,3.923.574q3,0,3-1.464,0-.7-.873-1.083A4.653,4.653,0,0,0,8.5,21.23l-1.29-.313-.75-.193a6.321,6.321,0,0,1-.646-.19,10.791,10.791,0,0,1-4.377-2.006,4.382,4.382,0,0,1-1.273-3.4A4.521,4.521,0,0,1,2.2,11.221,9.67,9.67,0,0,1,7.832,9.788a12.034,12.034,0,0,1,6.523,1.606v4.186a12.371,12.371,0,0,0-6.313-1.816c-1.859,0-2.79.468-2.79,1.4a.88.88,0,0,0,.157.506,1.225,1.225,0,0,0,.313.33c.106.07.272.176.506.313.14.048.4.123.767.227a4.239,4.239,0,0,1,.723.241l1.85.383a9.208,9.208,0,0,1,4.29,1.97,4.612,4.612,0,0,1,1.394,3.54,4.614,4.614,0,0,1-2.127,3.943A9.538,9.538,0,0,1,7.485,28.1Z" transform="translate(-0.157 -3.232)" fill="#bfc4d5"/>
        <path id="Shape" d="M64.136,28.1a9.9,9.9,0,0,1-6.872-2.513,8.521,8.521,0,0,1-2.79-6.663,9,9,0,0,1,2.513-6.487,8.8,8.8,0,0,1,6.557-2.653,7.479,7.479,0,0,1,6.028,2.686A9.825,9.825,0,0,1,71.838,19v1.29H59.356a4.039,4.039,0,0,0,1.929,2.686,7.372,7.372,0,0,0,3.89.943,11.093,11.093,0,0,0,5.58-1.536v3.943A10.715,10.715,0,0,1,64.136,28.1ZM59.356,17.15H67a3.634,3.634,0,0,0-1.063-2.5,3.523,3.523,0,0,0-2.6-.993,3.95,3.95,0,0,0-2.72.965,3.81,3.81,0,0,0-1.256,2.525Z" transform="translate(-18.091 -3.232)" fill="#bfc4d5"/>
        <path id="Path-2" data-name="Path" d="M88.593,24.871a4.734,4.734,0,0,1-3.4-1.17,4.847,4.847,0,0,1-1.239-3.644V0h4.919V18.765q0,1.748,1.57,1.746A2.412,2.412,0,0,0,91.7,20.2v4.046a6.892,6.892,0,0,1-3.106.629Z" transform="translate(-27.825)" fill="#bfc4d5"/>
        <path id="Path-3" data-name="Path" d="M98.354,20.112V12.227H94.937V8.113h3.417V3.334h4.919V8.113h4.953v4.114h-4.953v6.909A2.617,2.617,0,0,0,103.83,21a2.431,2.431,0,0,0,1.813.576,5.657,5.657,0,0,0,2.547-.627v4.08a7.853,7.853,0,0,1-4.15.943Q98.354,25.972,98.354,20.112Z" transform="translate(-31.451 -1.101)" fill="#bfc4d5"/>
        <path id="Path-4" data-name="Path" d="M123.381,27.649h-4.907V10.243h4.907v2.93a6.662,6.662,0,0,1,2.443-2.373,6.993,6.993,0,0,1,3.617-1.013,2.74,2.74,0,0,1,.559.036v4.823a6.355,6.355,0,0,0-1.536-.174,5.735,5.735,0,0,0-3.121.89,4.942,4.942,0,0,0-1.963,2.134Z" transform="translate(-39.222 -3.231)" fill="#bfc4d5"/>
        <path id="Path-5" data-name="Path" d="M31.006,5.1V.05L26.08,2.782V7.846Z" transform="translate(-8.716 -0.017)" fill="#bfc4d5"/>
        <path id="Path-6" data-name="Path" d="M33.808,10.533,27.069,14A1.806,1.806,0,0,0,26.08,15.6V27.83h4.926V16.737h6.933V27.83h5.238V15.6A1.8,1.8,0,0,0,42.2,14L35.46,10.533A1.813,1.813,0,0,0,33.808,10.533Z" transform="translate(-8.716 -3.412)" fill="#bfc4d5"/>
      </g>
    </g>
  </g>
</svg>
