<svg id="social_safety" data-name="social safety" xmlns="http://www.w3.org/2000/svg" width="173.997" height="35.221" viewBox="0 0 173.997 35.221">
  <g id="Group_7157" data-name="Group 7157" transform="translate(-0.003 0.008)">
    <g id="Group_7155" data-name="Group 7155" transform="translate(10.97)">
      <path id="Path_8795" data-name="Path 8795" d="M3001.83,1300.74a1.42,1.42,0,0,1-2.007,0l-7.288-7.288c-.023-.023-.047-.048-.069-.073a12.693,12.693,0,0,1-4.988,2.363,11.747,11.747,0,0,0,.956-3.274,9.932,9.932,0,1,0-12.689-13.6,11.8,11.8,0,0,0-3.335.726A12.772,12.772,0,1,1,2994.5,1291.4l.042.041,7.288,7.288a1.421,1.421,0,0,1,0,2.01Z" transform="translate(-2972.415 -1270.521)" fill="#bfc4d5"/>
    </g>
    <g id="Group_7156" data-name="Group 7156" transform="translate(0 9.61)">
      <path id="Path_8796" data-name="Path 8796" d="M2952.99,1300.81a10.727,10.727,0,0,0-1.4.092,10.519,10.519,0,0,0-3.145.926,10.667,10.667,0,0,0-4.021,16c-.03.025-.058.05-.085.077l-6.086,6.087a1.419,1.419,0,1,0,2.006,2.007l6.087-6.087.052-.054a10.666,10.666,0,1,0,6.594-19.049Zm7.448,13.075a7.827,7.827,0,1,1-1.117-7.014,7.827,7.827,0,0,1,1.117,7.014Z" transform="translate(-2937.836 -1300.812)" fill="#bfc4d5"/>
      <path id="Path_8797" data-name="Path 8797" d="M2982.2,1323.16a6.572,6.572,0,0,1-1.664,2.515,12.782,12.782,0,0,1-8.917-9.556,6.549,6.549,0,0,1,2.624-1.486,9.955,9.955,0,0,0,7.957,8.527Z" transform="translate(-2960.898 -1310.245)" fill="#bfc4d5"/>
    </g>
  </g>
  <g id="Group_7158" data-name="Group 7158" transform="translate(50.954 6.908)">
    <path id="Path_8798" data-name="Path 8798" d="M3110.21,1304.85a4.424,4.424,0,0,1-1.507,3.47,6.091,6.091,0,0,1-4.184,1.329,6.216,6.216,0,0,1-6.067-3.648l2.776-1.428a3.577,3.577,0,0,0,3.391,2.161c1.368,0,2.359-.694,2.359-1.646a1.192,1.192,0,0,0-.615-1.071,8.853,8.853,0,0,0-2.32-.932,9.135,9.135,0,0,1-3.787-1.884,3.846,3.846,0,0,1-1.19-2.875,4.161,4.161,0,0,1,1.586-3.351,5.731,5.731,0,0,1,3.827-1.329,5.528,5.528,0,0,1,5.452,3.351l-2.657,1.447a2.922,2.922,0,0,0-2.935-1.9c-1.269,0-2.062.655-2.062,1.586s.734,1.408,2.5,1.9C3108.49,1301.08,3110.21,1302.37,3110.21,1304.85Z" transform="translate(-3098.455 -1293.21)" fill="#bfc4d5"/>
    <path id="Path_8799" data-name="Path 8799" d="M3139.64,1310.81a5.8,5.8,0,0,1,4.125-1.606,5.737,5.737,0,0,1,4.084,1.586,5.142,5.142,0,0,1,1.666,3.906,5.259,5.259,0,0,1-1.685,3.986,5.821,5.821,0,0,1-4.1,1.586,5.736,5.736,0,0,1-4.1-1.567,5.486,5.486,0,0,1,.021-7.892Zm2.241,5.869a2.688,2.688,0,0,0,3.708-3.886,2.5,2.5,0,0,0-1.864-.773,2.454,2.454,0,0,0-1.844.773,2.631,2.631,0,0,0-.754,1.923,2.723,2.723,0,0,0,.753,1.964Z" transform="translate(-3125.426 -1303.835)" fill="#bfc4d5"/>
    <path id="Path_8800" data-name="Path 8800" d="M3178.44,1318.71a5.583,5.583,0,0,1,4.1-9.5,4.974,4.974,0,0,1,5,3.271l-2.717,1.13a2.345,2.345,0,0,0-2.28-1.567,2.691,2.691,0,0,0,0,5.374,2.368,2.368,0,0,0,2.34-1.567l2.736,1.13a5.118,5.118,0,0,1-5.1,3.292,5.592,5.592,0,0,1-4.084-1.565Z" transform="translate(-3151.969 -1303.835)" fill="#bfc4d5"/>
    <path id="Path_8801" data-name="Path 8801" d="M3217.44,1294.19a1.924,1.924,0,1,1-1.947-1.923,1.9,1.9,0,0,1,1.947,1.923Zm-3.47,14.276v-10.588h3.113v10.588Z" transform="translate(-3177.062 -1292.271)" fill="#bfc4d5"/>
    <path id="Path_8802" data-name="Path 8802" d="M3230.25,1319.38a2.836,2.836,0,0,1-1.031-2.3v-.04a2.759,2.759,0,0,1,1.566-2.617,7.122,7.122,0,0,1,3.153-.635h1.051q.833,0,.833-.773c0-.734-.6-1.309-1.706-1.309a2.547,2.547,0,0,0-2.359,1.428l-2.36-1.408c.912-1.685,2.538-2.518,4.858-2.518,2.8,0,4.6,1.487,4.6,4.263v6.563H3236v-1.309l-.04-.02a3.632,3.632,0,0,1-3.172,1.527,3.852,3.852,0,0,1-2.537-.852Zm5.552-3.45v-.238h-1.864c-.892,0-1.606.417-1.606,1.21,0,.714.555,1.071,1.348,1.071a1.968,1.968,0,0,0,2.12-2.043Z" transform="translate(-3187.73 -1303.835)" fill="#bfc4d5"/>
    <path id="Path_8803" data-name="Path 8803" d="M3268.89,1308.56h-3.113V1292.4h3.113Z" transform="translate(-3212.693 -1292.356)" fill="#bfc4d5"/>
    <path id="Path_8804" data-name="Path 8804" d="M3303.72,1304.85a4.424,4.424,0,0,1-1.507,3.47,6.089,6.089,0,0,1-4.184,1.329,6.216,6.216,0,0,1-6.069-3.648l2.776-1.428a3.577,3.577,0,0,0,3.391,2.161c1.368,0,2.359-.694,2.359-1.646a1.191,1.191,0,0,0-.615-1.071,8.855,8.855,0,0,0-2.32-.932,9.135,9.135,0,0,1-3.787-1.884,3.845,3.845,0,0,1-1.19-2.875,4.161,4.161,0,0,1,1.586-3.351,5.733,5.733,0,0,1,3.827-1.329,5.529,5.529,0,0,1,5.453,3.351l-2.657,1.447a2.921,2.921,0,0,0-2.935-1.9c-1.269,0-2.062.655-2.062,1.586s.733,1.408,2.5,1.9C3302,1301.08,3303.72,1302.37,3303.72,1304.85Z" transform="translate(-3230.573 -1293.21)" fill="#bfc4d5"/>
    <path id="Path_8805" data-name="Path 8805" d="M3332.69,1319.38a2.837,2.837,0,0,1-1.031-2.3v-.04a2.759,2.759,0,0,1,1.567-2.617,7.119,7.119,0,0,1,3.152-.635h1.051q.833,0,.833-.773c0-.734-.595-1.309-1.705-1.309a2.548,2.548,0,0,0-2.36,1.428l-2.359-1.408c.912-1.685,2.538-2.518,4.858-2.518,2.8,0,4.6,1.487,4.6,4.263v6.563h-2.855v-1.309l-.04-.02a3.632,3.632,0,0,1-3.172,1.527,3.85,3.85,0,0,1-2.539-.852Zm5.552-3.45v-.238h-1.864c-.892,0-1.606.417-1.606,1.21,0,.714.555,1.071,1.348,1.071a1.968,1.968,0,0,0,2.12-2.043Z" transform="translate(-3257.672 -1303.835)" fill="#bfc4d5"/>
    <path id="Path_8806" data-name="Path 8806" d="M3372.84,1295.03a3.279,3.279,0,0,0-.952-.119,1.7,1.7,0,0,0-1.884,1.864v1.11h2.776v2.637h-2.756v7.951h-3.093v-7.951h-1.9v-2.637h1.9v-1.051c0-2.756,1.467-4.561,4.461-4.561a4.911,4.911,0,0,1,1.449.219Z" transform="translate(-3280.46 -1292.271)" fill="#bfc4d5"/>
    <path id="Path_8807" data-name="Path 8807" d="M3392.94,1315.55a2.484,2.484,0,0,0,2.617,2.082,2.835,2.835,0,0,0,2.359-1.269l2.241,1.467a4.765,4.765,0,0,1-4.561,2.4,5.9,5.9,0,0,1-4.144-1.547,5.552,5.552,0,0,1-.021-7.911,5.466,5.466,0,0,1,3.967-1.626,5.032,5.032,0,0,1,5.274,5.294c0,.5-.02.872-.04,1.11Zm4.64-2.042a2.092,2.092,0,0,0-2.26-1.844,2.358,2.358,0,0,0-2.3,1.844Z" transform="translate(-3297.36 -1303.792)" fill="#bfc4d5"/>
    <path id="Path_8808" data-name="Path 8808" d="M3432.16,1313.36a4.9,4.9,0,0,1-1.447.2c-2.756,0-4.2-1.507-4.2-3.985v-4.065h-1.9v-2.677h1.943v-3.312h3.053v3.312h2.618v2.677H3429.6v3.688c0,1.21.635,1.686,1.844,1.686a2.716,2.716,0,0,0,.714-.079Z" transform="translate(-3321.13 -1297.221)" fill="#bfc4d5"/>
    <path id="Path_8809" data-name="Path 8809" d="M3449.73,1309.96h3.41l2.637,6.047,2.36-6.047h3.192l-6.424,15.8h-3.311l2.6-6.345Z" transform="translate(-3338.286 -1304.347)" fill="#bfc4d5"/>
  </g>
</svg>
