<svg id="swys" xmlns="http://www.w3.org/2000/svg" width="77.26" height="23.465" viewBox="0 0 77.26 23.465">
  <g id="Group_22" data-name="Group 22" transform="translate(56.549)">
    <path id="Path_3" data-name="Path 3" d="M669.2,96.221v.987H654.18l12.729-2.76c.036-.009.072-.017.11-.025a1.822,1.822,0,0,1,.348-.033,1.789,1.789,0,0,1,.545.083c.028.008.056.017.085.028a1.832,1.832,0,0,1,1.2,1.56A1.339,1.339,0,0,1,669.2,96.221Z" transform="translate(-654.18 -94.39)" fill="#bfc4d5"/>
    <path id="Path_4" data-name="Path 4" d="M684.268,116.458a.872.872,0,0,0-.085-.028,1.79,1.79,0,0,0-.545-.083H666.72l14.845,4.991c.042.013.085.027.127.042a2.4,2.4,0,0,1,.975.667,2.484,2.484,0,0,1,.46.749,2.448,2.448,0,0,1,.168.89v9.336a1.785,1.785,0,0,0,.345.033,1.824,1.824,0,0,0,1.824-1.824V118.018A1.831,1.831,0,0,0,684.268,116.458Zm-.488,2.9H683.3v.48a.426.426,0,0,1-.852,0v-.48h-.479a.426.426,0,0,1-.427-.425.42.42,0,0,1,.125-.3.426.426,0,0,1,.3-.126h.479v-.479a.427.427,0,0,1,.425-.427.428.428,0,0,1,.427.427v.479h.479a.426.426,0,1,1,0,.852Z" transform="translate(-664.752 -112.901)" fill="#bfc4d5"/>
    <path id="Path_5" data-name="Path 5" d="M672.094,123.688v10.857a1.826,1.826,0,0,1-2.345,1.748l-.133-.046L654.18,131.06V116.35l16.627,5.59a.887.887,0,0,1,.085.028,1.836,1.836,0,0,1,1.059,1.014A1.789,1.789,0,0,1,672.094,123.688Z" transform="translate(-654.18 -112.904)" fill="#bfc4d5"/>
    <path id="Path_6" data-name="Path 6" d="M672.094,123.688v10.857a1.826,1.826,0,0,1-2.345,1.748l-.133-.046L654.18,131.06V116.35l16.627,5.59a.887.887,0,0,1,.085.028,1.836,1.836,0,0,1,1.059,1.014A1.789,1.789,0,0,1,672.094,123.688Z" transform="translate(-654.18 -112.904)" fill="#bfc4d5"/>
  </g>
  <g id="Group_24" data-name="Group 24" transform="translate(0 3.852)">
    <g id="Group_23" data-name="Group 23" transform="translate(0 0)">
      <path id="Path_7" data-name="Path 7" d="M296.768,141.154a1.6,1.6,0,0,0,1.764,1.515c.882,0,1.312-.475,1.312-.973,0-.407-.271-.747-1.108-.928l-1.289-.294c-2.4-.52-3.348-1.877-3.348-3.461,0-2.059,1.809-3.732,4.32-3.732,3.257,0,4.388,2.036,4.5,3.348l-2.85.52a1.477,1.477,0,0,0-1.606-1.38,1.1,1.1,0,0,0-1.222.973c0,.475.385.747.882.837l1.493.294c2.33.475,3.461,1.877,3.461,3.529,0,1.923-1.47,3.8-4.479,3.8-3.529,0-4.66-2.285-4.75-3.529Z" transform="translate(-293.85 -133.282)" fill="#bfc4d5"/>
      <path id="Path_8" data-name="Path 8" d="M367.28,135.445l2.194,6.673,1.877-6.673h3.37L371.238,147h-3.416l-2.443-7.575-2.4,7.575H359.5l-3.529-11.556h3.574l1.877,6.65,2.217-6.65Z" transform="translate(-346.221 -135.106)" fill="#bfc4d5"/>
      <path id="Path_9" data-name="Path 9" d="M481.663,151.007l2.556-5.836-4.728-9.726h3.845l2.737,6.017,2.488-6.017H492.2l-6.922,15.562Z" transform="translate(-450.357 -135.106)" fill="#bfc4d5"/>
      <path id="Path_10" data-name="Path 10" d="M566.29,141.154a1.6,1.6,0,0,0,1.764,1.515c.882,0,1.312-.475,1.312-.973,0-.407-.271-.747-1.108-.928l-1.289-.294c-2.4-.52-3.348-1.877-3.348-3.461,0-2.059,1.81-3.732,4.32-3.732,3.257,0,4.388,2.036,4.5,3.348l-2.85.52a1.477,1.477,0,0,0-1.606-1.38,1.1,1.1,0,0,0-1.221.973c0,.475.384.747.882.837l1.493.294c2.33.475,3.461,1.877,3.461,3.529,0,1.923-1.47,3.8-4.479,3.8-3.529,0-4.66-2.285-4.75-3.529Z" transform="translate(-521.075 -133.282)" fill="#bfc4d5"/>
    </g>
  </g>
</svg>
