<svg id="Group_7193" data-name="Group 7193" xmlns="http://www.w3.org/2000/svg" width="42" height="42" viewBox="0 0 42 42">
  <rect id="Rectangle_2879" data-name="Rectangle 2879" width="42" height="42" rx="21" fill="#eaeefd"/>
  <g id="view_1_" data-name="view (1)" transform="translate(12 -66.969)">
    <g id="Group_7197" data-name="Group 7197" transform="translate(6.107 85.077)">
      <g id="Group_7196" data-name="Group 7196">
        <path id="Path_9135" data-name="Path 9135" d="M159.309,156.416a2.893,2.893,0,1,0,2.893,2.893A2.895,2.895,0,0,0,159.309,156.416Zm-.219,2.035a.664.664,0,0,0-.658.658h-.958a1.635,1.635,0,0,1,1.616-1.616Z" transform="translate(-156.416 -156.416)" fill="#2c3149"/>
      </g>
    </g>
    <g id="Group_7199" data-name="Group 7199" transform="translate(0 82.176)">
      <g id="Group_7198" data-name="Group 7198" transform="translate(0)">
        <path id="Path_9136" data-name="Path 9136" d="M17.79,87.37c-.979-1.219-4.475-5.194-8.79-5.194S1.189,86.152.21,87.37a.961.961,0,0,0,0,1.2c.979,1.219,4.475,5.194,8.79,5.194s7.811-3.976,8.79-5.194A.961.961,0,0,0,17.79,87.37ZM9,92.165a4.2,4.2,0,1,1,4.2-4.2A4.195,4.195,0,0,1,9,92.165Z" transform="translate(0 -82.176)" fill="#2c3149"/>
      </g>
    </g>
  </g>
</svg>
