<svg id="Group_7193" data-name="Group 7193" xmlns="http://www.w3.org/2000/svg" width="42" height="42" viewBox="0 0 42 42">
  <rect id="Rectangle_2879" data-name="Rectangle 2879" width="42" height="42" rx="21" fill="#eaeefd"/>
  <g id="paint-board-and-brush" transform="translate(12 13.697)">
    <path id="Path_9124" data-name="Path 9124" d="M17.636,41.186a.25.25,0,0,0-.436-.053,2.206,2.206,0,0,1-1.211.761,4.526,4.526,0,0,0-1.22.591,1.555,1.555,0,0,0-.752,1.606L14,44.11a8.212,8.212,0,0,0-.827-1.02,7.729,7.729,0,0,0-5.263-2.363c-.087,0-.175,0-.262,0a7.634,7.634,0,0,0-5.782,2.7,7.6,7.6,0,0,0-1.782,6.1c.028.181.063.364.1.544A6.79,6.79,0,0,0,3.984,55.04a3.592,3.592,0,0,0,1.382.289A3.075,3.075,0,0,0,8.08,53.667a3.6,3.6,0,0,0,.432-1.236A2.982,2.982,0,0,0,8.5,51.7a2.753,2.753,0,0,1-.011-.712.954.954,0,0,1,1-.856,1.545,1.545,0,0,1,.469.076c-.184.338-.352.661-.5.96a9.745,9.745,0,0,0-.636,1.56c-.069.247-.252.905.195,1.215a.668.668,0,0,0,.509.1c.169-.031.682-.127,2.141-1.787.392-.446.813-.961,1.254-1.533a3.4,3.4,0,0,0,2.246-2.42,3.567,3.567,0,0,0,.072-.867c.424-.655.8-1.266,1.17-1.923l.021-.04a2.062,2.062,0,0,0,1.285-1.162A3.974,3.974,0,0,0,17.636,41.186Zm-6.12,4.084a1.066,1.066,0,1,1,.137-.8A1.061,1.061,0,0,1,11.517,45.269ZM12.9,47.2c.539-.794,1.109-1.583,1.65-2.285a2.922,2.922,0,0,0,.292.23,2.246,2.246,0,0,0,.549.281c-.457.782-.948,1.556-1.544,2.432a40.011,40.011,0,0,1-2.862,3.768,11.038,11.038,0,0,1-1.236,1.243,11.154,11.154,0,0,1,.7-1.614A40.133,40.133,0,0,1,12.9,47.2Zm-9.462-.007a1.066,1.066,0,1,1,.9-.5A1.063,1.063,0,0,1,3.438,47.194ZM2.321,49.541a1.066,1.066,0,1,1-.138.8A1.061,1.061,0,0,1,2.321,49.541ZM5.735,43.21a1.066,1.066,0,1,1-.137.8A1.061,1.061,0,0,1,5.735,43.21Z" transform="translate(0 -40.723)" fill="#2c3149"/>
  </g>
</svg>
