<svg id="Group_7193" data-name="Group 7193" xmlns="http://www.w3.org/2000/svg" width="42" height="42" viewBox="0 0 42 42">
  <rect id="Rectangle_2879" data-name="Rectangle 2879" width="42" height="42" rx="21" fill="#eaeefd"/>
  <path id="star" d="M17.952,7.014a.955.955,0,0,0-.823-.657l-5.2-.472L9.88,1.077a.957.957,0,0,0-1.76,0L6.066,5.885l-5.2.472A.958.958,0,0,0,.326,8.031l3.928,3.444L3.1,16.576A.957.957,0,0,0,4.519,17.61L9,14.931l4.48,2.679A.957.957,0,0,0,14.9,16.576l-1.158-5.1,3.928-3.444a.958.958,0,0,0,.279-1.017ZM9.086,14.879" transform="translate(12 11.879)" fill="#2c3149"/>
</svg>
