<svg id="Group_7193" data-name="Group 7193" xmlns="http://www.w3.org/2000/svg" width="42" height="42" viewBox="0 0 42 42">
  <rect id="Rectangle_2879" data-name="Rectangle 2879" width="42" height="42" rx="21" fill="#eaeefd"/>
  <g id="text-font" transform="translate(12 14.939)">
    <path id="Path_9126" data-name="Path 9126" d="M7.073,81.993a1.393,1.393,0,0,0-1.329-.988H4.234A1.394,1.394,0,0,0,2.9,82L.058,91.389a1.351,1.351,0,0,0,.2,1.194,1.329,1.329,0,0,0,2.358-.44L3.2,90.016H6.645l.63,2.113a1.387,1.387,0,0,0,2.453.428,1.414,1.414,0,0,0,.209-1.249ZM3.6,87.966l.712-2.572c.2-.7.375-1.618.554-2.338H4.9c.179.72.394,1.619.607,2.338l.749,2.572Z" transform="translate(0 -81.005)" fill="#2c3149"/>
    <path id="Path_9127" data-name="Path 9127" d="M322.854,213.273v-2.482c0-1.679-.76-3.081-3.141-3.081a6.468,6.468,0,0,0-2.155.353.716.716,0,0,0-.449.871l.007.024a.728.728,0,0,0,.933.489,4.068,4.068,0,0,1,1.27-.219c1.1,0,1.3.54,1.3.92v.1c-2.527-.015-4.191.876-4.191,2.73a2.188,2.188,0,0,0,2.308,2.19,2.573,2.573,0,0,0,2.044-.876h.043l.057.312a.493.493,0,0,0,.485.4H322.4a.493.493,0,0,0,.492-.53C322.865,214.129,322.854,213.707,322.854,213.273Zm-2.162-.861a1.562,1.562,0,0,1-.044.38,1.212,1.212,0,0,1-1.153.818.8.8,0,0,1-.876-.847c0-.861.906-1.139,2.073-1.124Z" transform="translate(-304.894 -203.048)" fill="#2c3149"/>
  </g>
</svg>
